<?xml version="1.0" encoding="UTF-8" standalone="no"?>
<!-- Created with Inkscape (http://www.inkscape.org/) -->

<svg
   width="43.115715mm"
   height="43.115715mm"
   viewBox="0 0 43.115715 43.115715"
   version="1.1"
   id="svg1"
   xml:space="preserve"
   inkscape:version="1.3 (0e150ed6c4, 2023-07-21)"
   sodipodi:docname="identificadorGrafico.svg"
   xmlns:inkscape="http://www.inkscape.org/namespaces/inkscape"
   xmlns:sodipodi="http://sodipodi.sourceforge.net/DTD/sodipodi-0.dtd"
   xmlns="http://www.w3.org/2000/svg"
   xmlns:svg="http://www.w3.org/2000/svg"><sodipodi:namedview
     id="namedview1"
     pagecolor="#ffffff"
     bordercolor="#999999"
     borderopacity="1"
     inkscape:showpageshadow="2"
     inkscape:pageopacity="0"
     inkscape:pagecheckerboard="0"
     inkscape:deskcolor="#d1d1d1"
     inkscape:document-units="mm"
     showguides="true"
     inkscape:zoom="1.4022026"
     inkscape:cx="125.16023"
     inkscape:cy="41.006914"
     inkscape:window-width="1920"
     inkscape:window-height="1001"
     inkscape:window-x="-9"
     inkscape:window-y="-9"
     inkscape:window-maximized="1"
     inkscape:current-layer="layer2" /><defs
     id="defs1" /><g
     inkscape:groupmode="layer"
     id="layer2"
     inkscape:label="Capa 2"
     transform="translate(-7.3478719,-61.627764)"><path
       id="path4"
       style="opacity:1;fill:#ffffff;fill-opacity:1;stroke-width:2;stroke-linecap:round"
       d="m 28.905729,61.62777 c -11.905994,6e-5 -21.5577971,9.65188 -21.5578571,21.55785 6e-5,11.906 9.6518631,21.5578 21.5578571,21.55786 11.905974,-6e-5 21.557797,-9.65186 21.557857,-21.55786 -3.9e-5,-7.8367 -4.1824,-14.69527 -10.436055,-18.46915 v -0.0021 h -0.0031 c -3.246573,-1.95842 -7.050753,-3.08658 -11.118702,-3.0866 z" /><path
       id="path2"
       style="opacity:1;fill:#000000;fill-opacity:1;stroke-width:2;stroke-linecap:round"
       d="m 28.905729,61.627763 c -11.906018,6e-5 -21.5577971,9.651843 -21.5578571,21.557857 6e-5,11.90602 9.6518391,21.5578 21.5578571,21.55786 11.905998,-6e-5 21.557797,-9.65184 21.557857,-21.55786 -6e-5,-11.906014 -9.651859,-21.557797 -21.557857,-21.557857 z m -0.01964,3.258199 3.542936,8.266679 6.376872,-4.92063 -1.732194,9.644372 H 20.698478 l -1.69292,-9.52655 6.36757,4.802808 z M 20.718112,78.942468 H 37.09334 v 1.535307 H 20.718115 Z m 8.44548,3.11919 c 1.139118,0 2.221534,0.08581 3.247863,0.257865 1.026319,0.16517 1.973765,0.402928 2.842204,0.712618 0.879709,0.3097 1.669598,0.684548 2.368848,1.124996 0.699269,0.43357 1.291159,0.91547 1.776119,1.44539 0.484979,0.529917 0.857328,1.104566 1.116727,1.723926 0.27068,0.612507 0.406177,1.252739 0.406177,1.920296 0,0.667557 -0.147053,1.314183 -0.440283,1.94045 -0.28197,0.619387 -0.687934,1.200949 -1.218014,1.744596 -0.518799,0.536797 -1.150078,1.032512 -1.894458,1.486731 -0.744369,0.44733 -1.573637,0.832542 -2.487186,1.156002 -0.902269,0.31658 -1.877548,0.561239 -2.926437,0.733289 -1.048889,0.178929 -2.148634,0.2682 -3.299023,0.2682 -1.725598,0 -3.310603,-0.185959 -4.754232,-0.557588 -1.432358,-0.37163 -2.667074,-0.880666 -3.704683,-1.527556 -1.037589,-0.646919 -1.849538,-1.404042 -2.436027,-2.271179 -0.57519,-0.874027 -0.862997,-1.813646 -0.862997,-2.818433 0,-0.667557 0.140754,-1.310727 0.422714,-1.930114 0.293239,-0.62627 0.699204,-1.211253 1.218013,-1.754932 0.53008,-0.543687 1.167649,-1.039401 1.912028,-1.486731 0.744359,-0.454217 1.567864,-0.839422 2.470134,-1.156002 0.913549,-0.323447 1.89459,-0.571574 2.943489,-0.743624 1.048889,-0.178927 2.148625,-0.2682 3.299024,-0.2682 z m -0.253732,0.609265 c -0.924829,0 -1.731511,0.175076 -2.41949,0.526066 -0.68798,0.34411 -1.263057,0.819102 -1.725476,1.424719 -0.45113,0.59874 -0.789356,1.304063 -1.014925,2.11615 -0.22557,0.805207 -0.338481,1.665921 -0.338481,2.581238 0,0.922157 0.112911,1.785879 0.338481,2.591056 0.225569,0.805207 0.563795,1.510531 1.014925,2.11615 0.462419,0.598749 1.037496,1.07374 1.725476,1.424719 0.687979,0.34411 1.494661,0.515731 2.41949,0.515731 0.924829,0 1.731015,-0.171621 2.418974,-0.515731 0.687979,-0.350979 1.25781,-0.82597 1.70894,-1.424719 0.462419,-0.605619 0.806408,-1.310943 1.031978,-2.11615 0.22556,-0.805177 0.338481,-1.668899 0.338481,-2.591056 0,-0.915317 -0.112921,-1.776031 -0.338481,-2.581238 -0.22557,-0.812087 -0.569559,-1.51741 -1.031978,-2.11615 -0.45113,-0.605617 -1.020961,-1.080609 -1.70894,-1.424719 -0.687959,-0.35099 -1.494145,-0.526066 -2.418974,-0.526066 z m -2.778125,4.771285 c 0.976329,2e-5 1.767841,0.791504 1.767851,1.767851 -10e-6,0.976347 -0.791522,1.76783 -1.767851,1.76785 -0.976349,-2e-5 -1.76783,-0.791503 -1.76785,-1.76785 2e-5,-0.976347 0.791501,-1.767831 1.76785,-1.767851 z m 5.364531,0 c 0.976349,2e-5 1.76784,0.791504 1.76785,1.767851 -1e-5,0.976347 -0.791501,1.76783 -1.76785,1.76785 -0.976349,-2e-5 -1.767831,-0.791503 -1.767851,-1.76785 2e-5,-0.976347 0.791502,-1.767831 1.767851,-1.767851 z m 7.936466,9.02994 v 5.16e-4 c 0.0507,0.003 0.101179,0.01683 0.151929,0.04083 0.10151,0.055 0.113056,0.117215 0.03411,0.186035 -0.372189,0.32346 -0.857459,0.667229 -1.455208,1.031978 -0.586479,0.36475 -1.279724,0.702145 -2.080493,1.011825 -0.789489,0.30969 -1.680733,0.567653 -2.673222,0.774113 -0.992479,0.20646 -2.075422,0.310058 -3.248381,0.310058 -0.687979,0 -1.319268,-0.038 -1.894458,-0.113688 -0.575199,-0.0757 -1.110887,-0.171881 -1.607137,-0.288871 -0.496249,-0.11012 -0.964705,-0.23443 -1.404565,-0.37207 -0.43986,-0.13076 -0.873667,-0.254554 -1.302246,-0.371554 -0.4173,-0.11011 -0.83482,-0.202836 -1.25212,-0.278536 -0.4173,-0.0757 -0.851633,-0.113688 -1.302763,-0.113688 -0.439849,0 -0.800651,0.02071 -1.082621,0.06201 -0.28195,0.0482 -0.479422,0.0827 -0.592212,0.103353 -0.14661,0.0344 -0.264787,0.01712 -0.355017,-0.05168 -0.0902,-0.0619 -0.06237,-0.137906 0.08423,-0.227376 0.0677,-0.0413 0.270916,-0.134016 0.609266,-0.278536 0.338349,-0.14451 0.777939,-0.295946 1.319299,-0.454236 0.552639,-0.15141 1.195982,-0.289025 1.929081,-0.412895 0.733089,-0.12388 1.528235,-0.186035 2.385384,-0.186035 0.744379,0 1.426594,0.02415 2.046904,0.07235 0.620309,0.055 1.206943,0.120661 1.759582,0.196371 0.32707,0.0482 0.648513,0.096 0.964282,0.144177 0.3158,0.0551 0.642469,0.103404 0.980819,0.144694 0.33835,0.0413 0.688132,0.0758 1.049032,0.103353 0.372169,0.0275 0.778154,0.04134 1.218013,0.04134 0.62031,0 1.206943,-0.03801 1.759583,-0.113688 0.563919,-0.0688 1.082804,-0.158081 1.556494,-0.268201 0.484959,-0.10323 0.91352,-0.217185 1.285709,-0.341064 0.38345,-0.12388 0.704893,-0.233863 0.964283,-0.330213 0.0508,-0.0172 0.101695,-0.02407 0.152445,-0.02067 z"
       inkscape:export-filename="pruebas\50.svg"
       inkscape:export-xdpi="96"
       inkscape:export-ydpi="96" /></g></svg>
