<?xml version="1.0" encoding="UTF-8" standalone="no"?>
<!-- Created with Inkscape (http://www.inkscape.org/) -->

<svg
   width="46.460835mm"
   height="46.460842mm"
   viewBox="0 0 46.460835 46.460842"
   version="1.1"
   id="svg1"
   xml:space="preserve"
   xmlns:inkscape="http://www.inkscape.org/namespaces/inkscape"
   xmlns:sodipodi="http://sodipodi.sourceforge.net/DTD/sodipodi-0.dtd"
   xmlns="http://www.w3.org/2000/svg"
   xmlns:svg="http://www.w3.org/2000/svg"><sodipodi:namedview
     id="namedview1"
     pagecolor="#ffffff"
     bordercolor="#999999"
     borderopacity="1"
     inkscape:showpageshadow="2"
     inkscape:pageopacity="0"
     inkscape:pagecheckerboard="0"
     inkscape:deskcolor="#d1d1d1"
     inkscape:document-units="mm" /><defs
     id="defs1" /><g
     inkscape:label="Capa 1"
     inkscape:groupmode="layer"
     id="layer1"
     transform="translate(-82.946253,-225.3641)"><path
       fill="#231f20"
       d="m 129.40709,248.59452 a 23.230416,23.230416 0 0 1 -23.23042,23.23042 23.230416,23.230416 0 0 1 -23.230417,-23.23042 23.230416,23.230416 0 0 1 23.230417,-23.23042 23.230416,23.230416 0 0 1 23.23042,23.23042 z m -35.173713,4.65931 a 3.6962291,3.6962291 0 0 0 3.21998,5.51127 h 17.467793 a 3.6962291,3.6962291 0 0 0 3.21998,-5.51127 l -8.7339,-15.48871 a 3.6962291,3.6962291 0 0 0 -6.43996,0 z"
       id="path111"
       style="stroke-width:0.264583" /><path
       fill="#ffffff"
       d="m 94.233377,253.25383 8.733893,-15.48871 a 3.6962291,3.6962291 0 0 1 6.43996,0 l 8.7339,15.48871 a 3.6962291,3.6962291 0 0 1 -3.21998,5.51127 H 97.453357 a 3.6962291,3.6962291 0 0 1 -3.21998,-5.51127 z"
       id="path119"
       style="stroke-width:0.264583" /></g></svg>
