<?xml version="1.0" encoding="UTF-8" standalone="no"?>
<!-- Created with Inkscape (http://www.inkscape.org/) -->

<svg
   width="53.833244mm"
   height="53.837315mm"
   viewBox="0 0 53.833244 53.837315"
   version="1.1"
   id="svg1"
   xml:space="preserve"
   inkscape:version="1.3 (0e150ed6c4, 2023-07-21)"
   sodipodi:docname="identificadorGrafico.svg"
   xmlns:inkscape="http://www.inkscape.org/namespaces/inkscape"
   xmlns:sodipodi="http://sodipodi.sourceforge.net/DTD/sodipodi-0.dtd"
   xmlns="http://www.w3.org/2000/svg"
   xmlns:svg="http://www.w3.org/2000/svg"><sodipodi:namedview
     id="namedview1"
     pagecolor="#ffffff"
     bordercolor="#999999"
     borderopacity="1"
     inkscape:showpageshadow="2"
     inkscape:pageopacity="0"
     inkscape:pagecheckerboard="0"
     inkscape:deskcolor="#d1d1d1"
     inkscape:document-units="mm"
     showguides="true"
     inkscape:zoom="1.4022026"
     inkscape:cx="-483.16841"
     inkscape:cy="208.60039"
     inkscape:window-width="1920"
     inkscape:window-height="1001"
     inkscape:window-x="-9"
     inkscape:window-y="-9"
     inkscape:window-maximized="1"
     inkscape:current-layer="layer2" /><defs
     id="defs1" /><g
     inkscape:groupmode="layer"
     id="layer2"
     inkscape:label="Capa 2"
     transform="translate(443.84117,-260.69451)"><path
       fill="#3ba9e8"
       d="m -418.09698,260.69952 2.2658,-0.005 2.18779,0.18501 2.24352,0.37002 0.36778,0.078 1.78656,0.46475 2.24909,0.77682 q 2.27472,0.91056 4.39118,2.2268 l 1.4589,0.97408 0.79576,0.6063 q 2.23014,1.73752 4.09138,3.95428 l 0.25856,0.30204 1.36751,1.83337 0.98411,1.52243 0.33994,0.62524 1.14126,2.32933 0.75898,1.92254 0.0769,0.26859 0.61298,2.17441 0.42908,2.26135 0.23628,2.27249 0.0457,2.15324 -0.11257,2.20228 -0.31763,2.28029 -0.47812,2.12872 q -0.5985,2.28698 -1.67401,4.5383 -1.05321,2.23571 -2.57117,4.33322 l -0.76568,1.0053 -1.04206,1.21593 -1.14126,1.20478 -0.29312,-1.03315 -0.77125,-2.30816 -1.05432,-2.19447 q -0.0658,-0.0836 -0.0201,-0.0357 -0.6754,-1.20814 -1.48899,-2.25021 l -0.68319,-0.84034 -1.40094,-1.45667 -0.86933,-0.77347 q -1.98717,-1.65728 -4.40901,-2.73724 l -1.99387,-0.77459 q 1.16244,-0.74449 2.00837,-1.63053 l 0.51267,-0.57063 q 0.85037,-0.9674 1.4823,-2.24575 l 0.27863,-0.66759 q 0.36444,-0.77682 0.51045,-1.51016 0.29646,-1.16244 0.32543,-2.34717 0.0167,-1.12788 -0.17832,-2.19893 -0.46698,-2.52326 -2.02062,-4.56727 l -0.90386,-1.05545 q -1.92922,-1.95263 -4.56727,-2.78962 -1.10671,-0.32767 -2.21677,-0.43132 -1.27278,-0.0992 -2.31596,0.0323 -1.21259,0.16271 -2.17664,0.49038 -4.53384,1.63164 -6.53662,6.05849 l -0.2385,0.69991 q -0.30761,0.76233 -0.41683,1.43327 -0.2229,1.19698 -0.21622,2.32153 0.0335,1.22819 0.30315,2.30147 l 0.30203,1.01421 0.47701,1.20144 q 1.38312,2.80745 3.98216,4.477 0.008,0.0847 -0.13263,0.1304 -1.02423,0.33324 -1.98606,0.78907 -2.56561,1.18361 -4.68207,3.04596 l -0.30649,0.2764 q -0.98746,0.91502 -1.8891,2.00835 l -0.11368,0.15046 q -0.8604,1.0677 -1.62384,2.3884 l -0.37448,0.69211 -0.72666,1.56924 q -0.45584,1.07996 -0.77236,2.29701 l -0.2608,1.10783 q -0.0123,0.0524 -0.0535,0.0178 l -0.21176,-0.17832 -0.96851,-1.01978 -1.17915,-1.37753 -0.66649,-0.87378 q -1.5447,-2.11535 -2.64028,-4.44691 -1.03983,-2.19893 -1.63833,-4.44244 l -0.48369,-2.13987 -0.31875,-2.31596 -0.11257,-2.18667 0.0401,-2.09974 0.24965,-2.31039 0.45026,-2.29923 q 0.54388,-2.23349 1.45777,-4.35552 l 1.14127,-2.32822 q 0.14154,-0.19616 0.14823,-0.29646 l 1.22374,-1.92253 1.03872,-1.40986 0.49596,-0.60295 q 1.77988,-2.12315 3.95763,-3.86067 l 0.9596,-0.73558 1.20701,-0.82474 q 2.25466,-1.43549 4.5762,-2.36611 l 2.13652,-0.75119 1.90135,-0.50487 0.34773,-0.0758 2.1889,-0.37002 z"
       id="path368"
       style="fill:#ffffff;stroke-width:0.111451" /><path
       fill="#3ba9e8"
       d="m -415.90473,275.32972 q 1.15463,0.14823 2.24016,0.58623 2.38952,1.05991 3.74811,3.25884 l 0.60296,1.24269 0.28642,0.89383 q 0.28754,1.12789 0.2608,2.27918 -0.0457,1.06882 -0.36333,2.14544 -0.68208,2.13763 -2.39955,3.66452 l -0.84926,0.65087 -1.28838,0.68431 q -1.06992,0.43466 -2.16215,0.57955 -1.12008,0.12371 -2.25354,-0.0468 -1.04541,-0.1694 -2.13764,-0.65868 l -0.97074,-0.53273 -1.24268,-1.0053 -0.96963,-1.1446 q -1.34856,-1.97715 -1.44441,-4.33211 -0.078,-2.40066 1.20257,-4.51266 0.51267,-0.80913 1.17469,-1.47115 l 0.73335,-0.652 1.38646,-0.86374 q 1.14237,-0.52494 2.28363,-0.71329 1.08888,-0.15269 2.16216,-0.0524 z"
       id="path388"
       style="fill:#ffffff;stroke-width:0.111451" /><path
       fill="#3ba9e8"
       d="m -415.89025,294.54838 q 2.25912,0.12929 4.44022,0.90721 1.03761,0.36556 2.1733,0.95626 l 1.06213,0.60964 1.15909,0.80913 1.66843,1.4589 0.55725,0.58289 1.26721,1.60378 0.96851,1.54583 0.31987,0.64753 0.87154,2.20228 q 0.36445,1.17024 0.53831,2.2736 l 0.16495,0.95402 q 0.005,0.0234 -0.0156,0.0379 l -1.47004,1.03093 -0.37559,0.23181 -2.25912,1.27612 -1.51797,0.70103 -0.65199,0.27306 -2.23683,0.77012 -2.26691,0.56394 q -5.56142,1.11898 -11.11058,-0.0491 l -2.09082,-0.53609 -2.32711,-0.81359 -0.35107,-0.15046 -1.88687,-0.87377 -2.17107,-1.25049 -0.097,-0.0624 -1.421,-0.97744 a 0.17052043,0.17163495 21.3 0 1 -0.0725,-0.16606 l 0.13374,-0.92059 0.56506,-2.36053 0.86597,-2.16216 0.10031,-0.23181 1.21928,-1.99498 q 1.36305,-1.93925 3.22316,-3.4093 l 1.48677,-1.07104 0.66982,-0.37894 q 1.08107,-0.59069 2.20005,-1.01867 2.19447,-0.83588 4.48479,-0.99413 1.10115,-0.088 2.18222,-0.0145 z"
       id="path428"
       style="fill:#ffffff;stroke-width:0.111451" /></g></svg>
