<?xml version="1.0" encoding="UTF-8" standalone="no"?>
<!-- Created with Inkscape (http://www.inkscape.org/) -->

<svg
   width="43.115944mm"
   height="43.11594mm"
   viewBox="0 0 43.115944 43.11594"
   version="1.1"
   id="svg1"
   xml:space="preserve"
   xmlns:inkscape="http://www.inkscape.org/namespaces/inkscape"
   xmlns:sodipodi="http://sodipodi.sourceforge.net/DTD/sodipodi-0.dtd"
   xmlns="http://www.w3.org/2000/svg"
   xmlns:svg="http://www.w3.org/2000/svg"><sodipodi:namedview
     id="namedview1"
     pagecolor="#ffffff"
     bordercolor="#999999"
     borderopacity="1"
     inkscape:showpageshadow="2"
     inkscape:pageopacity="0"
     inkscape:pagecheckerboard="0"
     inkscape:deskcolor="#d1d1d1"
     inkscape:document-units="mm"
     showguides="true"><sodipodi:guide
       position="64.673407,348.93899"
       orientation="1,0"
       id="guide28"
       inkscape:locked="false" /><sodipodi:guide
       position="88.696527,344.53597"
       orientation="1,0"
       id="guide29"
       inkscape:locked="false" /></sodipodi:namedview><defs
     id="defs1" /><g
     inkscape:groupmode="layer"
     id="layer2"
     inkscape:label="Capa 2"
     transform="translate(-39.324613,-198.5729)"><circle
       style="opacity:1;fill:#ffffff;fill-opacity:1;stroke-width:2;stroke-linecap:round"
       id="circle39"
       cx="60.882587"
       cy="220.13086"
       r="21.557974"
       inkscape:export-filename="path29.svg"
       inkscape:export-xdpi="96"
       inkscape:export-ydpi="96" /><path
       id="path38"
       style="opacity:1;fill:#000000;fill-opacity:1;stroke-width:2;stroke-linecap:round"
       d="m 60.882589,198.57289 a 21.557974,21.557974 0 0 0 -21.557858,21.55786 21.557974,21.557974 0 0 0 21.557858,21.55786 21.557974,21.557974 0 0 0 21.557857,-21.55786 21.557974,21.557974 0 0 0 -21.557857,-21.55786 z m -0.621668,4.45658 v 5.1e-4 c 0.068,0 0.143233,0.0152 0.226343,0.0455 0.07556,0.0302 0.113688,0.10597 0.113688,0.22686 v 0.11472 a 1.257185,1.2299919 0 0 0 -0.86248,1.1653 1.257185,1.2299919 0 0 0 0.86248,1.16531 v 0.52296 c 0.0025,0 0.0047,10e-4 0.0072,0.002 v 2.77244 c 0,0.10578 -0.02998,0.18156 -0.09043,0.22686 -0.06044,0.0453 -0.154746,0.03 -0.283187,-0.0455 -0.06044,-0.0378 -0.173816,-0.0907 -0.340031,-0.15865 -0.166217,-0.0756 -0.35534,-0.14697 -0.56689,-0.21497 -0.219103,-0.068 -0.445847,-0.12849 -0.680062,-0.18139 -0.234215,-0.0529 -0.45333,-0.0796 -0.657324,-0.0796 -0.256881,0 -0.525058,0.0305 -0.804602,0.091 -0.287104,0.0529 -0.547651,0.16626 -0.781865,0.34003 -0.24177,0.17377 -0.438006,0.42669 -0.589111,0.75913 -0.151113,0.32487 -0.22686,0.75929 -0.22686,1.30328 0,0.58176 0.09049,1.10286 0.271818,1.56373 0.173771,0.45332 0.40814,0.85777 0.7028,1.21284 0.287102,0.3551 0.615778,0.6609 0.985986,0.91778 0.370211,0.25688 0.744132,0.47981 1.121896,0.66869 0.192926,0.0984 0.383282,0.18657 0.572058,0.26665 H 62.6184 c 0.188778,-0.0799 0.37913,-0.16822 0.572058,-0.26665 0.377762,-0.18888 0.751685,-0.41181 1.121896,-0.66869 0.370208,-0.25688 0.699399,-0.56268 0.986503,-0.91778 0.294655,-0.35506 0.52851,-0.75952 0.702282,-1.21284 0.181327,-0.46087 0.271818,-0.98197 0.271818,-1.56373 0,-0.54399 -0.07524,-0.97841 -0.226342,-1.30328 -0.151107,-0.33243 -0.347344,-0.58587 -0.589112,-0.75964 -0.234216,-0.17377 -0.495276,-0.28664 -0.782381,-0.33952 -0.279547,-0.0605 -0.547721,-0.091 -0.804602,-0.091 -0.203995,0 -0.423109,0.0267 -0.657324,0.0796 -0.234215,0.0529 -0.460957,0.1134 -0.680062,0.18139 -0.21155,0.068 -0.40016,0.13941 -0.566374,0.21497 -0.166216,0.0679 -0.279588,0.12086 -0.340031,0.15865 -0.128441,0.0755 -0.222744,0.0908 -0.283187,0.0455 -0.06045,-0.0453 -0.09095,-0.12108 -0.09095,-0.22686 v -2.77244 c 0.0025,-4.2e-4 0.0053,-0.002 0.0078,-0.002 v -0.52296 a 1.257185,1.2299919 0 0 0 0.86248,-1.16531 1.257185,1.2299919 0 0 0 -0.86248,-1.1653 v -0.11472 c 0,-0.12089 0.03762,-0.19663 0.113172,-0.22686 0.0831,-0.0303 0.158862,-0.0455 0.226859,-0.0455 v -5.1e-4 c 0.04819,0 0.09567,0.005 0.143661,0.005 a 1.7675273,1.7675273 0 0 1 0.874365,1.52083 1.7675273,1.7675273 0 0 1 -0.578259,1.30432 c -0.0092,0.006 -0.01705,0.0136 -0.02325,0.0232 a 1.7675273,1.7675273 0 0 1 -0.120922,0.093 c 0.03573,-0.026 0.07213,-0.0508 0.105936,-0.0796 -0.0079,0.0182 -0.0124,0.0406 -0.0124,0.0682 v 2.11667 c 0,0.0605 0.01855,0.098 0.05633,0.11317 0.04533,0.007 0.09109,-0.007 0.136426,-0.045 0.03778,-0.0302 0.165887,-0.11361 0.384989,-0.2496 0.219105,-0.136 0.502532,-0.27554 0.850078,-0.41909 0.347541,-0.15111 0.740534,-0.28738 1.178739,-0.40825 0.438209,-0.1209 0.891181,-0.18138 1.359607,-0.18138 0.513762,0 0.990129,0.0681 1.428337,0.20412 0.438203,0.136 0.815939,0.34367 1.133264,0.62322 0.317318,0.27954 0.566427,0.63492 0.747758,1.06557 0.181326,0.43062 0.272335,0.94085 0.272335,1.53013 0,0.34755 -0.05669,0.73621 -0.170016,1.16686 -0.113329,0.43065 -0.29864,0.8727 -0.555522,1.32602 -0.256879,0.44577 -0.596996,0.88399 -1.020092,1.31464 -0.415542,0.43821 -0.93283,0.8312 -1.55236,1.17874 -0.264096,0.14999 -0.552904,0.28643 -0.857829,0.41393 h 0.04444 c 0.36526,0 0.659391,0.29413 0.659391,0.65939 0,0.36526 -0.294131,0.65939 -0.659391,0.65939 h -8.865609 c -0.365261,0 -0.659391,-0.29413 -0.659391,-0.65939 0,-0.34117 0.256579,-0.61994 0.588077,-0.65525 -0.308518,-0.12859 -0.600293,-0.26653 -0.86713,-0.41807 -0.619531,-0.34754 -1.137336,-0.74053 -1.552877,-1.17874 -0.423097,-0.43065 -0.763212,-0.86887 -1.020093,-1.31464 -0.25688,-0.45332 -0.441676,-0.89537 -0.555005,-1.32602 -0.113327,-0.43065 -0.170015,-0.81931 -0.170015,-1.16686 0,-0.58929 0.09049,-1.0995 0.271818,-1.53013 0.181327,-0.43065 0.430951,-0.78603 0.748275,-1.06557 0.317323,-0.27955 0.695057,-0.48722 1.133264,-0.62322 0.438205,-0.13606 0.914057,-0.20412 1.42782,-0.20412 0.468427,0 0.921915,0.0605 1.360123,0.18138 0.438209,0.12087 0.831197,0.25714 1.17874,0.40825 0.347544,0.14355 0.630457,0.28309 0.84956,0.41909 0.219104,0.13599 0.347727,0.2194 0.385507,0.2496 0.04534,0.0384 0.09058,0.052 0.135909,0.045 0.03778,-0.0151 0.05684,-0.0527 0.05684,-0.11317 v -2.11667 c 0,-0.0276 -0.0045,-0.05 -0.0124,-0.0682 0.03381,0.0288 0.07021,0.0536 0.105937,0.0796 a 1.7675273,1.7675273 0 0 1 -0.12144,-0.093 c -0.0062,-0.01 -0.01354,-0.0172 -0.02274,-0.0232 a 1.7675273,1.7675273 0 0 1 -0.578259,-1.30432 1.7675273,1.7675273 0 0 1 0.874365,-1.52083 c 0.04799,0 0.09547,-0.005 0.14366,-0.005 z m 1.580782,2.98741 a 1.7675273,1.7675273 0 0 1 -0.120406,0.0713 c 0.04062,-0.0228 0.08165,-0.0453 0.120406,-0.0713 z m -0.185001,0.10852 a 1.7675273,1.7675273 0 0 1 -0.11989,0.0527 c 0.04035,-0.0169 0.08092,-0.033 0.11989,-0.0527 z m -0.195854,0.0853 a 1.7675273,1.7675273 0 0 1 -0.109554,0.0331 c 0.03659,-0.0107 0.07382,-0.0201 0.109554,-0.0331 z m -0.320394,12.79612 c 1.139119,0 2.221529,0.0858 3.247864,0.25786 1.026334,0.16517 1.973768,0.40293 2.842204,0.71262 0.879714,0.3097 1.669588,0.68455 2.368847,1.125 0.699265,0.43357 1.291151,0.91547 1.776119,1.44539 0.484974,0.52992 0.857323,1.10456 1.116728,1.72392 0.270683,0.61251 0.406177,1.25274 0.406177,1.9203 0,0.66756 -0.147049,1.31418 -0.440283,1.94045 -0.281962,0.61939 -0.687932,1.20094 -1.218014,1.74459 -0.518804,0.5368 -1.150085,1.03252 -1.894458,1.48674 -0.744373,0.44733 -1.573637,0.83254 -2.487187,1.156 -0.902271,0.31658 -1.877544,0.56124 -2.926436,0.73329 -1.048892,0.17893 -2.148632,0.2682 -3.299023,0.2682 -1.7256,0 -3.3106,-0.18596 -4.754232,-0.55759 -1.43236,-0.37163 -2.667071,-0.88067 -3.704684,-1.52756 -1.037613,-0.64692 -1.849546,-1.40404 -2.436027,-2.27118 -0.575196,-0.87403 -0.862996,-1.81364 -0.862996,-2.81843 0,-0.66756 0.140751,-1.31072 0.422713,-1.93011 0.29324,-0.62627 0.699204,-1.21126 1.218014,-1.75494 0.530082,-0.54369 1.167649,-1.0394 1.912028,-1.48673 0.744373,-0.45422 1.567862,-0.83942 2.470133,-1.156 0.91355,-0.32345 1.894598,-0.57157 2.94349,-0.74362 1.048891,-0.17893 2.148625,-0.2682 3.299023,-0.2682 z m -0.253731,0.60926 c -0.924829,0 -1.731504,0.17508 -2.419491,0.52607 -0.68798,0.34411 -1.263059,0.8191 -1.725476,1.42472 -0.451133,0.59874 -0.789356,1.30406 -1.014925,2.11615 -0.225569,0.80521 -0.338481,1.66592 -0.338481,2.58124 0,0.92216 0.112912,1.78587 0.338481,2.59105 0.225569,0.80521 0.563792,1.51053 1.014925,2.11615 0.462417,0.59875 1.037496,1.07374 1.725476,1.42472 0.687987,0.34411 1.494662,0.51573 2.419491,0.51573 0.924828,0 1.730987,-0.17162 2.418974,-0.51573 0.68798,-0.35098 1.257807,-0.82597 1.708939,-1.42472 0.462417,-0.60562 0.806409,-1.31094 1.031979,-2.11615 0.225563,-0.80518 0.33848,-1.66889 0.33848,-2.59105 0,-0.91532 -0.112917,-1.77603 -0.33848,-2.58124 -0.22557,-0.81209 -0.569562,-1.51741 -1.031979,-2.11615 -0.451132,-0.60562 -1.020959,-1.08061 -1.708939,-1.42472 -0.687987,-0.35099 -1.494146,-0.52607 -2.418974,-0.52607 z m -2.778125,4.77129 a 1.7678792,1.7678792 0 0 1 1.767851,1.76785 1.7678792,1.7678792 0 0 1 -1.767851,1.76785 1.7678792,1.7678792 0 0 1 -1.767851,-1.76785 1.7678792,1.7678792 0 0 1 1.767851,-1.76785 z m 5.36453,0 a 1.7678792,1.7678792 0 0 1 1.767851,1.76785 1.7678792,1.7678792 0 0 1 -1.767851,1.76785 1.7678792,1.7678792 0 0 1 -1.76785,-1.76785 1.7678792,1.7678792 0 0 1 1.76785,-1.76785 z m 7.936467,9.02994 v 5.1e-4 c 0.05075,0.003 0.101175,0.0168 0.151928,0.0408 0.101507,0.055 0.113053,0.11721 0.03411,0.18603 -0.37219,0.32346 -0.857456,0.66723 -1.455208,1.03198 -0.586481,0.36475 -1.279722,0.70213 -2.080494,1.01183 -0.789486,0.30969 -1.680722,0.56765 -2.673221,0.77411 -0.9925,0.20646 -2.075426,0.31006 -3.248381,0.31006 -0.687981,0 -1.319262,-0.038 -1.894458,-0.11369 -0.575196,-0.0757 -1.11089,-0.17188 -1.607137,-0.28887 -0.496253,-0.11012 -0.964711,-0.23443 -1.404565,-0.37207 -0.439861,-0.13076 -0.873665,-0.25456 -1.302247,-0.37156 -0.417297,-0.11011 -0.834816,-0.20283 -1.25212,-0.27853 -0.417297,-0.0757 -0.85163,-0.11369 -1.302762,-0.11369 -0.439861,0 -0.80066,0.0207 -1.082622,0.062 -0.281955,0.0482 -0.479427,0.0827 -0.592212,0.10335 -0.146614,0.0344 -0.264789,0.0171 -0.355017,-0.0517 -0.09023,-0.0619 -0.06239,-0.13791 0.08423,-0.22738 0.06767,-0.0413 0.270911,-0.13401 0.609265,-0.27853 0.338354,-0.14453 0.777939,-0.29595 1.319299,-0.45424 0.552645,-0.15141 1.195981,-0.28902 1.929082,-0.41289 0.733094,-0.12388 1.528226,-0.18604 2.385384,-0.18604 0.744373,0 1.426593,0.0242 2.046903,0.0724 0.620316,0.055 1.206938,0.12066 1.759583,0.19637 0.327069,0.0482 0.648485,0.096 0.964282,0.14418 0.315797,0.0551 0.642465,0.1034 0.980819,0.14469 0.338348,0.0413 0.688126,0.0758 1.049031,0.10335 0.37219,0.0275 0.778153,0.0413 1.218014,0.0413 0.620309,0 1.206943,-0.038 1.759582,-0.11368 0.563924,-0.0688 1.082805,-0.15809 1.556494,-0.26821 0.484975,-0.10323 0.913521,-0.21718 1.28571,-0.34106 0.383468,-0.12388 0.704883,-0.23386 0.964282,-0.33021 0.05075,-0.0172 0.101693,-0.0241 0.152446,-0.0207 z"
       inkscape:export-filename="path38.svg"
       inkscape:export-xdpi="96"
       inkscape:export-ydpi="96" /></g></svg>
