<?xml version="1.0" encoding="UTF-8" standalone="no"?>
<!-- Created with Inkscape (http://www.inkscape.org/) -->

<svg
   width="23.473522mm"
   height="33.150448mm"
   viewBox="0 0 23.473522 33.150448"
   version="1.1"
   id="svg1"
   xml:space="preserve"
   inkscape:version="1.3 (0e150ed6c4, 2023-07-21)"
   sodipodi:docname="identificadorGrafico.svg"
   xmlns:inkscape="http://www.inkscape.org/namespaces/inkscape"
   xmlns:sodipodi="http://sodipodi.sourceforge.net/DTD/sodipodi-0.dtd"
   xmlns="http://www.w3.org/2000/svg"
   xmlns:svg="http://www.w3.org/2000/svg"><sodipodi:namedview
     id="namedview1"
     pagecolor="#ffffff"
     bordercolor="#999999"
     borderopacity="1"
     inkscape:showpageshadow="2"
     inkscape:pageopacity="0"
     inkscape:pagecheckerboard="0"
     inkscape:deskcolor="#d1d1d1"
     inkscape:document-units="mm"
     showguides="true"
     inkscape:zoom="1.4022026"
     inkscape:cx="-483.16841"
     inkscape:cy="208.60039"
     inkscape:window-width="1920"
     inkscape:window-height="1001"
     inkscape:window-x="-9"
     inkscape:window-y="-9"
     inkscape:window-maximized="1"
     inkscape:current-layer="layer2" /><defs
     id="defs1" /><g
     inkscape:groupmode="layer"
     id="layer2"
     inkscape:label="Capa 2"
     transform="translate(71.223825,-78.670194)"><ellipse
       style="fill:#ffcc00;fill-opacity:1;stroke-width:0.621082;stroke-linecap:round"
       id="path7"
       cx="-59.487064"
       cy="95.245422"
       rx="11.736763"
       ry="16.575226" /><path
       id="path1-7"
       style="fill:#000000;fill-opacity:1;stroke-width:0.905727;stroke-linecap:round"
       d="m -59.540867,84.368664 -1.591117,3.74344 -2.883545,-2.175061 0.766878,4.314466 h 7.415568 l 0.784449,-4.367692 -2.887679,2.228287 z m -3.698999,6.365503 v 0.695564 h 7.415568 v -0.695564 z m 3.830774,1.297595 c -0.556749,0 -1.089177,0.07099 -1.596802,0.212907 -0.507624,0.136458 -0.982594,0.333086 -1.424719,0.589628 -0.436666,0.251083 -0.835026,0.55649 -1.195276,0.91674 -0.360249,0.354791 -0.668466,0.748048 -0.925008,1.179256 -0.251083,0.431208 -0.447711,0.894938 -0.589628,1.391646 -0.136458,0.49125 -0.204639,1.001715 -0.204639,1.531173 0,0.796916 0.139171,1.541798 0.417546,2.235008 0.283833,0.68775 0.676573,1.28836 1.178739,1.80144 0.502167,0.51308 1.099965,0.91706 1.793173,1.21181 0.698666,0.29475 1.46551,0.44183 2.300634,0.44183 0.55675,0 1.089178,-0.071 1.596802,-0.2129 0.507625,-0.13646 0.979785,-0.32976 1.416451,-0.58085 0.442125,-0.25654 0.843295,-0.56246 1.203544,-0.91725 0.36025,-0.36025 0.665657,-0.75299 0.91674,-1.17874 0.256542,-0.43121 0.45317,-0.892648 0.589628,-1.383897 0.141917,-0.496708 0.212907,-1.009983 0.212907,-1.539441 0,-0.529458 -0.06537,-1.037113 -0.19637,-1.522904 -0.125542,-0.49125 -0.305828,-0.947068 -0.540536,-1.367359 -0.234708,-0.420291 -0.520962,-0.802308 -0.859379,-1.146183 -0.338416,-0.349333 -0.72095,-0.646827 -1.1467,-0.892452 -0.420291,-0.245625 -0.878402,-0.433824 -1.37511,-0.564824 -0.496708,-0.136458 -1.020706,-0.204638 -1.571997,-0.204638 z m -0.12299,0.483174 c 0.447583,0 0.83803,0.139171 1.170988,0.417546 0.332958,0.272916 0.60849,0.649314 0.826823,1.129647 0.223792,0.474874 0.390028,1.034368 0.499195,1.67845 0.109166,0.638625 0.163814,1.320946 0.163814,2.046904 0,0.731416 -0.05465,1.416547 -0.163814,2.055172 -0.109167,0.638625 -0.275403,1.198115 -0.499195,1.678455 -0.218333,0.47487 -0.493865,0.85127 -0.826823,1.12964 -0.332958,0.27292 -0.723405,0.4098 -1.170988,0.4098 -0.447583,0 -0.83803,-0.13688 -1.170988,-0.4098 -0.332958,-0.27837 -0.611299,-0.65477 -0.835091,-1.12964 -0.218333,-0.48034 -0.381759,-1.03983 -0.490926,-1.678455 -0.109166,-0.638625 -0.163814,-1.323756 -0.163814,-2.055172 0,-0.725958 0.05465,-1.408279 0.163814,-2.046904 0.109167,-0.644082 0.272593,-1.203576 0.490926,-1.67845 0.223792,-0.480333 0.502133,-0.856731 0.835091,-1.129647 0.332958,-0.278375 0.723405,-0.417546 1.170988,-0.417546 z m 5.092713,10.946624 c -0.02456,-0.003 -0.04933,0.003 -0.0739,0.0165 -0.125541,0.0764 -0.281055,0.16375 -0.466638,0.262 -0.180125,0.0983 -0.387476,0.18788 -0.622184,0.26975 -0.22925,0.0873 -0.480526,0.15833 -0.753442,0.21291 -0.267458,0.06 -0.550903,0.0904 -0.851111,0.0904 -0.212875,0 -0.409503,-0.0112 -0.589628,-0.0331 -0.174667,-0.0218 -0.343713,-0.0489 -0.507463,-0.0816 -0.16375,-0.0327 -0.322073,-0.071 -0.474906,-0.11472 -0.152833,-0.0382 -0.308347,-0.0765 -0.466638,-0.11472 -0.267459,-0.06 -0.55142,-0.11188 -0.851628,-0.15555 -0.300208,-0.0382 -0.630388,-0.0574 -0.990637,-0.0574 -0.414833,0 -0.79966,0.049 -1.154452,0.14728 -0.354791,0.0982 -0.665818,0.20754 -0.933276,0.32763 -0.262,0.12554 -0.474971,0.24556 -0.638721,0.36018 -0.16375,0.11463 -0.262322,0.18843 -0.295072,0.22118 -0.07096,0.071 -0.08449,0.13122 -0.04082,0.18035 0.04367,0.0546 0.101125,0.0681 0.172083,0.0408 0.05458,-0.0164 0.149829,-0.0439 0.286287,-0.0822 0.136459,-0.0328 0.311125,-0.0491 0.523999,-0.0491 0.218333,0 0.428495,0.0304 0.630453,0.0904 0.201958,0.06 0.404206,0.13332 0.606164,0.22066 0.207417,0.0928 0.417578,0.19136 0.630453,0.29507 0.212875,0.10917 0.439378,0.20722 0.679545,0.29456 0.240166,0.0928 0.499355,0.1694 0.77773,0.22944 0.278375,0.06 0.583782,0.0899 0.91674,0.0899 0.567666,0 1.091664,-0.0817 1.571997,-0.24547 0.480333,-0.16375 0.911895,-0.36829 1.293978,-0.61391 0.387541,-0.24563 0.723341,-0.51325 1.007174,-0.80254 0.289291,-0.28929 0.523708,-0.56253 0.703833,-0.81907 0.03821,-0.0546 0.03259,-0.10361 -0.01654,-0.14728 -0.02456,-0.0191 -0.04882,-0.0298 -0.07338,-0.0326 z" /></g></svg>
