<?xml version="1.0" encoding="UTF-8" standalone="no"?>
<!-- Created with Inkscape (http://www.inkscape.org/) -->

<svg
   width="24.023338mm"
   height="34.930202mm"
   viewBox="0 0 24.023338 34.930202"
   version="1.1"
   id="svg1"
   xml:space="preserve"
   inkscape:version="1.3 (0e150ed6c4, 2023-07-21)"
   sodipodi:docname="identificadorGrafico.svg"
   xmlns:inkscape="http://www.inkscape.org/namespaces/inkscape"
   xmlns:sodipodi="http://sodipodi.sourceforge.net/DTD/sodipodi-0.dtd"
   xmlns="http://www.w3.org/2000/svg"
   xmlns:svg="http://www.w3.org/2000/svg"><sodipodi:namedview
     id="namedview1"
     pagecolor="#ffffff"
     bordercolor="#999999"
     borderopacity="1"
     inkscape:showpageshadow="2"
     inkscape:pageopacity="0"
     inkscape:pagecheckerboard="0"
     inkscape:deskcolor="#d1d1d1"
     inkscape:document-units="mm"
     showguides="true"
     inkscape:zoom="1.4022026"
     inkscape:cx="125.16023"
     inkscape:cy="41.006914"
     inkscape:window-width="1920"
     inkscape:window-height="1001"
     inkscape:window-x="-9"
     inkscape:window-y="-9"
     inkscape:window-maximized="1"
     inkscape:current-layer="layer2" /><defs
     id="defs1" /><g
     inkscape:groupmode="layer"
     id="layer2"
     inkscape:label="Capa 2"
     transform="translate(-123.96762,-66.614019)"><path
       id="path6"
       style="opacity:1;fill:#000000;fill-opacity:1;stroke-width:2;stroke-linecap:round"
       d="m 130.99769,66.614022 c -0.51377,0 -0.98962,0.06806 -1.42782,0.204122 -0.43821,0.136 -0.81594,0.343668 -1.13327,0.623217 -0.31731,0.27954 -0.56694,0.634919 -0.74827,1.065569 -0.18132,0.430629 -0.27182,0.940849 -0.27182,1.530139 0,0.347549 0.0567,0.736204 0.17002,1.166854 0.11332,0.430649 0.29812,0.872697 0.555,1.326017 0.25688,0.445769 0.59701,0.883999 1.0201,1.314648 0.41553,0.43821 0.93334,0.8312 1.55287,1.17874 0.26684,0.151539 0.55861,6.138727 0.86713,6.267317 -0.3315,0.03531 -0.58808,0.314088 -0.58808,0.655258 0,0.365259 0.29414,0.659391 0.6594,0.659391 h 8.8656 c 0.36526,0 0.6594,-0.294132 0.6594,-0.659391 0,-0.36526 -0.29414,-0.659392 -0.6594,-0.659392 h -0.0439 c 0.30493,-0.1275 0.59374,-6.113194 0.85783,-6.263183 0.61953,-0.34754 1.13682,-0.74053 1.55236,-1.17874 0.4231,-0.430649 0.76322,-0.868879 1.02009,-1.314648 0.25689,-0.45332 0.44219,-0.895368 0.55552,-1.326017 0.11331,-0.43065 0.17002,-0.819305 0.17002,-1.166854 0,-0.58928 -0.091,-1.09952 -0.27234,-1.530139 -0.18133,-0.43065 -0.43043,-0.786029 -0.74775,-1.065569 -0.31733,-0.279549 -0.69507,-0.487217 -1.13327,-0.623217 -0.43821,-0.136017 -0.91458,-0.204122 -1.42834,-0.204122 -0.46842,0 -0.92139,0.06048 -1.3596,0.181384 -0.4382,0.12087 -0.8312,0.257134 -1.17874,0.408244 -0.34754,0.14355 -0.63097,0.283096 -0.85008,0.419096 -0.2191,0.13599 -0.34719,0.219397 -0.38499,0.249597 l -0.93017,0.895553 c 0,0.105779 0.0305,0.181559 0.0909,0.226859 0.0604,0.0453 0.15474,0.03003 0.28318,-0.04547 0.0605,-0.03779 0.17381,-0.09075 0.34003,-0.158647 0.16621,-0.07556 0.35483,-0.146974 0.56638,-0.214974 0.2191,-0.06799 0.44585,-0.128484 0.68006,-0.181384 0.23422,-0.0529 0.45332,-0.07958 0.65732,-0.07958 0.25688,0 0.52506,0.03045 0.80461,0.09095 0.2871,0.05288 0.54816,0.165744 0.78238,0.339514 0.24177,0.17377 0.438,0.427214 0.58911,0.759643 0.15114,0.32487 0.22634,0.759291 0.22634,1.30328 0,0.581759 -0.0905,1.102859 -0.27182,1.563729 -0.17377,0.453319 -0.40762,0.857786 -0.70228,1.212846 -0.2871,0.355099 -0.61629,0.660893 -0.9865,0.917773 -0.37021,0.25688 -0.74413,6.329069 -1.1219,6.517949 -0.92506,0.471979 -3.46254,0.500199 -4.52014,0 -0.37776,-0.18888 -0.75168,-6.261069 -1.12189,-6.517949 -0.37021,-0.25688 -0.69888,-0.562674 -0.98599,-0.917773 -0.29466,-0.35507 -0.52903,-0.759527 -0.7028,-1.212846 -0.18131,-0.46087 -0.27181,-0.98197 -0.27181,-1.563729 0,-0.543989 0.0757,-0.97841 0.22686,-1.30328 0.15109,-0.332439 0.34734,-0.585357 0.58911,-0.759126 0.23421,-0.17377 0.49476,-0.287131 0.78186,-0.340031 0.27955,-0.0605 0.54772,-0.09095 0.8046,-0.09095 0.204,0 0.42311,0.02668 0.65733,0.07958 0.23421,0.0529 0.46096,0.113384 0.68006,0.181384 0.21155,0.068 0.40067,0.139374 0.56689,0.214974 0.16621,0.06795 0.27963,0.120847 0.34003,0.158647 0.12844,0.0755 0.22279,0.09077 0.28319,0.04547 0.0604,-0.0453 0.0904,-0.12108 0.0904,-0.226859 l -0.92914,-0.895553 c -0.0378,-0.0302 -0.16641,-0.113607 -0.38551,-0.249597 -0.2191,-0.136 -0.50202,-0.275546 -0.84956,-0.419096 -0.34754,-0.15111 -0.74053,-0.287374 -1.17874,-0.408244 -0.43821,-0.120877 -0.8917,-0.181384 -1.36012,-0.181384 z m 5.23534,17.164327 c -1.1504,0 -2.25014,0.08927 -3.29903,0.2682 -1.04889,0.17205 -2.02994,0.420175 -2.94348,0.743624 -0.90227,0.31658 -1.72576,0.701783 -2.47014,1.156002 -0.74438,0.44733 -1.38195,0.943042 -1.91203,1.486731 -0.51881,0.54368 -0.92477,1.128662 -1.21801,1.754932 -0.28196,0.619389 -0.42271,1.262555 -0.42271,1.930114 0,1.004789 0.2878,1.944404 0.86299,2.818433 0.58649,0.867139 1.39842,1.62426 2.43603,2.271179 1.03761,0.64689 2.27233,1.155926 3.70468,1.527556 1.44363,0.371629 3.02864,0.557588 4.75424,0.557588 1.15038,0 2.25013,-0.08927 3.29902,-0.2682 1.04889,-0.17205 2.02417,-0.416709 2.92644,-0.733289 0.91354,-0.32346 1.74281,-0.708672 2.48718,-1.156002 0.74438,-0.454219 1.37566,-0.949931 1.89446,-1.486731 0.53008,-0.543649 0.93604,-1.125207 1.21801,-1.744596 0.29323,-0.626269 0.44029,-1.272891 0.44029,-1.94045 0,-0.667559 -0.1355,-1.307787 -0.40618,-1.920296 -0.2594,-0.61936 -0.63175,-1.194007 -1.11673,-1.723926 -0.48496,-0.52992 -1.07685,-1.01182 -1.77612,-1.44539 -0.69925,-0.440449 -1.48914,-0.815296 -2.36884,-1.124996 -0.86844,-0.309689 -1.81587,-0.547448 -2.84221,-0.712618 -1.02633,-0.17206 -2.10874,-0.257865 -3.24786,-0.257865 z m -0.25373,0.609265 c 0.92483,0 1.73099,0.175076 2.41897,0.526066 0.68798,0.34411 1.25781,0.8191 1.70894,1.424719 0.46242,0.59874 0.80641,1.304061 1.03198,2.11615 0.22556,0.805209 0.33848,1.665919 0.33848,2.581238 0,0.922159 -0.11292,1.785877 -0.33848,2.591056 -0.22557,0.805209 -0.56956,1.510531 -1.03198,2.11615 -0.45113,0.59875 -1.02096,1.07374 -1.70894,1.424719 -0.68798,0.34411 -1.49414,0.515731 -2.41897,0.515731 -0.92483,0 -1.73151,-0.171621 -2.41949,-0.515731 -0.68798,-0.350979 -1.26306,-0.825969 -1.72548,-1.424719 -0.45113,-0.605619 -0.78936,-1.310941 -1.01492,-2.11615 -0.22557,-0.805179 -0.33849,-1.668897 -0.33849,-2.591056 0,-0.915319 0.11292,-1.776029 0.33849,-2.581238 0.22556,-0.812089 0.56379,-1.51741 1.01492,-2.11615 0.46242,-0.605619 1.0375,-1.080609 1.72548,-1.424719 0.68798,-0.35099 1.49466,-0.526066 2.41949,-0.526066 z m -2.77813,4.771285 c -0.97635,2e-5 -1.76783,0.791502 -1.76785,1.767851 2e-5,0.976349 0.7915,1.76783 1.76785,1.76785 0.97635,-2e-5 1.76784,-0.791501 1.76785,-1.76785 -1e-5,-0.976349 -0.7915,-1.767831 -1.76785,-1.767851 z m 5.36453,0 c -0.97635,2e-5 -1.76783,0.791502 -1.76785,1.767851 2e-5,0.976349 0.7915,1.76783 1.76785,1.76785 0.97635,-2e-5 1.76784,-0.791501 1.76785,-1.76785 -1e-5,-0.976349 -0.7915,-1.767831 -1.76785,-1.767851 z m 7.93647,9.02994 c -0.0507,-0.0034 -0.10165,0.0035 -0.15245,0.02067 -0.25939,0.09635 -0.58081,0.206333 -0.96428,0.330213 -0.37219,0.12388 -0.80073,0.237834 -1.28571,0.341064 -0.47369,0.11012 -0.99257,0.199401 -1.55649,0.268201 -0.55264,0.07568 -1.13928,0.113688 -1.75959,0.113688 -0.43985,0 -0.84582,-0.01384 -1.21801,-0.04134 -0.3609,-0.02755 -0.71068,-0.06205 -1.04903,-0.103353 -0.33835,-0.04129 -0.66502,-0.08959 -0.98082,-0.144694 -0.31579,-0.04818 -0.63721,-0.09598 -0.96428,-0.144177 -0.55264,-0.07571 -1.13927,-0.141371 -1.75958,-0.196371 -0.62031,-0.0482 -1.30253,-0.07235 -2.04691,-0.07235 -0.85715,0 -1.65229,0.06216 -2.38538,0.186035 -0.7331,0.12387 -1.37644,0.261485 -1.92908,0.412895 -0.54136,0.15829 -0.98095,0.309706 -1.3193,0.454236 -0.33835,0.14452 -0.54157,0.237236 -0.60927,0.278536 -0.1466,0.08947 -0.17443,0.165478 -0.0842,0.227378 0.0902,0.0688 0.20841,0.0861 0.35502,0.0517 0.11279,-0.0207 0.31026,-0.0552 0.59221,-0.10336 0.28197,-0.0413 0.64275,-0.062 1.08262,-0.062 0.45113,0 0.88546,0.038 1.30276,0.11369 0.4173,0.0757 0.83482,0.16843 1.25212,0.27854 0.42858,0.117 0.86239,0.24079 1.30225,0.37155 0.43986,0.13764 0.90832,0.26195 1.40457,0.37207 0.49624,0.11699 1.03193,0.21317 1.60713,0.28887 0.57519,0.0757 1.20648,0.11369 1.89446,0.11369 1.17296,0 2.25588,-0.1036 3.24838,-0.31006 0.99249,-0.20646 1.88373,-0.46442 2.67322,-0.77411 0.80077,-0.3097 1.49402,-0.647079 2.0805,-1.011829 0.59775,-0.364749 1.08301,-0.708518 1.4552,-1.031978 0.0789,-0.06882 0.0674,-0.131035 -0.0341,-0.186035 -0.0507,-0.024 -0.10123,-0.03782 -0.15193,-0.04082 z"
       sodipodi:nodetypes="scssssccccsssssccccssssssscsccccccsscccsccsccsccscccsscccsccscssscccccscscscccccscscccsscccssccsccsscccscccsccccsccccccscscccsscsscccsscccssscccccc" /></g></svg>
