<?xml version="1.0" encoding="UTF-8" standalone="no"?>
<!-- Created with Inkscape (http://www.inkscape.org/) -->

<svg
   width="43.115707mm"
   height="43.115719mm"
   viewBox="0 0 43.115707 43.115719"
   version="1.1"
   id="svg1"
   xml:space="preserve"
   inkscape:version="1.3 (0e150ed6c4, 2023-07-21)"
   sodipodi:docname="identificadorGrafico.svg"
   xmlns:inkscape="http://www.inkscape.org/namespaces/inkscape"
   xmlns:sodipodi="http://sodipodi.sourceforge.net/DTD/sodipodi-0.dtd"
   xmlns="http://www.w3.org/2000/svg"
   xmlns:svg="http://www.w3.org/2000/svg"><sodipodi:namedview
     id="namedview1"
     pagecolor="#ffffff"
     bordercolor="#999999"
     borderopacity="1"
     inkscape:showpageshadow="2"
     inkscape:pageopacity="0"
     inkscape:pagecheckerboard="0"
     inkscape:deskcolor="#d1d1d1"
     inkscape:document-units="mm"
     showguides="true"
     inkscape:zoom="1.4022026"
     inkscape:cx="125.16023"
     inkscape:cy="41.006914"
     inkscape:window-width="1920"
     inkscape:window-height="1001"
     inkscape:window-x="-9"
     inkscape:window-y="-9"
     inkscape:window-maximized="1"
     inkscape:current-layer="layer2" /><defs
     id="defs1" /><g
     inkscape:groupmode="layer"
     id="layer2"
     inkscape:label="Capa 2"
     transform="translate(-60.882707,-63.344668)"><path
       id="path5"
       style="opacity:1;fill:#ffffff;fill-opacity:1;stroke-width:2;stroke-linecap:round"
       d="m 82.440567,63.344672 c -11.906,5.9e-5 -21.5578,9.651883 -21.55786,21.557853 6e-5,11.906 9.65186,21.557805 21.55786,21.557865 11.90597,-6e-5 21.557793,-9.651865 21.557853,-21.557865 -4e-5,-7.8367 -4.182403,-14.695273 -10.436053,-18.469153 v -0.0021 h -0.003 c -3.24658,-1.95842 -7.05076,-3.08658 -11.1187,-3.0866 z" /><path
       id="path3"
       style="opacity:1;fill:#000000;fill-opacity:1;stroke-width:2;stroke-linecap:round"
       d="m 82.440557,63.344668 c -11.90605,6e-5 -21.55779,9.651807 -21.55785,21.557857 6e-5,11.90605 9.6518,21.557805 21.55785,21.557865 11.90605,-6e-5 21.557803,-9.651815 21.557863,-21.557865 -6e-5,-11.90605 -9.651813,-21.557797 -21.557863,-21.557857 z m -0.27463,5.423298 c 0,0.10578 -0.03,0.18156 -0.0904,0.22686 -0.0604,0.0453 -0.15475,0.03 -0.28319,-0.0455 -0.0604,-0.0378 -0.17382,-0.0907 -0.34003,-0.15865 -0.16622,-0.0756 -0.35534,-0.14697 -0.56689,-0.21497 -0.2191,-0.068 -0.44585,-0.12849 -0.68006,-0.18139 -0.23422,-0.0529 -0.45333,-0.0796 -0.65733,-0.0796 -0.25688,0 -0.52505,0.0305 -0.8046,0.091 -0.2871,0.0529 -0.54765,0.16626 -0.78186,0.34003 -0.24177,0.17377 -0.43801,0.42669 -0.58911,0.75913 -0.15112,0.32487 -0.22686,0.75929 -0.22686,1.30328 0,0.58176 0.0905,1.102859 0.27181,1.563729 0.17377,0.45332 0.40814,0.85777 0.7028,1.21284 0.28711,0.3551 0.61578,0.6609 0.98599,0.91778 0.37021,0.25688 0.74413,6.32924 1.1219,6.51812 1.0576,0.5002 3.5951,0.47198 4.52016,0 0.37777,-0.18888 0.75169,-6.26124 1.1219,-6.51812 0.37021,-0.25688 0.6994,-0.56268 0.9865,-0.91778 0.29466,-0.35506 0.52851,-0.75952 0.70228,-1.21284 0.18133,-0.46087 0.27182,-0.981969 0.27182,-1.563729 0,-0.54399 -0.0752,-0.97841 -0.22634,-1.30328 -0.15111,-0.33243 -0.34734,-0.58587 -0.58911,-0.75964 -0.23422,-0.17377 -0.49528,-0.28664 -0.78238,-0.33952 -0.27955,-0.0605 -0.54772,-0.091 -0.8046,-0.091 -0.204,0 -0.42311,0.0267 -0.65733,0.0796 -0.23421,0.0529 -0.46096,0.1134 -0.68006,0.18139 -0.21155,0.068 -0.40016,0.13941 -0.56637,0.21497 -0.16622,0.0679 -0.27959,0.12086 -0.34004,0.15865 -0.12844,0.0755 -0.22274,0.0908 -0.28318,0.0455 -0.0605,-0.0453 -0.091,-0.12108 -0.091,-0.22686 l 0.92994,-0.89581 c 0.0378,-0.0302 0.16588,-0.11361 0.38498,-0.2496 0.21911,-0.136 0.50254,-0.27554 0.85008,-0.41909 0.34754,-0.15111 0.74054,-0.28738 1.17874,-0.40825 0.43821,-0.1209 0.89118,-0.181377 1.35961,-0.181377 0.51376,0 0.99013,0.0681 1.42834,0.204117 0.4382,0.136 0.81593,0.34367 1.13326,0.62322 0.31732,0.27954 0.56643,0.63492 0.74776,1.06557 0.18132,0.43062 0.27233,0.94085 0.27233,1.53013 0,0.34755 -0.0567,0.73621 -0.17001,1.16686 -0.11333,0.43065 -0.29864,0.872699 -0.55553,1.326019 -0.25687,0.44577 -0.59699,0.88399 -1.02009,1.31464 -0.41554,0.43821 -0.93283,0.8312 -1.55236,1.17874 -0.26409,0.14999 -0.5529,6.13586 -0.85783,6.26336 h 0.0444 c 0.36526,0 0.65939,0.29413 0.65939,0.65939 0,0.36526 -0.29413,0.65939 -0.65939,0.65939 h -8.86561 c -0.36526,0 -0.65939,-0.29413 -0.65939,-0.65939 0,-0.34117 0.25658,-0.61994 0.58808,-0.65525 -0.30852,-0.12859 -0.60029,-6.11596 -0.86713,-6.2675 -0.61953,-0.34754 -1.13734,-0.74053 -1.55288,-1.17874 -0.42309,-0.43065 -0.76321,-0.86887 -1.02009,-1.31464 -0.25688,-0.45332 -0.44168,-0.895369 -0.555,-1.326019 -0.11333,-0.43065 -0.17002,-0.81931 -0.17002,-1.16686 0,-0.58929 0.0905,-1.0995 0.27182,-1.53013 0.18133,-0.43065 0.43095,-0.78603 0.74827,-1.06557 0.31733,-0.27955 0.69506,-0.48722 1.13327,-0.62322 0.4382,-0.13606 0.91405,-0.204117 1.42782,-0.204117 0.46842,0 0.92191,0.0605 1.36012,0.181377 0.43821,0.12087 0.8312,0.25714 1.17874,0.40825 0.34754,0.14355 0.63046,0.28309 0.84956,0.41909 0.2191,0.13599 0.34773,0.2194 0.38551,0.2496 z m 0.5325,15.010629 c 1.13912,0 2.22153,0.0858 3.24786,0.25786 1.02634,0.16517 1.97377,0.40293 2.84221,0.71262 0.87971,0.3097 1.66959,0.68455 2.36884,1.125 0.69927,0.43357 1.29116,0.91547 1.77612,1.44539 0.48498,0.52992 0.85733,1.10456 1.11673,1.72392 0.27068,0.61251 0.40618,1.25274 0.40618,1.9203 0,0.66756 -0.14705,1.31418 -0.44028,1.94045 -0.28197,0.61939 -0.68794,1.20094 -1.21802,1.74459 -0.5188,0.5368 -1.15008,1.03252 -1.89446,1.48674 -0.74437,0.44733 -1.57363,0.83254 -2.48718,1.156 -0.90227,0.31658 -1.87755,0.56124 -2.92644,0.73329 -1.04889,0.17893 -2.14863,0.2682 -3.29902,0.2682 -1.7256,0 -3.3106,-0.18596 -4.75423,-0.55759 -1.43236,-0.37163 -2.66708,-0.88067 -3.70469,-1.52756 -1.03761,-0.64692 -1.84954,-1.40404 -2.43603,-2.27118 -0.57519,-0.87403 -0.86299,-1.81364 -0.86299,-2.81843 0,-0.66756 0.14075,-1.31072 0.42271,-1.93011 0.29324,-0.62627 0.69921,-1.21126 1.21802,-1.75494 0.53008,-0.54369 1.16764,-1.0394 1.91202,-1.48673 0.74438,-0.45422 1.56787,-0.83942 2.47014,-1.156 0.91355,-0.32345 1.89459,-0.57157 2.94349,-0.74362 1.04889,-0.17893 2.14862,-0.2682 3.29902,-0.2682 z m -0.25373,0.60926 c -0.92483,0 -1.73151,0.17508 -2.41949,0.52607 -0.68798,0.34411 -1.26306,0.8191 -1.72548,1.42472 -0.45113,0.59874 -0.78935,1.30406 -1.01492,2.11615 -0.22557,0.80521 -0.33848,1.66592 -0.33848,2.58124 0,0.92216 0.11291,1.78587 0.33848,2.59105 0.22557,0.80521 0.56379,1.51053 1.01492,2.11615 0.46242,0.59875 1.0375,1.07374 1.72548,1.42472 0.68798,0.34411 1.49466,0.51573 2.41949,0.51573 0.92483,0 1.73099,-0.17162 2.41897,-0.51573 0.68798,-0.35098 1.25781,-0.82597 1.70894,-1.42472 0.46242,-0.60562 0.80641,-1.31094 1.03198,-2.11615 0.22556,-0.80518 0.33848,-1.66889 0.33848,-2.59105 0,-0.91532 -0.11292,-1.77603 -0.33848,-2.58124 -0.22557,-0.81209 -0.56956,-1.51741 -1.03198,-2.11615 -0.45113,-0.60562 -1.02096,-1.08061 -1.70894,-1.42472 -0.68798,-0.35099 -1.49414,-0.52607 -2.41897,-0.52607 z m -2.77813,4.77129 c 0.97635,2e-5 1.76784,0.7915 1.76785,1.76785 -1e-5,0.97635 -0.7915,1.76783 -1.76785,1.76785 -0.97635,-2e-5 -1.76783,-0.7915 -1.76785,-1.76785 2e-5,-0.97635 0.7915,-1.76783 1.76785,-1.76785 z m 5.36453,0 c 0.97635,2e-5 1.76784,0.7915 1.76785,1.76785 -1e-5,0.97635 -0.7915,1.76783 -1.76785,1.76785 -0.97635,-2e-5 -1.76783,-0.7915 -1.76785,-1.76785 2e-5,-0.97635 0.7915,-1.76783 1.76785,-1.76785 z m 7.93647,9.02994 v 5.1e-4 c 0.0507,0.003 0.10118,0.0168 0.15193,0.0408 0.10151,0.055 0.11305,0.11721 0.0341,0.18603 -0.37219,0.32346 -0.85746,0.66723 -1.45521,1.03198 -0.58648,0.36475 -1.27972,0.702135 -2.08049,1.011835 -0.78949,0.30969 -1.68073,0.56765 -2.67322,0.77411 -0.9925,0.20646 -2.07543,0.31006 -3.24839,0.31006 -0.68798,0 -1.31926,-0.038 -1.89445,-0.11369 -0.5752,-0.0757 -1.11089,-0.17188 -1.60714,-0.28887 -0.49625,-0.11012 -0.96471,-0.23443 -1.40457,-0.37207 -0.43986,-0.13076 -0.87366,-0.25456 -1.30224,-0.37156 -0.4173,-0.11011 -0.83482,-0.20283 -1.25212,-0.27853 -0.4173,-0.0757 -0.85163,-0.11369 -1.30276,-0.11369 -0.43987,0 -0.80066,0.0207 -1.08263,0.062 -0.28195,0.0482 -0.47942,0.0827 -0.59221,0.10335 -0.14661,0.0344 -0.26479,0.0171 -0.35502,-0.0517 -0.0902,-0.0619 -0.0624,-0.137915 0.0842,-0.227385 0.0677,-0.0413 0.27092,-0.13401 0.60927,-0.27853 0.33835,-0.14453 0.77794,-0.29595 1.3193,-0.45424 0.55264,-0.15141 1.19598,-0.28902 1.92908,-0.41289 0.73309,-0.12388 1.52823,-0.18604 2.38538,-0.18604 0.74438,0 1.4266,0.0242 2.04691,0.0724 0.62031,0.055 1.20694,0.12066 1.75958,0.19637 0.32707,0.0482 0.64849,0.096 0.96428,0.14418 0.3158,0.0551 0.64247,0.1034 0.98082,0.14469 0.33835,0.0413 0.68813,0.0758 1.04903,0.10335 0.37219,0.0275 0.77816,0.0413 1.21802,0.0413 0.62031,0 1.20694,-0.038 1.75958,-0.11368 0.56392,-0.0688 1.0828,-0.15809 1.55649,-0.26821 0.48498,-0.10323 0.91352,-0.21718 1.28571,-0.34106 0.38347,-0.12388 0.70489,-0.23386 0.96428,-0.33021 0.0508,-0.0172 0.1017,-0.0241 0.15245,-0.0207 z"
       inkscape:export-filename="path38.svg"
       inkscape:export-xdpi="96"
       inkscape:export-ydpi="96"
       sodipodi:nodetypes="ccccccscccsscccsccsccsccscccsscccsccscsscssssccccsssssccccsssscsscsccsccscscccccscscscccccsssccssccsccsscccssssssscsssccccccssscccsscccsscsscccscsccccccc" /></g></svg>
