<?xml version="1.0" encoding="UTF-8" standalone="no"?>
<!-- Created with Inkscape (http://www.inkscape.org/) -->

<svg
   width="43.115715mm"
   height="43.115707mm"
   viewBox="0 0 43.115715 43.115707"
   version="1.1"
   id="svg1"
   xml:space="preserve"
   xmlns:inkscape="http://www.inkscape.org/namespaces/inkscape"
   xmlns:sodipodi="http://sodipodi.sourceforge.net/DTD/sodipodi-0.dtd"
   xmlns="http://www.w3.org/2000/svg"
   xmlns:svg="http://www.w3.org/2000/svg"><sodipodi:namedview
     id="namedview1"
     pagecolor="#ffffff"
     bordercolor="#999999"
     borderopacity="1"
     inkscape:showpageshadow="2"
     inkscape:pageopacity="0"
     inkscape:pagecheckerboard="0"
     inkscape:deskcolor="#d1d1d1"
     inkscape:document-units="mm"
     showguides="true"><sodipodi:guide
       position="64.673289,280.09152"
       orientation="1,0"
       id="guide28"
       inkscape:locked="false" /><sodipodi:guide
       position="88.696409,275.6885"
       orientation="1,0"
       id="guide29"
       inkscape:locked="false" /></sodipodi:namedview><defs
     id="defs1" /><g
     inkscape:groupmode="layer"
     id="layer2"
     inkscape:label="Capa 2"
     transform="translate(-39.324731,-129.72543)"><path
       id="circle33"
       style="opacity:1;fill:#ffd42a;fill-opacity:1;stroke-width:2;stroke-linecap:round"
       d="m 60.882589,129.72542 a 21.557974,21.557974 0 0 0 -21.557858,21.55785 21.557974,21.557974 0 0 0 21.557858,21.55786 21.557974,21.557974 0 0 0 21.557857,-21.55786 21.557974,21.557974 0 0 0 -21.557857,-21.55785 z m -9.863998,6.57582 c 0.234404,0 0.468913,0.0218 0.703317,0.0661 0.2344,0.0443 0.458979,0.12071 0.674377,0.22841 0.209062,0.1077 0.399457,0.24997 0.570508,0.42736 0.171051,0.17739 0.31333,0.39951 0.427364,0.66559 0.101364,0.22807 0.180697,0.48735 0.237711,0.77877 0.05068,0.29775 0.09183,0.63688 0.123507,1.01699 0.06335,0.73489 0.15855,1.31445 0.285254,1.73891 0.120369,0.4308 0.262648,0.75405 0.427364,0.96945 0.158381,0.22173 0.329426,0.36105 0.513147,0.41806 0.183722,0.057 0.361219,0.0858 0.532267,0.0858 0.215398,0 0.364127,-0.0411 0.446485,-0.12351 0.08236,-0.0824 0.123506,-0.22515 0.123506,-0.42788 v -3.81062 c 0,-0.29776 -0.06346,-0.53872 -0.190169,-0.72244 -0.126704,-0.18372 -0.27195,-0.32896 -0.436666,-0.43666 -0.171051,-0.1077 -0.339129,-0.18407 -0.503845,-0.22841 -0.164716,-0.038 -0.285195,-0.0633 -0.361218,-0.076 -0.05702,-0.0127 -0.09817,-0.035 -0.123507,-0.0667 -0.03168,-0.0317 -0.04406,-0.0664 -0.03772,-0.10439 0,-0.0317 0.01587,-0.0634 0.04754,-0.0951 0.03168,-0.0253 0.07876,-0.0377 0.14211,-0.0377 h 6.063196 c 0.06335,0 0.110434,0.0124 0.14211,0.0377 0.03168,0.0317 0.05102,0.0634 0.05736,0.0951 0.0063,-0.0317 0.02517,-0.0634 0.05684,-0.0951 0.03168,-0.0253 0.07927,-0.0377 0.142627,-0.0377 h 6.062679 c 0.06335,0 0.110951,0.0124 0.142627,0.0377 0.03168,0.0317 0.04754,0.0634 0.04754,0.0951 0.0063,0.038 -0.0066,0.0727 -0.03824,0.10439 -0.02534,0.0317 -0.06649,0.054 -0.123506,0.0667 -0.07602,0.0127 -0.195986,0.038 -0.360702,0.076 -0.164716,0.0443 -0.332794,0.12071 -0.503845,0.22841 -0.164716,0.1077 -0.310478,0.25294 -0.437183,0.43666 -0.1267,0.18372 -0.190169,0.42468 -0.190169,0.72244 v 3.81062 c 0,0.20273 0.04115,0.34552 0.123507,0.42788 0.08236,0.0824 0.231603,0.12351 0.447001,0.12351 0.171051,0 0.348029,-0.0288 0.531751,-0.0858 0.183717,-0.057 0.35477,-0.19633 0.513146,-0.41806 0.164716,-0.2154 0.307512,-0.53865 0.427881,-0.96945 0.126705,-0.42446 0.221902,-1.00402 0.285254,-1.73891 0.03168,-0.38011 0.07283,-0.71924 0.123507,-1.01699 0.05702,-0.29142 0.135831,-0.5507 0.237195,-0.77877 0.114034,-0.26608 0.256829,-0.4882 0.427881,-0.66559 0.171047,-0.17739 0.360928,-0.31966 0.569991,-0.42736 0.215393,-0.1077 0.44049,-0.18407 0.674894,-0.22841 0.234403,-0.0444 0.468913,-0.0661 0.703316,-0.0661 0.27875,0 0.538542,0.0377 0.779281,0.11369 0.240734,0.0697 0.452936,0.16488 0.636653,0.28525 0.190057,0.12037 0.345236,0.25027 0.465605,0.38964 0.126705,0.14571 0.209002,0.29148 0.247013,0.43719 0.03168,0.12037 0.01232,0.19621 -0.05736,0.22789 -0.06335,0.038 -0.132751,0.0445 -0.208773,0.0191 -0.07602,-0.0317 -0.16477,-0.054 -0.266134,-0.0667 -0.101364,-0.006 -0.202494,0.003 -0.303857,0.0284 -0.101364,0.0253 -0.199528,0.07 -0.294556,0.13332 -0.08869,0.0697 -0.161574,0.17082 -0.218591,0.30386 -0.07602,0.16472 -0.130071,0.38981 -0.161748,0.6749 -0.02534,0.29142 -0.05062,0.65582 -0.07596,1.09295 -0.01267,0.39912 -0.04737,0.77591 -0.104386,1.13068 -0.05068,0.36111 -0.142917,0.65908 -0.275952,0.89349 -0.107699,0.19005 -0.240566,0.3482 -0.398942,0.4749 -0.158381,0.12671 -0.317043,0.22487 -0.475424,0.29456 -0.15838,0.076 -0.300659,0.13007 -0.427364,0.16175 l -0.266133,0.0667 c -0.04435,0.006 -0.06318,0.0217 -0.05684,0.047 0.0063,0.0317 0.03458,0.054 0.08527,0.0667 0.513149,0.14571 0.95341,0.35494 1.320849,0.62735 0.367443,0.27875 0.665418,0.6714 0.893486,1.17822 0.13304,0.28509 0.215337,0.59248 0.247013,0.92191 0.03801,0.32943 0.02511,0.65269 -0.03824,0.96945 -0.05702,0.31676 -0.161114,0.6177 -0.31316,0.90279 -0.145706,0.29142 -0.336108,0.54128 -0.570507,0.75034 -0.291421,0.25341 -0.595332,0.44677 -0.912089,0.57981 -0.310427,0.13304 -0.633687,0.22824 -0.96945,0.28525 -0.329432,0.057 -0.671526,0.0888 -1.026294,0.0951 -0.348438,0.006 -0.70291,0.009 -1.064018,0.009 H 61.08206 c -0.06335,0 -0.110951,-0.0159 -0.142627,-0.0475 -0.03168,-0.0253 -0.05051,-0.0571 -0.05684,-0.0951 -0.0063,0.038 -0.02569,0.0697 -0.05736,0.0951 -0.03168,0.0317 -0.07876,0.0475 -0.14211,0.0475 h -5.853907 c -0.361104,0 -0.716097,-0.003 -1.064534,-0.009 -0.354773,-0.006 -0.696862,-0.0381 -1.026294,-0.0951 -0.335767,-0.057 -0.658507,-0.15221 -0.968933,-0.28525 -0.316761,-0.13304 -0.621185,-0.3264 -0.912606,-0.57981 -0.234403,-0.20906 -0.424281,-0.45892 -0.569991,-0.75034 -0.152045,-0.28509 -0.256659,-0.58603 -0.313676,-0.90279 -0.06335,-0.31676 -0.07625,-0.64002 -0.03824,-0.96945 0.03167,-0.32943 0.11449,-0.63682 0.24753,-0.92191 0.228065,-0.50682 0.525528,-0.89947 0.892968,-1.17822 0.367444,-0.27241 0.8077,-0.48164 1.32085,-0.62735 0.05068,-0.0127 0.07945,-0.035 0.08578,-0.0667 0.0063,-0.0254 -0.01301,-0.0407 -0.05736,-0.047 l -0.265617,-0.0667 c -0.126704,-0.0317 -0.2695,-0.0857 -0.427881,-0.16175 -0.15838,-0.0697 -0.316525,-0.16785 -0.474906,-0.29456 -0.158381,-0.1267 -0.29176,-0.28485 -0.399459,-0.4749 -0.13304,-0.23441 -0.224753,-0.53238 -0.275435,-0.89349 -0.05702,-0.35477 -0.09172,-0.73156 -0.104387,-1.13068 -0.02534,-0.43713 -0.05062,-0.80153 -0.07596,-1.09295 -0.03168,-0.28509 -0.08572,-0.51018 -0.161747,-0.6749 -0.05702,-0.13304 -0.129898,-0.23417 -0.218592,-0.30386 -0.09503,-0.0634 -0.193192,-0.10798 -0.294555,-0.13332 -0.101364,-0.0253 -0.203014,-0.0348 -0.304374,-0.0284 -0.101364,0.0127 -0.189595,0.035 -0.265617,0.0667 -0.07602,0.0253 -0.145938,0.0189 -0.20929,-0.0191 -0.06969,-0.0317 -0.08852,-0.10752 -0.05684,-0.22789 0.03801,-0.14571 0.120312,-0.29148 0.247013,-0.43719 0.12037,-0.13937 0.275548,-0.26927 0.465605,-0.38964 0.183722,-0.12037 0.395915,-0.21556 0.636654,-0.28525 0.240735,-0.076 0.500533,-0.11369 0.77928,-0.11369 z m 9.863998,12.95218 c 0,-0.0317 0.01239,-0.0664 0.03772,-0.10438 0.03168,-0.0317 0.07631,-0.0505 0.133326,-0.0569 0.07602,-0.0127 0.196502,-0.0414 0.361218,-0.0858 0.164716,-0.0443 0.329311,-0.1202 0.494027,-0.22789 0.171047,-0.10137 0.319779,-0.24713 0.446484,-0.43719 0.126705,-0.18372 0.190169,-0.42123 0.190169,-0.71261 v -9.29401 c 0,-0.29776 -0.06346,-0.53872 -0.190169,-0.72244 -0.126705,-0.18372 -0.275437,-0.32896 -0.446484,-0.43666 -0.164716,-0.1077 -0.329311,-0.18407 -0.494027,-0.22841 -0.164716,-0.038 -0.285196,-0.0633 -0.361218,-0.076 -0.05702,-0.0127 -0.101649,-0.035 -0.133326,-0.0667 -0.02534,-0.0317 -0.03772,-0.0664 -0.03772,-0.10439 0,0.038 -0.0129,0.0727 -0.03824,0.10439 -0.03168,0.0317 -0.07579,0.054 -0.132808,0.0667 -0.07602,0.0127 -0.196503,0.038 -0.361219,0.076 -0.164712,0.0443 -0.32931,0.12071 -0.494026,0.22841 -0.171051,0.1077 -0.3203,0.25294 -0.447001,0.43666 -0.126705,0.18372 -0.189653,0.42468 -0.189653,0.72244 v 9.29401 c 0,0.29139 0.06295,0.52889 0.189653,0.71261 0.126701,0.19006 0.27595,0.33582 0.447001,0.43719 0.164716,0.10769 0.329314,0.18354 0.494026,0.22789 0.164716,0.0444 0.285196,0.0731 0.361219,0.0858 0.05702,0.006 0.101132,0.0252 0.132808,0.0569 0.02534,0.038 0.03824,0.0727 0.03824,0.10438 z m -5.017782,-6.00583 c -0.164716,0 -0.345177,0.006 -0.541569,0.0191 -0.202727,0.0127 -0.402021,0.0474 -0.598413,0.10438 -0.202727,0.0634 -0.396088,0.15855 -0.57981,0.28526 -0.190053,0.13304 -0.354651,0.31647 -0.494026,0.55087 -0.14571,0.24074 -0.25974,0.54168 -0.342098,0.90279 -0.08869,0.3611 -0.133325,0.80484 -0.133325,1.33066 0,0.45614 0.0347,0.83641 0.104386,1.1405 0.06969,0.31043 0.171334,0.55732 0.304374,0.74104 0.126705,0.19006 0.28485,0.32641 0.474907,0.40876 0.183718,0.0824 0.392951,0.12351 0.627351,0.12351 0.209063,0 0.39894,-0.0288 0.569992,-0.0858 0.171048,-0.0507 0.320296,-0.13595 0.447001,-0.25632 0.120369,-0.12037 0.215049,-0.27258 0.284737,-0.4563 0.06335,-0.18372 0.09508,-0.40882 0.09508,-0.6749 v -3.9243 c 0,-0.13938 -0.07288,-0.20929 -0.218591,-0.20929 z m 10.035047,0 c -0.145711,0 -0.218592,0.0699 -0.218592,0.20929 v 3.9243 c 0,0.26608 0.03173,0.49118 0.09508,0.6749 0.06969,0.18372 0.164884,0.33593 0.285254,0.4563 0.126704,0.12037 0.275433,0.20564 0.446484,0.25632 0.171051,0.057 0.360929,0.0858 0.569991,0.0858 0.234404,0 0.44363,-0.0411 0.627352,-0.12351 0.190057,-0.0824 0.348719,-0.2187 0.475423,-0.40876 0.13304,-0.18372 0.23417,-0.43061 0.303858,-0.74104 0.06969,-0.30409 0.104386,-0.68436 0.104386,-1.1405 0,-0.52582 -0.04412,-0.96956 -0.132808,-1.33066 -0.08236,-0.36111 -0.196392,-0.66205 -0.342098,-0.90279 -0.139375,-0.2344 -0.30397,-0.41783 -0.494027,-0.55087 -0.183722,-0.12671 -0.377082,-0.2219 -0.57981,-0.28526 -0.196388,-0.057 -0.396206,-0.0917 -0.598929,-0.10438 -0.196393,-0.0127 -0.376858,-0.0191 -0.541569,-0.0191 z m -4.7594,6.91172 c 1.139123,0 2.221525,0.0858 3.247864,0.25787 1.026338,0.16517 1.973764,0.40292 2.842204,0.71261 0.879718,0.3097 1.669584,0.68455 2.368847,1.125 0.699265,0.43357 1.291147,0.91547 1.776119,1.44539 0.484974,0.52992 0.857323,1.10456 1.116728,1.72392 0.270683,0.61251 0.406177,1.25274 0.406177,1.9203 0,0.66756 -0.147045,1.31418 -0.440283,1.94045 -0.281962,0.61939 -0.687928,1.20091 -1.218014,1.7446 -0.518808,0.5368 -1.150081,1.03251 -1.894458,1.48673 -0.744377,0.44733 -1.573633,0.83254 -2.487187,1.156 -0.902275,0.31658 -1.87754,0.56124 -2.926436,0.73329 -1.048896,0.17893 -2.148624,0.2682 -3.299023,0.2682 -1.725604,0 -3.310592,-0.18596 -4.754232,-0.55759 -1.432364,-0.37163 -2.667067,-0.88066 -3.704684,-1.52755 -1.037617,-0.64692 -1.849546,-1.40404 -2.436027,-2.27118 -0.5752,-0.87403 -0.862996,-1.81365 -0.862996,-2.81844 0,-0.66756 0.140751,-1.31072 0.422713,-1.93011 0.29324,-0.62627 0.699204,-1.21125 1.218014,-1.75493 0.530086,-0.54369 1.167649,-1.0394 1.912028,-1.48673 0.744377,-0.45422 1.567858,-0.83943 2.470133,-1.15601 0.913554,-0.32345 1.894594,-0.57157 2.94349,-0.74362 1.048895,-0.17893 2.148621,-0.2682 3.299023,-0.2682 z m -0.253731,0.60927 c -0.924833,0 -1.731504,0.17507 -2.419491,0.52606 -0.687984,0.34411 -1.263059,0.8191 -1.725476,1.42472 -0.451137,0.59874 -0.789356,1.30406 -1.014925,2.11615 -0.225569,0.80521 -0.338481,1.66592 -0.338481,2.58124 0,0.9222 0.112912,1.78587 0.338481,2.59105 0.225569,0.80521 0.563788,1.51053 1.014925,2.11615 0.462417,0.59875 1.037492,1.07374 1.725476,1.42472 0.687987,0.34411 1.494658,0.51573 2.419491,0.51573 0.924832,0 1.730987,-0.17162 2.418974,-0.51573 0.687984,-0.35098 1.257803,-0.82597 1.708939,-1.42472 0.462417,-0.60562 0.806409,-1.31094 1.031979,-2.11615 0.225567,-0.80518 0.33848,-1.66885 0.33848,-2.59105 0,-0.91532 -0.112913,-1.77603 -0.33848,-2.58124 -0.22557,-0.81209 -0.569562,-1.51741 -1.031979,-2.11615 -0.451136,-0.60562 -1.020955,-1.08061 -1.708939,-1.42472 -0.687987,-0.35099 -1.494142,-0.52606 -2.418974,-0.52606 z m -2.778125,4.77128 a 1.7678792,1.7678792 0 0 1 1.767851,1.76785 1.7678792,1.7678792 0 0 1 -1.767851,1.76785 1.7678792,1.7678792 0 0 1 -1.767851,-1.76785 1.7678792,1.7678792 0 0 1 1.767851,-1.76785 z m 5.36453,0 a 1.7678792,1.7678792 0 0 1 1.767851,1.76785 1.7678792,1.7678792 0 0 1 -1.767851,1.76785 1.7678792,1.7678792 0 0 1 -1.76785,-1.76785 1.7678792,1.7678792 0 0 1 1.76785,-1.76785 z m 7.936467,9.03046 c 0.05075,0.003 0.101175,0.0172 0.151928,0.0413 0.101507,0.055 0.113056,0.11721 0.03411,0.18603 -0.37219,0.32346 -0.857452,0.66723 -1.455208,1.03198 -0.586481,0.36475 -1.279722,0.70213 -2.080494,1.01183 -0.78949,0.30969 -1.680718,0.56765 -2.673221,0.77411 -0.992504,0.20646 -2.075422,0.31006 -3.248381,0.31006 -0.687985,0 -1.319258,-0.038 -1.894458,-0.11369 -0.5752,-0.0757 -1.110886,-0.17188 -1.607137,-0.28887 -0.496253,-0.11012 -0.964707,-0.23443 -1.404565,-0.37207 -0.439861,-0.13076 -0.873665,-0.25456 -1.302247,-0.37156 -0.417301,-0.11011 -0.834816,-0.20283 -1.25212,-0.27853 -0.417301,-0.0757 -0.851626,-0.11369 -1.302762,-0.11369 -0.439861,0 -0.80066,0.0207 -1.082622,0.062 -0.281959,0.0482 -0.479427,0.0827 -0.592212,0.10335 -0.146618,0.0344 -0.264789,0.0172 -0.355017,-0.0517 -0.09023,-0.0619 -0.06239,-0.13791 0.08423,-0.22738 0.06767,-0.0413 0.270911,-0.13401 0.609265,-0.27853 0.338354,-0.14453 0.777935,-0.29595 1.319299,-0.45424 0.552645,-0.15141 1.195981,-0.28902 1.929082,-0.41289 0.733098,-0.12388 1.528222,-0.18604 2.385384,-0.18604 0.744377,0 1.426589,0.0242 2.046903,0.0724 0.620316,0.055 1.206938,0.12066 1.759583,0.19637 0.327073,0.0482 0.648485,0.096 0.964282,0.14417 0.315797,0.0551 0.642465,0.10341 0.980819,0.1447 0.338352,0.0413 0.688122,0.0758 1.049031,0.10335 0.37219,0.0275 0.778153,0.0413 1.218014,0.0413 0.620313,0 1.206939,-0.038 1.759582,-0.11369 0.563924,-0.0688 1.082801,-0.15808 1.556494,-0.2682 0.484975,-0.10323 0.913521,-0.21718 1.28571,-0.34106 0.383468,-0.12388 0.704879,-0.23386 0.964282,-0.33021 0.05075,-0.0172 0.101693,-0.0241 0.152446,-0.0207 z"
       inkscape:export-filename="path29.svg"
       inkscape:export-xdpi="96"
       inkscape:export-ydpi="96" /></g></svg>
