<?xml version="1.0" encoding="UTF-8" standalone="no"?>
<!-- Created with Inkscape (http://www.inkscape.org/) -->

<svg
   width="43.116001mm"
   height="43.116005mm"
   viewBox="0 0 43.116001 43.116005"
   version="1.1"
   id="svg1"
   xml:space="preserve"
   xmlns:inkscape="http://www.inkscape.org/namespaces/inkscape"
   xmlns:sodipodi="http://sodipodi.sourceforge.net/DTD/sodipodi-0.dtd"
   xmlns="http://www.w3.org/2000/svg"
   xmlns:svg="http://www.w3.org/2000/svg"><sodipodi:namedview
     id="namedview1"
     pagecolor="#ffffff"
     bordercolor="#999999"
     borderopacity="1"
     inkscape:showpageshadow="2"
     inkscape:pageopacity="0"
     inkscape:pagecheckerboard="0"
     inkscape:deskcolor="#d1d1d1"
     inkscape:document-units="mm"
     showguides="true" /><defs
     id="defs1" /><g
     inkscape:groupmode="layer"
     id="layer2"
     inkscape:label="Capa 2"
     transform="translate(-9.2701199,-8.8104341)"><circle
       style="opacity:1;fill:#ffcc00;fill-opacity:1;stroke-width:2;stroke-linecap:round"
       id="path29"
       cx="30.828121"
       cy="30.368435"
       inkscape:export-filename="path32.svg"
       inkscape:export-xdpi="96"
       inkscape:export-ydpi="96"
       r="21.558001" /><path
       d="m 43.93353,15.867238 c 0.08494,0.02827 0.162855,0.02123 0.233654,-0.02123 0.0779,-0.03543 0.09913,-0.120353 0.0637,-0.254888 -0.04247,-0.162844 -0.134513,-0.325688 -0.276123,-0.488531 -0.134524,-0.155759 -0.307996,-0.300911 -0.520393,-0.435435 -0.205324,-0.134524 -0.44251,-0.240718 -0.711558,-0.318602 -0.269048,-0.08494 -0.559342,-0.12745 -0.870869,-0.12745 -0.261963,0 -0.523926,0.02481 -0.7859,0.07432 -0.261962,0.04951 -0.513308,0.134513 -0.754036,0.254888 -0.233643,0.120364 -0.446052,0.279665 -0.637216,0.477914 -0.191163,0.198249 -0.350475,0.446052 -0.477914,0.74342 -0.113279,0.254888 -0.20178,0.545171 -0.265505,0.870858 -0.05666,0.332773 -0.102707,0.711569 -0.138067,1.136375 -0.07074,0.821305 -0.176982,1.469137 -0.318602,1.943509 -0.134524,0.481446 -0.293837,0.842538 -0.477915,1.083267 -0.177003,0.247803 -0.368167,0.403572 -0.57349,0.467297 -0.205335,0.0637 -0.403572,0.09555 -0.594736,0.09555 -0.240728,0 -0.407115,-0.04604 -0.499159,-0.138056 -0.09198,-0.09209 -0.138056,-0.251345 -0.138056,-0.477914 v -4.258738 c 0,-0.332762 0.07074,-0.60181 0.212398,-0.807133 0.141609,-0.205324 0.304453,-0.368168 0.488531,-0.488532 0.191163,-0.120364 0.378795,-0.205323 0.562873,-0.254888 0.184089,-0.04247 0.318613,-0.07074 0.403573,-0.08494 0.0637,-0.01419 0.109747,-0.03889 0.138066,-0.07432 0.03543,-0.03543 0.04951,-0.07432 0.04247,-0.116833 0,-0.03543 -0.01766,-0.07074 -0.05309,-0.106171 -0.03543,-0.02827 -0.08851,-0.04247 -0.159312,-0.04247 h -6.775725 c -0.07074,0 -0.123885,0.01419 -0.159313,0.04247 -0.03543,0.03543 -0.05666,0.07074 -0.0637,0.106171 0,0.04247 0.01419,0.08136 0.04247,0.116833 0.03543,0.03543 0.08494,0.06013 0.148684,0.07432 0.08494,0.01419 0.219483,0.04247 0.403572,0.08494 0.184078,0.04951 0.368168,0.134513 0.552246,0.254888 0.191163,0.120364 0.35755,0.283208 0.499159,0.488532 0.141599,0.205323 0.212398,0.474371 0.212398,0.807133 v 10.386631 c 0,0.325688 -0.07074,0.591193 -0.212398,0.796527 -0.141609,0.212398 -0.307996,0.375242 -0.499159,0.488532 -0.184078,0.120353 -0.368168,0.205312 -0.552246,0.254877 -0.184089,0.04951 -0.318613,0.08136 -0.403572,0.09555 -0.0637,0.0078 -0.113267,0.02872 -0.148684,0.0637 -0.02828,0.04247 -0.04247,0.08136 -0.04247,0.116822 0.0078,0.04247 0.02872,0.0779 0.0637,0.106171 0.03543,0.03543 0.0893,0.04269 0.159313,0.05308 l 3.537055,0.5272 c 0.399158,0.05946 1.904069,0.350353 3.005206,0.632868 1.121377,0.308868 1.704512,0.512492 2.178124,0.673213 0.652034,0.25262 1.60622,1.05583 1.953142,0.907124 0.354007,-0.148684 0.615858,-1.639781 0.885644,-2.892229 0.057,-0.8301 -0.103489,-1.445277 0.05945,-1.770964 0.16993,-0.318613 0.286751,-0.654918 0.350476,-1.008936 0.07074,-0.354008 0.08494,-0.715101 0.04247,-1.083268 -0.03543,-0.368167 -0.127438,-0.711546 -0.276133,-1.030159 -0.254889,-0.566416 -0.587651,-1.005394 -0.998297,-1.316921 -0.410658,-0.304443 -0.902732,-0.538086 -1.476223,-0.700929 -0.05666,-0.01419 -0.08851,-0.03889 -0.09555,-0.07432 -0.0078,-0.02827 0.01375,-0.04604 0.0637,-0.05308 0.05666,-0.01419 0.155747,-0.03889 0.297368,-0.07432 0.14161,-0.03543 0.300911,-0.09555 0.477914,-0.180546 0.177004,-0.0779 0.354008,-0.187621 0.531011,-0.32922 0.177004,-0.141609 0.325688,-0.318613 0.446052,-0.531022 0.148684,-0.261962 0.251346,-0.594724 0.307985,-0.998297 0.0637,-0.396486 0.102595,-0.817761 0.116833,-1.263813 0.02828,-0.488532 0.05666,-0.895647 0.08494,-1.221334 0.03543,-0.318613 0.09555,-0.569959 0.180547,-0.754037 0.0637,-0.148684 0.145119,-0.261974 0.24426,-0.339859 0.106171,-0.07074 0.215951,-0.120341 0.32923,-0.148684 0.11329,-0.02827 0.226569,-0.03889 0.339848,-0.03185 0.11329,0.01419 0.212408,0.03889 0.297368,0.07432 z m -7.497911,6.117276 c 0.184078,0 0.38587,0.0067 0.605353,0.02124 0.226569,0.01419 0.449595,0.05308 0.669078,0.116821 0.226568,0.07074 0.442509,0.176981 0.647843,0.318613 0.212398,0.148684 0.396487,0.354008 0.552245,0.615982 0.162844,0.269037 0.290294,0.605352 0.382339,1.008925 0.09913,0.403572 0.148684,0.899178 0.148684,1.486839 0,0.509766 -0.03889,0.934583 -0.116822,1.274431 -0.0779,0.346933 -0.191175,0.623055 -0.339859,0.828379 -0.141598,0.212397 -0.318602,0.364624 -0.53101,0.456669 -0.205324,0.09209 -0.438967,0.138066 -0.700941,0.138066 -0.233643,0 -0.446052,-0.03185 -0.637215,-0.09555 -0.191163,-0.05666 -0.357539,-0.152205 -0.499148,-0.28674 -0.134525,-0.134524 -0.240729,-0.304453 -0.318614,-0.509777 -0.07074,-0.205323 -0.106171,-0.456669 -0.106171,-0.754037 v -4.386176 c 0,-0.155758 0.08147,-0.233643 0.24426,-0.233643 z"
       id="text25"
       style="font-size:19.0057px;line-height:2.9;font-family:Mermaid;-inkscape-font-specification:Mermaid;text-align:center;letter-spacing:0.146819px;direction:rtl;text-anchor:middle;stroke-width:1.20419;stroke-linecap:round"
       aria-label="R"
       sodipodi:nodetypes="ccccccsscscccccssssssccccccssccccccsssccsccccssccccccccccccscsccccccscccccccccscccscccsscc" /><path
       d="m 30.549135,45.929957 c -1.928518,0 -3.699477,-0.207661 -5.312879,-0.622994 -1.600796,-0.415333 -2.981011,-0.984497 -4.140643,-1.707485 -1.159633,-0.722989 0.09434,-1.569036 -0.561103,-2.538143 -0.642839,-0.976805 -0.96426,-2.026673 -0.96426,-3.149611 0,-0.746062 0.157559,-1.465209 0.472677,-2.157424 0.327722,-0.699916 0.781491,-1.353675 1.361306,-1.961295 0.592421,-0.607621 -0.856924,-1.161394 -0.02501,-1.661339 0.831909,-0.507626 1.752053,-0.93834 2.760428,-1.292144 1.020981,-0.361494 2.117589,-0.638385 3.289826,-0.830664 1.172237,-0.19998 2.401194,-0.299965 3.686873,-0.299965 1.273075,0 2.483126,0.09615 3.630153,0.288423 1.147028,0.184597 2.205822,0.449947 3.176384,0.79606 0.983167,0.346111 1.865495,0.765294 2.646985,1.257538 0.781493,0.484553 -0.665553,1.022944 -0.123554,1.615182 0.542003,0.592239 0.957957,1.234466 1.247865,1.92668 0.302512,0.684533 0.453767,1.399829 0.453767,2.145891 0,0.746063 -0.163859,1.469051 -0.491582,2.168965 -0.315118,0.692215 -0.768887,1.342133 -1.361308,1.949754 -0.579816,0.599921 0.823113,1.153703 -0.0087,1.661329 -0.831909,0.499945 -1.758355,0.93066 -2.779336,1.292154 -1.008375,0.353802 -2.098681,0.626844 -3.270918,0.819124 -1.172237,0.199979 -2.401194,0.299964 -3.686875,0.299964 z m 0.283606,-15.540382 c -1.033586,0 -1.934821,0.196129 -2.703708,0.588388 -0.768886,0.384568 -1.411725,0.915277 -1.928517,1.592119 -0.504188,0.669149 -0.882329,1.457508 -1.134423,2.365085 -0.252093,0.899885 -0.378141,1.86131 -0.378141,2.884263 0,1.030644 0.126044,1.995908 0.378141,2.895794 0.252094,0.899885 0.630235,1.688253 1.134423,2.365086 0.516792,0.669149 1.159631,1.19985 1.928517,1.592109 0.768887,0.384567 1.670122,0.576856 2.703708,0.576856 1.033586,0 1.934821,-0.192289 2.703708,-0.576856 0.768886,-0.392259 1.405423,-0.92296 1.909612,-1.592109 0.516791,-0.676833 0.901235,-1.465201 1.153328,-2.365086 0.252095,-0.899886 0.378142,-1.86515 0.378142,-2.895794 0,-1.022953 -0.126045,-1.984378 -0.378142,-2.884263 -0.252093,-0.907577 -0.636537,-1.695936 -1.153328,-2.365085 -0.504189,-0.676842 -1.140726,-1.207551 -1.909612,-1.592119 -0.768887,-0.392259 -1.670122,-0.588388 -2.703708,-0.588388 z m 11.59002,15.448088 c 0.11344,-0.0385 0.226883,-0.03082 0.340326,0.02305 0.113439,0.06154 0.126044,0.13075 0.03782,0.20767 -0.415956,0.361485 -0.957958,0.746053 -1.626006,1.153703 -0.655446,0.407642 -1.430634,0.784518 -2.325567,1.13063 -0.88233,0.346102 -1.878101,0.634526 -2.987313,0.86527 -1.109214,0.230744 -2.319265,0.346113 -3.630153,0.346113 -0.768887,0 -1.47475,-0.04235 -2.117589,-0.126909 -0.64284,-0.08459 -1.241562,-0.192289 -1.79617,-0.323039 -0.554606,-0.123059 -1.077701,-0.2615 -1.569285,-0.415333 -0.491581,-0.146132 -0.976863,-0.284581 -1.455842,-0.415331 -0.466373,-0.123059 -0.932748,-0.226895 -1.399121,-0.311498 -0.466373,-0.08459 -0.951654,-0.126909 -1.455842,-0.126909 -0.491584,0 -0.894933,0.02304 -1.210051,0.06923 -0.315117,0.05387 -0.5357,0.09229 -0.661747,0.115376 -0.163862,0.0385 -0.29621,0.01921 -0.397048,-0.0577 -0.10084,-0.06923 -0.06933,-0.153831 0.09454,-0.253818 0.07563,-0.04618 0.302511,-0.149982 0.680653,-0.311496 0.378141,-0.161515 0.869724,-0.33073 1.474751,-0.507627 0.617628,-0.169215 1.336097,-0.323038 2.155402,-0.46148 0.819306,-0.13845 1.707936,-0.20767 2.665893,-0.20767 0.83191,0 1.594494,0.02689 2.287752,0.08076 0.693258,0.06155 1.348703,0.1346 1.966333,0.219204 0.365536,0.05387 0.724771,0.107679 1.077703,0.161514 0.352931,0.06154 0.718467,0.115368 1.096608,0.161524 0.37814,0.04618 0.768886,0.08459 1.172236,0.115367 0.415955,0.03081 0.869724,0.04618 1.361307,0.04618 0.693259,0 1.348703,-0.04235 1.966333,-0.126909 0.630235,-0.07691 1.210051,-0.176897 1.739449,-0.299964 0.542003,-0.115369 1.02098,-0.242278 1.436935,-0.380719 0.42856,-0.138449 0.787793,-0.261508 1.077701,-0.369185 z"
       id="text26"
       style="font-size:26.4306px;line-height:2.9;font-family:Mermaid;-inkscape-font-specification:Mermaid;text-align:center;letter-spacing:0.204175px;direction:rtl;text-anchor:middle;stroke-width:1.67462;stroke-linecap:round"
       aria-label="Q"
       sodipodi:nodetypes="scscscccccscccscscccccsssccssccsccsscccssccccssscccsscccsscsscccscscccssc" /><path
       d="m 18.020055,15.867238 c -0.08494,0.02827 -0.162855,0.02123 -0.233654,-0.02123 -0.0779,-0.03543 -0.09913,-0.120353 -0.0637,-0.254888 0.04247,-0.162844 0.134513,-0.325688 0.276123,-0.488531 0.134524,-0.155759 0.307996,-0.300911 0.520394,-0.435435 0.205323,-0.134524 0.442509,-0.240718 0.711557,-0.318602 0.269048,-0.08494 0.559342,-0.12745 0.87087,-0.12745 0.261962,0 0.523925,0.02481 0.785899,0.07432 0.261962,0.04951 0.513308,0.134513 0.754037,0.254888 0.233643,0.120364 0.446051,0.279665 0.637215,0.477914 0.191163,0.198249 0.350476,0.446052 0.477914,0.74342 0.113279,0.254888 0.201781,0.545171 0.265506,0.870858 0.05666,0.332773 0.102706,0.711569 0.138067,1.136375 0.07074,0.821305 0.176981,1.469137 0.318602,1.943509 0.134524,0.481446 0.293836,0.842538 0.477914,1.083267 0.177004,0.247803 0.368167,0.403572 0.57349,0.467297 0.205335,0.0637 0.403573,0.09555 0.594736,0.09555 0.240729,0 0.407115,-0.04604 0.49916,-0.138056 0.09198,-0.09209 0.138055,-0.251345 0.138055,-0.477914 v -4.258738 c 0,-0.332762 -0.07074,-0.60181 -0.212397,-0.807133 -0.14161,-0.205324 -0.304454,-0.368168 -0.488532,-0.488532 -0.191163,-0.120364 -0.378795,-0.205323 -0.562873,-0.254888 -0.184089,-0.04247 -0.318613,-0.07074 -0.403572,-0.08494 -0.0637,-0.01419 -0.109747,-0.03889 -0.138067,-0.07432 -0.03543,-0.03543 -0.04951,-0.07432 -0.04247,-0.116833 0,-0.03543 0.01766,-0.07074 0.05308,-0.106171 0.03543,-0.02827 0.08851,-0.04247 0.159312,-0.04247 h 6.775726 c 0.07074,0 0.123884,0.01419 0.159312,0.04247 0.03543,0.03543 0.05666,0.07074 0.0637,0.106171 0,0.04247 -0.01419,0.08136 -0.04247,0.116833 -0.03543,0.03543 -0.08494,0.06013 -0.148684,0.07432 -0.08494,0.01419 -0.219483,0.04247 -0.403572,0.08494 -0.184078,0.04951 -0.368167,0.134513 -0.552245,0.254888 -0.191164,0.120364 -0.35755,0.283208 -0.49916,0.488532 -0.141598,0.205323 -0.212398,0.474371 -0.212398,0.807133 v 10.386631 c 0,0.325688 0.07074,0.591193 0.212398,0.796527 0.14161,0.212398 0.307996,0.375242 0.49916,0.488532 0.184078,0.120353 0.368167,0.205312 0.552245,0.254877 0.184089,0.04951 0.318613,0.08136 0.403572,0.09555 0.0637,0.0078 0.113268,0.02872 0.148684,0.0637 0.02828,0.04247 0.04247,0.08136 0.04247,0.116822 -0.0078,0.04247 -0.02872,0.0779 -0.0637,0.106171 -0.03543,0.03543 -0.08929,0.04269 -0.159312,0.05308 l -3.537056,0.5272 c -0.399157,0.05946 -1.904068,0.350353 -3.005206,0.632868 -1.121377,0.308868 -1.704512,0.512492 -2.178123,0.673213 -0.652035,0.25262 -1.606221,1.05583 -1.953142,0.907124 -0.354008,-0.148684 -0.615859,-1.639781 -0.885644,-2.892229 -0.057,-0.8301 0.103488,-1.445277 -0.05946,-1.770964 C 19.113887,26.614281 18.997065,26.277976 18.93334,25.923958 18.8626,25.56995 18.8484,25.208857 18.89087,24.84069 c 0.03543,-0.368167 0.127438,-0.711546 0.276134,-1.030159 0.254888,-0.566416 0.58765,-1.005394 0.998297,-1.316921 0.410657,-0.304443 0.902731,-0.538086 1.476222,-0.700929 0.05666,-0.01419 0.08851,-0.03889 0.09555,-0.07432 0.0078,-0.02827 -0.01375,-0.04604 -0.0637,-0.05308 -0.05666,-0.01419 -0.155747,-0.03889 -0.297368,-0.07432 -0.141609,-0.03543 -0.30091,-0.09555 -0.477914,-0.180546 -0.177004,-0.0779 -0.354007,-0.187621 -0.531011,-0.32922 -0.177004,-0.141609 -0.325687,-0.318613 -0.446052,-0.531022 -0.148684,-0.261962 -0.251345,-0.594724 -0.307985,-0.998297 -0.0637,-0.396486 -0.102594,-0.817761 -0.116832,-1.263813 -0.02828,-0.488532 -0.05666,-0.895647 -0.08494,-1.221334 -0.03543,-0.318613 -0.09555,-0.569959 -0.180547,-0.754037 -0.0637,-0.148684 -0.145118,-0.261974 -0.24426,-0.339859 -0.10617,-0.07074 -0.215951,-0.120341 -0.32923,-0.148684 -0.11329,-0.02827 -0.226569,-0.03889 -0.339847,-0.03185 -0.11329,0.01419 -0.212409,0.03889 -0.297368,0.07432 z m 7.497911,6.117276 c -0.184078,0 -0.38587,0.0067 -0.605353,0.02124 -0.226568,0.01419 -0.449594,0.05308 -0.669077,0.116821 -0.226569,0.07074 -0.44251,0.176981 -0.647844,0.318613 -0.212398,0.148684 -0.396487,0.354008 -0.552245,0.615982 -0.162844,0.269037 -0.290294,0.605352 -0.382338,1.008925 -0.09913,0.403572 -0.148684,0.899178 -0.148684,1.486839 0,0.509766 0.03889,0.934583 0.116821,1.274431 0.0779,0.346933 0.191175,0.623055 0.339859,0.828379 0.141598,0.212397 0.318602,0.364624 0.531011,0.456669 0.205323,0.09209 0.438966,0.138066 0.70094,0.138066 0.233643,0 0.446052,-0.03185 0.637215,-0.09555 0.191164,-0.05666 0.357539,-0.152205 0.499149,-0.28674 0.134524,-0.134524 0.240728,-0.304453 0.318613,-0.509777 0.07074,-0.205323 0.106171,-0.456669 0.106171,-0.754037 v -4.386176 c 0,-0.155758 -0.08147,-0.233643 -0.24426,-0.233643 z"
       id="path39"
       style="font-size:19.0057px;line-height:2.9;font-family:Mermaid;-inkscape-font-specification:Mermaid;text-align:center;letter-spacing:0.146819px;direction:rtl;text-anchor:middle;stroke-width:1.20419;stroke-linecap:round"
       aria-label="R"
       sodipodi:nodetypes="ccccccsscscccccssssssccccccssccccccsssccsccccssccccccccccccscsccccccscccccccccscccscccsscc" /></g></svg>
