<?xml version="1.0" encoding="UTF-8" standalone="no"?>
<!-- Created with Inkscape (http://www.inkscape.org/) -->

<svg
   width="192.76569mm"
   height="43.730171mm"
   viewBox="0 0 192.76569 43.730171"
   version="1.1"
   id="svg1"
   xml:space="preserve"
   xmlns:inkscape="http://www.inkscape.org/namespaces/inkscape"
   xmlns:sodipodi="http://sodipodi.sourceforge.net/DTD/sodipodi-0.dtd"
   xmlns="http://www.w3.org/2000/svg"
   xmlns:svg="http://www.w3.org/2000/svg"><sodipodi:namedview
     id="namedview1"
     pagecolor="#ffffff"
     bordercolor="#999999"
     borderopacity="1"
     inkscape:showpageshadow="2"
     inkscape:pageopacity="0"
     inkscape:pagecheckerboard="0"
     inkscape:deskcolor="#d1d1d1"
     inkscape:document-units="mm" /><defs
     id="defs1" /><g
     inkscape:label="Capa 1"
     inkscape:groupmode="layer"
     id="layer1"
     transform="translate(84.229692,126.19283)"><path
       fill="#000000"
       d="m -50.661682,-121.13362 c 10.57275,7.34748 12.14702,22.558375 3.38931,31.882291 -11.67871,12.432771 -32.74748,6.9215 -36.37227,-9.998604 -0.41804,-1.947337 -0.70644,-3.820587 -0.53446,-5.802317 1.45785,-16.55497 19.63737,-25.73072 33.51742,-16.08137 z m -16.53117,-2.97921 c -9.91129,2.11667 -16.256,10.49867 -16.68727,20.58194 -0.0397,0.93927 0.26987,1.91029 0.41275,2.87073 1.02923,6.94531 5.58271,12.927539 11.89831,15.851185 6.79715,3.145896 14.41186,2.410354 20.63486,-1.844146 6.32883,-4.325937 9.779,-12.160249 8.72066,-19.788189 -1.07421,-7.73112 -6.23623,-14.28221 -13.67631,-16.90687 -1.2356,-0.43657 -2.75696,-0.72232 -4.13279,-1.03188 -2.45269,-0.54769 -4.59052,-0.2831 -7.17021,0.26723 z"
       id="path63"
       style="stroke-width:0.264583" /><path
       fill="#000000"
       d="m -33.384392,-97.612162 c -3.53484,-11.776608 3.65389,-24.225248 15.71625,-26.894898 2.921,-0.64823 5.47423,-0.76729 8.5142901,-0.16933 10.43517,2.05581 17.75354,11.09398 17.38577,21.68789 -0.44715,12.940775 -12.22375,22.378463 -24.8443801,20.216817 -7.95337,-1.362604 -14.45418,-7.112 -16.77193,-14.840479 z M 2.9772881,-117.13841 c -3.80470001,-4.64344 -9.29216,-6.89769 -15.0442001,-7.54327 q -1.21709,-0.13494 -2.46327,0.0582 c -6.11188,0.9472 -11.02784,3.09827 -14.94896,8.16239 q -4.99004,6.44525 -4.24656,14.6685 0.25929,2.876023 0.71437,4.212169 c 3.02948,8.908521 10.71033,14.472708 20.0369,14.745229 0.76464,0.02117 1.57956,-0.140229 2.36272,-0.230188 16.5444001,-1.867958 24.04005,-21.32277 13.5890001,-34.07304 z"
       id="path64"
       style="stroke-width:0.264583" /><path
       fill="#1d1d1b"
       d="m 2.9772881,-117.13841 c 10.4510499,12.75027 2.9554,32.205081 -13.5890001,34.073039 -0.78316,0.08996 -1.59808,0.251355 -2.36272,0.230188 -9.32657,-0.272521 -17.00742,-5.836708 -20.0369,-14.745229 q -0.45508,-1.336146 -0.71437,-4.212168 -0.74348,-8.22325 4.24656,-14.6685 c 3.92112,-5.06412 8.83708,-7.21519 14.94896,-8.16239 q 1.24618,-0.19315 2.46327,-0.0582 c 5.7520401,0.64558 11.23950009,2.89983 15.0442001,7.54327 z m -4.26325,6.86398 a 5.3631041,5.3631041 0 0 0 -5.37245,-5.35374 l -12.7635001,0.0223 a 5.3631041,5.3631041 0 0 0 -5.35373,5.37244 l 0.0228,13.043935 a 5.3631041,5.3631041 0 0 0 5.37244,5.353738 l 12.7635001,-0.02228 a 5.3631041,5.3631041 0 0 0 5.35374,-5.372444 z"
       id="path66"
       style="stroke-width:0.264583" /><path
       fill="#1d1d1b"
       d="m -83.880122,-103.53089 c 0.43127,-10.08327 6.77598,-18.46527 16.68727,-20.58194 2.57969,-0.55033 4.71752,-0.81492 7.17021,-0.26723 1.37583,0.30956 2.89719,0.59531 4.13279,1.03188 7.44008,2.62466 12.6021,9.17575 13.67631,16.90687 1.05834,7.62794 -2.39183,15.462252 -8.72066,19.788189 -6.223,4.2545 -13.83771,4.990042 -20.63486,1.844146 -6.3156,-2.923646 -10.86908,-8.905875 -11.89831,-15.851185 -0.14288,-0.96044 -0.45244,-1.93146 -0.41275,-2.87073 z m 23.64581,-7.32631 a 0.61912499,0.61647916 88.9 0 1 0.61913,-0.64559 l 2.9845,0.0132 a 0.48947916,0.48947916 0 0 0 0.49212,-0.48683 l 0.0344,-4.73604 a 0.23283333,0.23547916 16 0 0 -0.10848,-0.19844 c -0.66146,-0.42333 -1.37319,-0.23812 -1.97644,-0.26723 -3.59304,-0.18256 -7.0141,0.254 -8.29998,4.08781 -0.39687,1.18798 -0.23548,2.59292 -0.30427,3.92642 a 0.16404166,0.16404166 0 0 1 -0.15875,0.1561 l -1.99496,0.0714 a 0.46302083,0.46302083 0 0 0 -0.44979,0.46303 l 0.005,5.09852 a 0.57414583,0.57414583 0 0 0 0.52917,0.5715 l 1.86531,0.14816 a 0.27252083,0.269875 2.4 0 1 0.24871,0.26988 v 12.284603 q 0,0.727604 0.7276,0.727604 h 4.82865 q 0.7911,0 0.7911,-0.79375 l -0.003,-12.345457 a 0.1905,0.19314583 0.8 0 1 0.19579,-0.19315 l 2.8919,0.0476 q 0.79904,0.0132 0.87047,-0.78052 l 0.44186,-4.83658 a 0.73818749,0.74083332 2.5 0 0 -0.73819,-0.80698 l -3.25702,0.008 q -0.1561,0 -0.16404,-0.1561 z"
       id="path67"
       style="stroke-width:0.264583" /><path
       fill="#000000"
       d="m -60.234312,-110.8572 0.0714,1.62718 q 0.008,0.15611 0.16404,0.15611 l 3.25702,-0.008 a 0.73818749,0.74083332 2.5 0 1 0.73819,0.80698 l -0.44186,4.83658 q -0.0714,0.79375 -0.87047,0.78052 l -2.8919,-0.0476 a 0.1905,0.19314583 0.8 0 0 -0.19579,0.19315 l 0.003,12.345455 q 0,0.79375 -0.7911,0.79375 h -4.82865 q -0.7276,0 -0.7276,-0.727604 V -102.3852 a 0.27252083,0.269875 2.4 0 0 -0.24871,-0.26988 l -1.86531,-0.14817 a 0.57414583,0.57414583 0 0 1 -0.52917,-0.5715 l -0.005,-5.09852 a 0.46302083,0.46302083 0 0 1 0.44979,-0.46302 l 1.99496,-0.0714 a 0.16404166,0.16404166 0 0 0 0.15875,-0.1561 c 0.0688,-1.3335 -0.0926,-2.73844 0.30427,-3.92642 1.28588,-3.83381 4.70694,-4.27037 8.29998,-4.08781 0.60325,0.0291 1.31498,-0.15611 1.97644,0.26723 a 0.23283333,0.23547916 16 0 1 0.10848,0.19844 l -0.0344,4.73604 a 0.48947916,0.48947916 0 0 1 -0.49212,0.48683 l -2.9845,-0.0132 a 0.61912499,0.61647916 88.9 0 0 -0.61913,0.64558 z m -0.51329,2.10343 0.0926,-2.36802 a 0.90222916,0.90487499 1.3 0 1 0.90488,-0.86518 l 3.10885,0.003 a 0.14816666,0.14552083 0 0 0 0.14817,-0.14552 l -0.005,-4.32065 q 0,-0.17198 -0.17463,-0.17463 c -3.70152,-0.005 -8.06714,-0.71966 -9.37683,3.7465 -0.35983,1.23032 -0.23548,2.78607 -0.23548,4.18307 a 0.11641667,0.11377083 0.7 0 1 -0.11906,0.11377 l -2.45004,-0.0556 q -0.14288,-0.003 -0.14288,0.13758 v 5.16996 q 0,0.13229 0.13229,0.13229 h 2.4474 q 0.13229,0 0.13229,0.13229 v 13.163066 q 0,0.132292 0.13229,0.132292 h 5.09323 q 0.13229,0 0.13229,-0.132292 v -13.163026 q 0,-0.13229 0.13229,-0.13229 h 3.7465 q 0.11378,0 0.12436,-0.11112 l 0.47889,-5.08265 a 0.21960416,0.21960416 0 0 0 -0.2196,-0.24077 l -3.93171,0.0344 q -0.15875,0.003 -0.15081,-0.1561 z"
       id="path69"
       style="stroke-width:0.264583" /><path
       fill="#f5f5f5"
       d="m -60.596792,-108.59766 3.93171,-0.0344 a 0.21960416,0.21960416 0 0 1 0.2196,0.24077 l -0.47889,5.08264 q -0.0106,0.11113 -0.12436,0.11113 h -3.7465 q -0.13229,0 -0.13229,0.13229 v 13.163026 q 0,0.132292 -0.13229,0.132292 h -5.09323 q -0.13229,0 -0.13229,-0.132292 v -13.163026 q 0,-0.13229 -0.13229,-0.13229 h -2.4474 q -0.13229,0 -0.13229,-0.13229 v -5.16996 q 0,-0.14023 0.14288,-0.13758 l 2.45004,0.0556 a 0.11641667,0.11377083 0.7 0 0 0.11906,-0.11377 c 0,-1.397 -0.12435,-2.95275 0.23548,-4.18306 1.30969,-4.46617 5.67531,-3.75179 9.37683,-3.7465 q 0.17463,0.003 0.17463,0.17462 l 0.005,4.32065 a 0.14816666,0.14552083 0 0 1 -0.14817,0.14552 l -3.10885,-0.003 a 0.90222916,0.90487499 1.3 0 0 -0.90488,0.86519 l -0.0926,2.36802 q -0.008,0.15875 0.15081,0.1561 z"
       id="path70"
       style="stroke-width:0.264583" /><path
       fill="#000000"
       d="m -1.2631819,-97.230501 a 5.3631041,5.3631041 0 0 1 -5.35374,5.372444 l -12.7635001,0.02228 a 5.3631041,5.3631041 0 0 1 -5.37244,-5.353738 l -0.0228,-13.043935 a 5.3631041,5.3631041 0 0 1 5.35373,-5.37244 l 12.7635001,-0.0223 a 5.3631041,5.3631041 0 0 1 5.37245,5.35374 z m -0.44442,-13.077769 a 4.8286458,4.8286458 0 0 0 -4.82021,-4.83709 l -12.9698501,-0.0226 a 4.8286458,4.8286458 0 0 0 -4.83706,4.82021 l -0.023,13.155053 a 4.8286458,4.8286458 0 0 0 4.8202,4.837086 l 12.9698501,0.02262 a 4.8286458,4.8286458 0 0 0 4.83706,-4.820206 z"
       id="path71"
       style="stroke-width:0.264583" /><path
       fill="#f5f5f5"
       d="m -1.7305719,-97.153216 a 4.8286458,4.8286458 0 0 1 -4.83706,4.820206 l -12.9698501,-0.02262 a 4.8286458,4.8286458 0 0 1 -4.8202,-4.837086 l 0.023,-13.155054 a 4.8286458,4.8286458 0 0 1 4.83706,-4.82021 l 12.9698501,0.0226 a 4.8286458,4.8286458 0 0 1 4.82021,4.83709 z m -2.00401,-13.252264 a 2.7701875,2.7701875 0 0 0 -2.77984,-2.7605 l -13.0862101,0.0457 a 2.7701875,2.7701875 0 0 0 -2.76051,2.77984 l 0.0463,13.266129 a 2.7701875,2.7701875 0 0 0 2.77984,2.760504 l 13.0862101,-0.04567 a 2.7701875,2.7701875 0 0 0 2.76051,-2.779845 z"
       id="path72"
       style="stroke-width:0.264583" /><path
       fill="#000000"
       d="m -3.6882719,-97.139352 a 2.7701875,2.7701875 0 0 1 -2.76051,2.779845 l -13.0862101,0.04567 a 2.7701875,2.7701875 0 0 1 -2.77984,-2.760504 l -0.0463,-13.266129 a 2.7701875,2.7701875 0 0 1 2.76051,-2.77984 l 13.0862101,-0.0457 a 2.7701875,2.7701875 0 0 1 2.77984,2.7605 z m -2.87002,-15.530248 H -19.406462 a 2.4579791,2.4579791 0 0 0 -2.45797,2.45798 v 12.850812 a 2.667,2.5823333 0 0 0 2.667,2.582333 h 12.4301201 a 2.667,2.5823333 0 0 0 2.667,-2.582333 v -12.850812 a 2.4579791,2.4579791 0 0 0 -2.45798,-2.45798 z"
       id="path73"
       style="stroke-width:0.264583" /><path
       fill="#1d1d1b"
       d="m -6.5582919,-112.6696 a 2.4579791,2.4579791 0 0 1 2.45798,2.45798 v 12.850812 a 2.667,2.5823333 0 0 1 -2.667,2.582333 H -19.197432 a 2.667,2.5823333 0 0 1 -2.667,-2.582333 v -12.850812 a 2.4579791,2.4579791 0 0 1 2.45797,-2.45798 z m -1.21499,4.26313 a 1.8123958,1.9023541 34.4 0 0 2.57019,-0.54573 1.8123958,1.9023541 34.4 0 0 -0.42066,-2.59361 1.8123958,1.9023541 34.4 0 0 -2.57019,0.54573 1.8123958,1.9023541 34.4 0 0 0.42066,2.59361 z m -2.2960301,10.4186 c 2.8601501,-1.754188 4.1592501,-4.91861 2.9606901,-8.12536 -0.2884,-0.77522 -0.93663,-1.5187 -1.39436,-2.27277 a 0.42862499,0.41010416 86.4 0 0 -0.16933,-0.1561 c -0.68527,-0.34131 -1.32292,-0.84402 -1.9711501,-1.09273 -6.07747,-2.32569 -11.43,4.57465 -7.37658,9.903355 1.67746,2.20398 4.74398,3.000375 7.39246,1.934105 q 0.11377,-0.04762 0.22754,-0.0026 0.23813,0.08996 0.4312701,-0.03175 a 0.0396875,0.0396875 0 0 0 -0.0185,-0.07408 q -0.037,0 -0.0741,0.0079 -0.23284,0.05027 -0.008,-0.08996 z"
       id="path75"
       style="stroke-width:0.264583" /><path
       fill="#000000"
       d="m -7.7732819,-108.40647 a 1.8123958,1.9023541 34.4 0 1 -0.42066,-2.59361 1.8123958,1.9023541 34.4 0 1 2.57019,-0.54573 1.8123958,1.9023541 34.4 0 1 0.42066,2.59361 1.8123958,1.9023541 34.4 0 1 -2.57019,0.54573 z m 2.4797,-1.53792 a 1.3864166,1.3864166 0 0 0 -1.38642,-1.38642 1.3864166,1.3864166 0 0 0 -1.38641,1.38642 1.3864166,1.3864166 0 0 0 1.38641,1.38642 1.3864166,1.3864166 0 0 0 1.38642,-1.38642 z"
       id="path77"
       style="stroke-width:0.264583" /><circle
       fill="#f5f5f5"
       cx="-6.6799922"
       cy="-109.94439"
       r="1.3864166"
       id="circle77"
       style="stroke-width:0.264583" /><path
       fill="#000000"
       d="m -10.061372,-97.897912 q 0.037,-0.0079 0.0741,-0.0079 a 0.0396875,0.0396875 0 0 1 0.0185,0.07408 q -0.19314,0.121708 -0.43127,0.03175 -0.11377,-0.04498 -0.22754,0.0026 c -2.64848,1.06627 -5.715,0.269875 -7.39246,-1.934105 -4.05342,-5.328713 1.29911,-12.229043 7.37658,-9.903353 0.64823,0.24871 1.28588,0.75142 1.97115,1.09273 a 0.42862499,0.41010416 86.4 0 1 0.16933,0.1561 c 0.45773,0.75406 1.10596,1.49754 1.39436,2.27277 1.19856,3.20675 -0.10054,6.37117 -2.96069,8.125358 q -0.2249,0.140229 0.008,0.08996 z m 2.9501001,-5.841998 a 5.9081458,5.9081458 0 0 0 -5.9081401,-5.90815 5.9081458,5.9081458 0 0 0 -5.90815,5.90815 5.9081458,5.9081458 0 0 0 5.90815,5.908144 5.9081458,5.9081458 0 0 0 5.9081401,-5.908144 z"
       id="path78-6"
       style="stroke-width:0.264583" /><path
       fill="#f5f5f5"
       d="m -7.1112719,-103.73991 a 5.9081458,5.9081458 0 0 1 -5.9081401,5.908144 5.9081458,5.9081458 0 0 1 -5.90815,-5.908144 5.9081458,5.9081458 0 0 1 5.90815,-5.90815 5.9081458,5.9081458 0 0 1 5.9081401,5.90815 z m -1.97644,0.005 a 3.9290625,3.9290625 0 0 0 -3.9290601,-3.92907 3.9290625,3.9290625 0 0 0 -3.92906,3.92907 3.9290625,3.9290625 0 0 0 3.92906,3.92906 3.9290625,3.9290625 0 0 0 3.9290601,-3.92906 z"
       id="path79-3"
       style="stroke-width:0.264583" /><path
       fill="#000000"
       d="m -9.0877119,-103.73462 a 3.9290625,3.9290625 0 0 1 -3.9290601,3.929062 3.9290625,3.9290625 0 0 1 -3.92906,-3.929062 3.9290625,3.9290625 0 0 1 3.92906,-3.92906 3.9290625,3.9290625 0 0 1 3.9290601,3.92906 z m -4.4793901,3.35756 c 4.4555801,0.762002 5.5059801,-6.00869 1.38112,-6.64369 q -3.27289,-0.5027 -4.22804,2.56911 -0.23548,0.75671 0.254,1.88119 a 0.07408333,0.07408333 0 0 0 0.14288,-0.0238 l 0.0132,-0.17992 a 0.06614583,0.06614583 0 0 1 0.1217,-0.0291 q 0.26194,0.43392 0.0344,0.90487 a 0.20108333,0.20372916 41.4 0 0 0.0106,0.19844 c 0.5424,0.87048 1.28588,1.15358 2.27013,1.32292 z"
       id="path81-9"
       style="stroke-width:0.264583" /><path
       fill="#1d1d1b"
       d="m -12.185982,-107.02075 c 4.1248601,0.635 3.0744601,7.405692 -1.38112,6.64369 -0.98425,-0.16933 -1.72773,-0.45244 -2.27013,-1.32292 a 0.20108333,0.20372916 41.4 0 1 -0.0106,-0.19843 q 0.22754,-0.47096 -0.0344,-0.90488 a 0.06614583,0.06614583 0 0 0 -0.1217,0.0291 l -0.0132,0.17992 a 0.07408333,0.07408333 0 0 1 -0.14288,0.0238 q -0.48948,-1.12448 -0.254,-1.88119 0.95515,-3.07181 4.22804,-2.5691 z"
       id="path82-3"
       style="stroke-width:0.264583" /><path
       fill="#000000"
       d="m 85.502253,-126.11932 c 13.27679,-1.0848 24.132637,9.98802 22.944657,23.18808 -1.50018,16.695207 -21.156077,25.190977 -34.401117,14.647332 -5.26256,-4.191 -8.62277,-11.199812 -8.06186,-18.004892 0.86255,-10.46427 8.91117,-18.96269 19.51832,-19.83052 z m 12.78996,3.51895 c -11.80571,-7.2972 -27.10921,-1.38906 -31.08855,11.98827 -0.66939,2.2569 -1.26206,5.21494 -0.7567,7.54328 0.20637,0.95514 0.30956,2.03464 0.51329,2.87072 2.07168,8.458733 9.03552,14.790213 17.69004,15.922629 1.29381,0.169333 2.83633,0.116417 4.24127,0.145521 0.5715,0.01058 1.143,-0.209021 1.72773,-0.298979 4.05871,-0.616479 7.92956,-2.447396 10.779117,-5.151438 q 7.61471,-7.228416 6.604,-18.028703 c -0.0529,-0.55034 -0.31485,-1.15623 -0.40216,-1.75155 -0.78052,-5.30225 -4.8604,-10.48808 -9.308037,-13.23975 z"
       id="path84-0"
       style="stroke-width:0.264583" /><path
       fill="#1d1d1b"
       d="m 67.203663,-110.6121 c 3.97934,-13.37733 19.28284,-19.28547 31.08855,-11.98827 4.447637,2.75167 8.527517,7.9375 9.308037,13.23975 0.0873,0.59532 0.34925,1.20121 0.40216,1.75155 q 1.01071,10.800287 -6.604,18.028703 c -2.849557,2.704042 -6.720407,4.534959 -10.779117,5.151438 -0.58473,0.08996 -1.15623,0.309562 -1.72773,0.298979 -1.40494,-0.0291 -2.94746,0.02381 -4.24127,-0.145521 -8.65452,-1.132416 -15.61836,-7.463896 -17.69004,-15.922629 -0.20373,-0.83608 -0.30692,-1.91558 -0.51329,-2.87072 -0.50536,-2.32834 0.0873,-5.28638 0.7567,-7.54328 z m 7.8105,14.655275 q -0.10848,0.150813 -0.23548,0.177271 -0.52916,0.108479 0.42863,0.658812 c 3.47133,1.992313 7.18873,2.640542 11.13102,1.706563 q 8.53281,-2.018771 11.46704,-10.895541 0.37836,-1.143 0.66675,-4.30742 0.0106,-0.13758 0.10319,-0.24077 l 2.124597,-2.35744 a 0.50799999,0.50799999 0 0 0 -0.26987,-0.83608 q -0.42069,-0.09 -0.772577,0.15875 a 0.12170833,0.12170833 0 0 1 -0.16669,-0.17727 q 0.672037,-0.83344 0.50271,-1.76212 -0.0556,0.0264 -0.11113,0.0529 0.121707,-0.21431 -0.27252,-0.30691 a 0.13758333,0.16139583 46.1 0 0 -0.0873,0.005 l -2.52942,0.9816 q -0.1561,0.0582 -0.29104,-0.037 -4.53231,-3.23056 -8.15181,0.22489 c -1.25677,1.20121 -1.77536,2.65113 -1.82298,4.34975 q -0.003,0.14023 -0.14288,0.127 -4.09046,-0.38629 -7.3951,-2.82575 -0.54504,-0.39952 -2.30188,-2.21456 -0.0847,-0.09 -0.20902,-0.10848 -0.55298,-0.082 -0.75935,0.38365 -1.26471,2.83633 0.34131,5.67796 0.0714,0.127 -0.0767,0.12964 -0.4445,0.005 -0.55033,0.41804 -0.0185,0.0714 -0.0529,0.10319 -0.0529,0.0529 -0.12171,0.0741 -0.11641,0.037 -0.11112,0.15875 c 0.0529,1.92617 1.03981,3.07711 2.286,4.39473 q 0.10319,0.10848 0,0.21696 l -0.36777,0.38365 q -0.0926,0.0952 -0.045,0.2196 0.85989,2.272773 3.01625,3.397252 0.23283,0.121708 -0.0265,0.161396 l -0.2196,0.0344 a 0.13758333,0.13758333 0 0 0 -0.0344,0.264583 l 0.22754,0.0979 a 0.24341666,0.24341666 0 0 0 0.29634,-0.08467 q 0.16933,-0.246063 0.46302,-0.182563 0.11641,0.02381 0.0132,0.08202 -2.68553,1.50548 -5.80496,1.402292 -0.13229,-0.0027 -0.15611,0.127 -0.0132,0.07144 0.0185,0.166688 z"
       id="path87-2"
       style="stroke-width:0.264583" /><path
       fill="#000000"
       d="m 99.882353,-113.77916 q -0.14552,-0.0582 -0.25135,0.005 -1.3335,0.83873 -2.99244,1.16417 a 0.2778125,0.27252083 59.3 0 1 -0.22754,-0.0609 c -4.05077,-3.43164 -9.90071,-0.56356 -9.00377,4.78632 a 0.06085417,0.06085417 0 0 1 -0.0635,0.0714 q -6.49552,-0.48684 -10.75002,-5.36575 -0.10055,-0.11378 -0.16934,0.0238 -1.19856,2.40506 -0.12435,4.75721 c 0.36512,0.79639 1.03981,1.41023 1.68539,2.04258 q 0.17992,0.17992 -0.0714,0.13229 -1.03188,-0.19314 -1.9685,-0.65881 a 0.15345833,0.15345833 0 0 0 -0.21961,0.15081 q 0.38894,3.83911 4.04548,4.92654 0.29369,0.0847 -0.008,0.14023 -1.00541,0.17992 -2.01347,-0.003 a 0.11377083,0.11377083 0 0 0 -0.12436,0.15875 q 1.36261,3.15119 4.79425,3.489856 a 0.04497917,0.04497917 0 0 1 0.0212,0.08202 c -1.8124,1.275292 -5.19113,2.632604 -7.42686,1.979084 q -0.0317,-0.09525 -0.0185,-0.166688 0.0238,-0.129646 0.15611,-0.127 3.11943,0.103188 5.80496,-1.402291 0.10318,-0.05821 -0.0132,-0.08202 -0.29369,-0.0635 -0.46302,0.182562 a 0.24341666,0.24341666 0 0 1 -0.29634,0.08467 l -0.22754,-0.0979 a 0.13758333,0.13758333 0 0 1 0.0344,-0.264583 l 0.2196,-0.0344 q 0.25929,-0.03969 0.0265,-0.161396 -2.15636,-1.124479 -3.01625,-3.397254 -0.0476,-0.12436 0.045,-0.21961 l 0.36777,-0.38364 q 0.10319,-0.10848 0,-0.21696 c -1.24619,-1.31762 -2.23308,-2.46856 -2.286,-4.39473 q -0.005,-0.1217 0.11112,-0.15875 0.0688,-0.0212 0.12171,-0.0741 0.0344,-0.0318 0.0529,-0.10319 0.10583,-0.41275 0.55033,-0.41804 0.14817,-0.003 0.0767,-0.12965 -1.60602,-2.84162 -0.34131,-5.67794 0.20637,-0.46568 0.75935,-0.38366 0.12436,0.0185 0.20902,0.10848 1.75684,1.81504 2.30188,2.21457 3.30464,2.43946 7.3951,2.82575 0.14023,0.0132 0.14288,-0.127 c 0.0476,-1.69862 0.56621,-3.14854 1.82298,-4.34975 q 3.6195,-3.45546 8.15181,-0.22489 0.13494,0.0952 0.29104,0.037 l 2.52942,-0.98161 a 0.13758333,0.16139583 46.1 0 1 0.0873,-0.005 q 0.394227,0.0926 0.27252,0.30692 z"
       id="path91-2"
       style="stroke-width:0.264583" /><path
       fill="#f5f5f5"
       d="m 99.882353,-113.77916 q 0.0556,-0.0265 0.11113,-0.0529 c -0.72761,1.35995 -1.32557,2.13254 -2.29659,2.73314 a 0.11377083,0.11641667 20.8 0 0 0.0926,0.20902 l 2.611427,-0.79375 a 0.0873125,0.0873125 0 0 1 0.0926,0.13759 q -1.066267,1.34408 -2.420937,2.38654 -0.10583,0.0847 -0.10848,0.2196 c -0.0609,12.303126 -12.55183,19.325168 -23.18544,13.160376 q 0.127,-0.02646 0.23548,-0.177271 c 2.23573,0.653521 5.61446,-0.703792 7.42686,-1.979083 a 0.04497917,0.04497917 0 0 0 -0.0212,-0.08202 q -3.43164,-0.338667 -4.79425,-3.489852 a 0.11377083,0.11377083 0 0 1 0.12436,-0.15875 q 1.00806,0.18256 2.01347,0.003 0.30163,-0.0556 0.008,-0.14023 -3.65654,-1.08744 -4.04548,-4.92654 a 0.15345833,0.15345833 0 0 1 0.21961,-0.15082 q 0.93662,0.46567 1.9685,0.65882 0.25135,0.0476 0.0714,-0.1323 c -0.64558,-0.63235 -1.32027,-1.24618 -1.68539,-2.04258 q -1.07421,-2.35215 0.12435,-4.75721 0.0688,-0.13758 0.16934,-0.0238 4.2545,4.87892 10.75002,5.36575 a 0.06085417,0.06085417 0 0 0 0.0635,-0.0714 c -0.89694,-5.34987 4.953,-8.21796 9.00377,-4.78631 a 0.2778125,0.27252083 59.3 0 0 0.22754,0.0609 q 1.65894,-0.32543 2.99244,-1.16416 0.10583,-0.0635 0.25135,-0.005 z"
       id="path92-5"
       style="stroke-width:0.264583" /><path
       fill="#000000"
       d="m 99.993483,-113.83207 q 0.169327,0.92868 -0.50271,1.76212 a 0.12170833,0.12170833 0 0 0 0.16669,0.17727 q 0.351887,-0.24871 0.772577,-0.15875 a 0.50799999,0.50799999 0 0 1 0.26987,0.83608 l -2.124597,2.35744 q -0.0926,0.10319 -0.10319,0.24077 -0.28839,3.16442 -0.66675,4.30742 -2.93423,8.87677 -11.46704,10.895541 c -3.94229,0.933979 -7.65969,0.28575 -11.13102,-1.706563 q -0.95779,-0.550333 -0.42863,-0.658812 c 10.63361,6.164792 23.12459,-0.85725 23.18544,-13.160376 q 0.003,-0.13494 0.10848,-0.2196 1.35467,-1.04246 2.420937,-2.38654 a 0.0873125,0.0873125 0 0 0 -0.0926,-0.13759 l -2.611427,0.79375 a 0.11377083,0.11641667 20.8 0 1 -0.0926,-0.20902 c 0.97102,-0.6006 1.56898,-1.37319 2.29659,-2.73314 z"
       id="path94-8"
       style="stroke-width:0.264583" /><path
       fill="#000000"
       d="m 58.361877,-104.2404 a 21.277791,21.277791 0 0 1 -21.27779,21.277794 21.277791,21.277791 0 0 1 -21.27779,-21.277794 21.277791,21.277791 0 0 1 21.27779,-21.27779 21.277791,21.277791 0 0 1 21.27779,21.27779 z m -16.29568,20.237982 c 9.76577,-2.227792 16.07608,-11.281834 15.83002,-21.026442 -0.21696,-8.68362 -6.02721,-16.18985 -14.16579,-18.97856 -11.53848,-3.95287 -24.28346,3.13531 -26.96634,15.12094 -3.01096,13.451416 7.33954,25.553457 20.89415,25.579916 1.44198,0.0026 2.97391,-0.370417 4.40796,-0.695854 z"
       id="path102-9"
       style="stroke-width:0.264583" /><path
       fill="#1d1d1b"
       d="m 57.896217,-105.02886 c 0.24606,9.744608 -6.06425,18.79865 -15.83002,21.026442 -1.43405,0.325437 -2.96598,0.6985 -4.40796,0.695854 -13.55461,-0.02646 -23.90511,-12.1285 -20.89415,-25.579916 2.68288,-11.98563 15.42786,-19.07381 26.96634,-15.12094 8.13858,2.78871 13.94883,10.29494 14.16579,18.97856 z m -30.9589,7.2099 q 0.0529,0.399521 -0.22225,0.672042 -0.0979,0.09525 -0.12435,0.230187 -0.27252,1.354667 -0.87842,2.584979 -0.0582,0.119063 -0.0344,0.251355 0.0662,0.378354 -0.21695,0.66675 -0.12171,0.121708 -0.0106,0.254 l 0.39423,0.473604 q 0.11377,0.134937 0.28046,0.08202 l 6.03515,-1.91823 a 0.25664583,0.254 45.5 0 1 0.16404,0.0026 c 0.71437,0.259292 1.47108,0.624417 2.06639,0.799042 11.94065,3.4925 21.13492,-10.911419 12.18936,-19.954879 -5.52186,-5.58535 -14.42244,-4.57464 -18.75631,1.8759 q -2.78607,4.14602 -1.61661,9.52765 a 0.02910417,0.02910417 0 0 1 -0.037,0.0344 q -0.0503,-0.0132 -0.0979,-0.0344 -0.0979,-0.0423 -0.11112,0.0609 l -0.0106,0.0873 a 0.079375,0.07672917 87.3 0 0 0.0952,0.0873 q 0.22225,-0.0503 0.35454,0.0794 0.09,0.0847 0.0767,0.24077 -0.008,0.12435 -0.0529,0.26193 a 0.31220833,0.31220833 0 0 0 0.0238,0.24871 c 0.4789,0.88636 1.62719,2.410357 0.23813,3.143252 a 0.05820833,0.05820833 0 0 0 0.0212,0.10848 l 0.11113,0.01323 q 0.10583,0.01588 0.11906,0.121708 z"
       id="path105-2"
       style="stroke-width:0.264583" /><path
       fill="#000000"
       d="m 26.818257,-97.940668 -0.11113,-0.01323 a 0.05820833,0.05820833 0 0 1 -0.0212,-0.10848 c 1.38906,-0.732895 0.24077,-2.256892 -0.23813,-3.143252 a 0.31220833,0.31220833 0 0 1 -0.0238,-0.24871 q 0.045,-0.13758 0.0529,-0.26193 0.0132,-0.15611 -0.0767,-0.24077 -0.13229,-0.12965 -0.35454,-0.0794 a 0.079375,0.07672917 87.3 0 1 -0.0952,-0.0873 l 0.0106,-0.0873 q 0.0132,-0.10319 0.11112,-0.0609 0.0476,0.0212 0.0979,0.0344 a 0.02910417,0.02910417 0 0 0 0.037,-0.0344 q -1.16946,-5.38163 1.61661,-9.52765 c 4.33387,-6.45054 13.23445,-7.46125 18.75631,-1.8759 8.94556,9.04346 -0.24871,23.447379 -12.18936,19.954879 -0.59531,-0.174625 -1.35202,-0.53975 -2.06639,-0.799042 a 0.25664583,0.254 45.5 0 0 -0.16404,-0.0026 l -6.03515,1.91823 q -0.16669,0.05292 -0.28046,-0.08202 l -0.39423,-0.473604 q -0.11112,-0.132292 0.0106,-0.254 0.2831,-0.288396 0.21695,-0.66675 -0.0238,-0.132292 0.0344,-0.251355 0.6059,-1.230312 0.87842,-2.584979 0.0265,-0.134937 0.12435,-0.230187 0.27517,-0.272521 0.22225,-0.672042 -0.0132,-0.105833 -0.11906,-0.121708 z m 5.62769,2.886604 c 9.65993,5.072062 20.56077,-4.548187 16.383,-14.591776 -3.73327,-8.9826 -16.17663,-9.71285 -21.00263,-1.26735 q -3.10092,5.42925 0.0714,11.607272 0.0582,0.113771 0.0159,0.235479 l -2.01612,5.897562 a 0.09789583,0.09525 0.6 0 0 0.12171,0.121709 l 6.22564,-2.018771 q 0.10319,-0.0344 0.20109,0.01588 z"
       id="path107"
       style="stroke-width:0.264583" /><path
       fill="#f5f5f5"
       d="m 32.244857,-95.069939 -6.22564,2.018771 a 0.09789583,0.09525 0.6 0 1 -0.12171,-0.121709 l 2.01612,-5.897562 q 0.0423,-0.121708 -0.0159,-0.235479 -3.17236,-6.178022 -0.0714,-11.607272 c 4.826,-8.4455 17.26936,-7.71525 21.00263,1.26735 4.17777,10.043589 -6.72307,19.663838 -16.383,14.591776 q -0.0979,-0.05027 -0.20109,-0.01588 z m 0.68527,-1.886479 c 5.81025,3.426354 13.13392,0.320146 14.62352,-6.244172 2.05846,-9.09108 -8.96408,-15.45431 -15.92527,-9.43504 -3.75708,3.24909 -4.59581,8.77359 -1.62718,12.967233 a 0.26722916,0.26722916 0 0 1 0.0344,0.246062 l -1.16681,3.331104 q -0.0503,0.148167 0.10054,0.103188 1.60602,-0.473604 3.13796,-1.000125 c 0.31221,-0.108479 0.51329,-0.150813 0.82285,0.03175 z"
       id="path109"
       style="stroke-width:0.264583" /><path
       fill="#000000"
       d="m 32.930127,-96.956418 c -0.30956,-0.182563 -0.51064,-0.140229 -0.82285,-0.03175 q -1.53194,0.526521 -3.13796,1.000125 -0.15081,0.04498 -0.10054,-0.103188 l 1.16681,-3.331104 a 0.26722916,0.26722916 0 0 0 -0.0344,-0.246062 c -2.96863,-4.193643 -2.1299,-9.718143 1.62718,-12.967233 6.96119,-6.01927 17.98373,0.34396 15.92527,9.43504 -1.4896,6.564318 -8.81327,9.670526 -14.62352,6.244172 z m 10.22615,-0.605896 c 5.52185,-3.431646 5.40015,-11.350626 0.50006,-15.070666 -2.90777,-2.20663 -6.32883,-2.3204 -9.67846,-0.89958 -3.22527,1.36525 -5.0747,4.3815 -5.32606,7.85283 -0.0397,0.56621 0.17463,1.19592 0.005,1.87589 q -0.0317,0.13494 0.0185,0.26459 0.70909,1.83885 1.62719,3.587749 c 0.38894,0.740833 -0.18785,1.494895 -0.33602,2.172229 q -0.10054,0.449791 -0.28575,0.886354 a 0.07672917,0.079375 79 0 0 0.127,0.08467 q 0.31221,-0.312208 0.76729,-0.193145 a 0.3095625,0.31220833 37 0 0 0.23548,-0.0344 q 1.3335,-0.8255 2.86808,-0.04763 4.79425,2.431521 9.47738,-0.478896 z"
       id="path113"
       style="stroke-width:0.264583" /><path
       fill="#1d1d1b"
       d="m 43.656337,-112.63298 c 4.90009,3.72004 5.02179,11.63902 -0.50006,15.070666 q -4.68313,2.910417 -9.47738,0.478896 -1.53458,-0.777875 -2.86808,0.04763 a 0.3095625,0.31220833 37 0 1 -0.23548,0.0344 q -0.45508,-0.119063 -0.76729,0.193145 a 0.07672917,0.079375 79 0 1 -0.127,-0.08467 q 0.18521,-0.436563 0.28575,-0.886354 c 0.14817,-0.677334 0.72496,-1.431396 0.33602,-2.172229 q -0.9181,-1.748894 -1.62719,-3.587754 -0.0503,-0.12964 -0.0185,-0.26458 c 0.16934,-0.67998 -0.045,-1.30969 -0.005,-1.8759 0.25136,-3.47133 2.10079,-6.48758 5.32606,-7.85283 3.34963,-1.42081 6.77069,-1.30704 9.67846,0.89958 z m -9.05933,9.90864 c 0.4736,0.45509 0.9816,1.12713 1.75419,1.59544 1.3335,0.80434 3.86291,2.185461 5.38691,1.783294 1.5875,-0.420687 2.93423,-1.574274 2.64319,-3.405184 q -0.0212,-0.13494 -0.13229,-0.21167 -1.49225,-1.02129 -3.25967,-1.41817 a 0.24341666,0.2460625 28.5 0 0 -0.22754,0.0688 l -1.16417,1.16417 a 0.2301875,0.2301875 0 0 1 -0.23548,0.0556 q -2.28335,-0.77258 -3.46604,-2.88131 -0.0582,-0.10319 0.008,-0.20108 l 0.74348,-1.14036 q 0.0926,-0.14287 0.0423,-0.30162 c -0.24871,-0.80434 -0.74877,-2.71463 -1.47108,-3.17236 -0.83873,-0.53181 -1.778,-0.19314 -2.45269,0.508 -2.2516,2.32834 -0.0397,5.75734 1.83092,7.5565 z"
       id="path114-5"
       style="stroke-width:0.264583" /><path
       fill="#000000"
       d="m 34.597007,-102.72434 c -1.87061,-1.79916 -4.08252,-5.22816 -1.83092,-7.5565 0.67469,-0.70114 1.61396,-1.03981 2.45269,-0.508 0.72231,0.45773 1.22237,2.36803 1.47108,3.17236 q 0.0503,0.15875 -0.0423,0.30162 l -0.74348,1.14036 q -0.0662,0.0979 -0.008,0.20108 1.18269,2.10873 3.46604,2.88131 a 0.2301875,0.2301875 0 0 0 0.23548,-0.0556 l 1.16417,-1.16416 a 0.24341666,0.2460625 28.5 0 1 0.22754,-0.0688 q 1.76742,0.39687 3.25967,1.41816 0.11112,0.0767 0.13229,0.21167 c 0.29104,1.83092 -1.05569,2.9845 -2.64319,3.405187 -1.524,0.402167 -4.05341,-0.978957 -5.38691,-1.783287 -0.77259,-0.46832 -1.28059,-1.14036 -1.75419,-1.59544 z m -1.74625,-3.2332 c 1.58221,2.98979 4.14867,5.29166 7.50623,6.064247 1.60602,0.370417 3.43958,-0.444497 3.61156,-2.209267 0.0503,-0.51594 -0.15346,-0.59532 -0.56356,-0.79111 q -1.62454,-0.77787 -2.2569,-1.06892 -0.11906,-0.0556 -0.20373,0.045 l -1.10596,1.32821 a 0.39952083,0.396875 30.4 0 1 -0.44979,0.11642 q -2.65641,-1.02658 -4.07987,-3.47927 a 0.35983333,0.35983333 0 0 1 0.0794,-0.45773 q 0.56621,-0.4736 0.84402,-1.15094 0.0529,-0.13494 -0.005,-0.26458 c -0.40746,-0.88106 -1.12712,-3.94494 -2.78341,-2.4474 q -1.94469,1.75684 -0.59267,4.31536 z"
       id="path115"
       style="stroke-width:0.264583" /><path
       fill="#f5f5f5"
       d="m 40.356987,-99.893293 c -3.35756,-0.772587 -5.92402,-3.074457 -7.50623,-6.064247 q -1.35202,-2.55852 0.59267,-4.31536 c 1.65629,-1.49754 2.37595,1.56634 2.78341,2.4474 q 0.0582,0.12964 0.005,0.26458 -0.27781,0.67733 -0.84402,1.15094 a 0.35983333,0.35983333 0 0 0 -0.0794,0.45773 q 1.42346,2.45269 4.07987,3.47927 a 0.39952083,0.396875 30.4 0 0 0.44979,-0.11642 l 1.10596,-1.32821 q 0.0847,-0.10054 0.20373,-0.045 0.63236,0.29105 2.2569,1.06892 c 0.4101,0.19579 0.61383,0.27517 0.56356,0.7911 -0.17198,1.76478 -2.00554,2.579693 -3.61156,2.209276 z"
       id="path116-7"
       style="stroke-width:0.264583" /></g></svg>
