<?xml version="1.0" encoding="UTF-8" standalone="no"?>
<!-- Created with Inkscape (http://www.inkscape.org/) -->

<svg
   width="29.213882mm"
   height="34.79287mm"
   viewBox="0 0 29.213882 34.79287"
   version="1.1"
   id="svg1"
   xml:space="preserve"
   xmlns:inkscape="http://www.inkscape.org/namespaces/inkscape"
   xmlns:sodipodi="http://sodipodi.sourceforge.net/DTD/sodipodi-0.dtd"
   xmlns="http://www.w3.org/2000/svg"
   xmlns:svg="http://www.w3.org/2000/svg"><sodipodi:namedview
     id="namedview1"
     pagecolor="#ffffff"
     bordercolor="#999999"
     borderopacity="1"
     inkscape:showpageshadow="2"
     inkscape:pageopacity="0"
     inkscape:pagecheckerboard="0"
     inkscape:deskcolor="#d1d1d1"
     inkscape:document-units="mm" /><defs
     id="defs1" /><g
     inkscape:label="Capa 1"
     inkscape:groupmode="layer"
     id="layer1"
     transform="translate(90.43751,-99.650106)"><path
       fill="#231f20"
       d="m -88.905523,134.42487 c -0.195791,-0.10583 -0.330729,-0.23283 -0.328083,-0.47625 l 12.729104,-21.6482 14.800791,1.91558 c 0.13017,0.0171 0.250321,0.0767 0.341313,0.16933 0.206375,0.20638 0.182561,0.40129 -0.07144,0.58473 -8.426097,6.04309 -16.861013,12.07559 -25.304749,18.0975 -0.673806,0.47978 -1.343202,0.93045 -2.008188,1.35202 -0.04747,0.0293 -0.107705,0.0312 -0.15875,0.005 z"
       id="path91-9"
       style="stroke-width:0.264583"
       sodipodi:nodetypes="cccccccccc" /><path
       fill="#231f20"
       d="m -90.109388,133.53411 c -0.195791,-0.10583 -0.330729,-0.23283 -0.328083,-0.47625 0.137583,-11.02077 0.291042,-22.01685 0.460375,-32.98823 0.0078,-0.377845 0.465428,-0.56092 0.727604,-0.291052 l 11.297708,11.512012 z"
       id="path91-9-9"
       style="stroke-width:0.264583"
       sodipodi:nodetypes="cccccc" /></g></svg>
