<?xml version="1.0" encoding="UTF-8" standalone="no"?>
<!-- Created with Inkscape (http://www.inkscape.org/) -->

<svg
   width="210mm"
   height="297mm"
   viewBox="0 0 210 297"
   version="1.1"
   id="svg1"
   xml:space="preserve"
   inkscape:version="1.3 (0e150ed6c4, 2023-07-21)"
   sodipodi:docname="identificadorGrafico.svg"
   xmlns:inkscape="http://www.inkscape.org/namespaces/inkscape"
   xmlns:sodipodi="http://sodipodi.sourceforge.net/DTD/sodipodi-0.dtd"
   xmlns="http://www.w3.org/2000/svg"
   xmlns:svg="http://www.w3.org/2000/svg"><sodipodi:namedview
     id="namedview1"
     pagecolor="#ffffff"
     bordercolor="#999999"
     borderopacity="1"
     inkscape:showpageshadow="2"
     inkscape:pageopacity="0"
     inkscape:pagecheckerboard="0"
     inkscape:deskcolor="#d1d1d1"
     inkscape:document-units="mm"
     showguides="true"
     inkscape:zoom="1.4022026"
     inkscape:cx="125.16023"
     inkscape:cy="41.006914"
     inkscape:window-width="1920"
     inkscape:window-height="1001"
     inkscape:window-x="-9"
     inkscape:window-y="-9"
     inkscape:window-maximized="1"
     inkscape:current-layer="layer2" /><defs
     id="defs1"><rect
       x="178.29093"
       y="272.42854"
       width="235.34403"
       height="205.39115"
       id="rect1" /></defs><g
     inkscape:label="Capa 1"
     inkscape:groupmode="layer"
     id="layer1" /><g
     inkscape:groupmode="layer"
     id="layer2"
     inkscape:label="Capa 2"><circle
       style="opacity:1;fill:#ffffff;fill-opacity:1;stroke-width:2;stroke-linecap:round"
       id="circle39"
       cx="133.38588"
       cy="29.215086"
       r="21.557974"
       inkscape:export-filename="path40.svg"
       inkscape:export-xdpi="96"
       inkscape:export-ydpi="96" /><circle
       style="opacity:1;fill:#ffcc00;fill-opacity:1;stroke-width:2;stroke-linecap:round"
       id="path29"
       cx="28.559891"
       cy="28.633886"
       inkscape:export-filename="path32.svg"
       inkscape:export-xdpi="96"
       inkscape:export-ydpi="96"
       r="21.557974" /><path
       d="m 40.286381,15.124749 c 0.076,0.0253 0.14572,0.019 0.20907,-0.019 0.0697,-0.0317 0.0887,-0.10769 0.057,-0.22807 -0.038,-0.14571 -0.12036,-0.29142 -0.24707,-0.43713 -0.12037,-0.13937 -0.27559,-0.26925 -0.46564,-0.38962 -0.18372,-0.12037 -0.39595,-0.21539 -0.63669,-0.28508 -0.24074,-0.076 -0.50049,-0.11404 -0.77924,-0.11404 -0.2344,0 -0.4688,0.0222 -0.70321,0.0665 -0.2344,0.0443 -0.4593,0.12036 -0.6747,0.22807 -0.20906,0.1077 -0.39912,0.25024 -0.57017,0.42763 -0.17105,0.17739 -0.3136,0.39912 -0.42763,0.6652 -0.10136,0.22807 -0.18055,0.48781 -0.23757,0.77923 -0.0507,0.29776 -0.0919,0.6367 -0.12354,1.01681 -0.0633,0.73489 -0.15836,1.31456 -0.28508,1.73902 -0.12037,0.43079 -0.26292,0.75389 -0.42763,0.96929 -0.15838,0.22173 -0.32943,0.36111 -0.51315,0.41813 -0.18373,0.057 -0.36111,0.0855 -0.53216,0.0855 -0.2154,0 -0.36428,-0.0412 -0.44664,-0.12353 -0.0823,-0.0824 -0.12353,-0.2249 -0.12353,-0.42763 v -3.81065 c 0,-0.29775 0.0633,-0.53849 0.19005,-0.72221 0.12671,-0.18372 0.27242,-0.32943 0.43713,-0.43713 0.17105,-0.1077 0.33894,-0.18372 0.50365,-0.22807 0.16472,-0.038 0.28509,-0.0633 0.36111,-0.076 0.057,-0.0127 0.0982,-0.0348 0.12354,-0.0665 0.0317,-0.0317 0.0443,-0.0665 0.038,-0.10454 0,-0.0317 -0.0158,-0.0633 -0.0475,-0.095 -0.0317,-0.0253 -0.0792,-0.038 -0.14255,-0.038 h -6.06281 c -0.0633,0 -0.11085,0.0127 -0.14255,0.038 -0.0317,0.0317 -0.0507,0.0633 -0.057,0.095 0,0.038 0.0127,0.0728 0.038,0.10454 0.0317,0.0317 0.076,0.0538 0.13304,0.0665 0.076,0.0127 0.19639,0.038 0.36111,0.076 0.16471,0.0443 0.32943,0.12036 0.49414,0.22807 0.17105,0.1077 0.31993,0.25341 0.44664,0.43713 0.1267,0.18372 0.19005,0.42446 0.19005,0.72221 v 9.29379 c 0,0.29142 -0.0633,0.52899 -0.19005,0.71272 -0.12671,0.19005 -0.27559,0.33576 -0.44664,0.43713 -0.16471,0.10769 -0.32943,0.18371 -0.49414,0.22806 -0.16472,0.0443 -0.28509,0.0728 -0.36111,0.0855 -0.057,0.007 -0.10135,0.0257 -0.13304,0.057 -0.0253,0.038 -0.038,0.0728 -0.038,0.10453 0.007,0.038 0.0257,0.0697 0.057,0.095 0.0317,0.0317 0.0799,0.0382 0.14255,0.0475 l 3.1649,0.47173 c 0.35716,0.0532 1.70373,0.31349 2.68901,0.56628 1.00339,0.27637 1.52517,0.45857 1.94895,0.60238 0.58343,0.22604 1.43722,0.94474 1.74764,0.81168 0.31676,-0.13304 0.55106,-1.46725 0.79246,-2.58792 0.051,-0.74276 -0.0926,-1.29321 0.0532,-1.58463 0.15205,-0.28509 0.25658,-0.58601 0.3136,-0.90278 0.0633,-0.31676 0.076,-0.63986 0.038,-0.96929 -0.0317,-0.32943 -0.11403,-0.63668 -0.24708,-0.92177 -0.22807,-0.50682 -0.52582,-0.89961 -0.89326,-1.17836 -0.36745,-0.27241 -0.80775,-0.48147 -1.3209,-0.62718 -0.0507,-0.0127 -0.0792,-0.0348 -0.0855,-0.0665 -0.007,-0.0253 0.0123,-0.0412 0.057,-0.0475 0.0507,-0.0127 0.13936,-0.0348 0.26608,-0.0665 0.12671,-0.0317 0.26925,-0.0855 0.42763,-0.16155 0.15838,-0.0697 0.31676,-0.16788 0.47514,-0.29458 0.15838,-0.12671 0.29142,-0.28509 0.39912,-0.47515 0.13304,-0.2344 0.2249,-0.53215 0.27558,-0.89326 0.057,-0.35477 0.0918,-0.73172 0.10454,-1.13084 0.0253,-0.43713 0.0507,-0.80141 0.076,-1.09283 0.0317,-0.28509 0.0855,-0.50999 0.16155,-0.6747 0.057,-0.13304 0.12985,-0.23441 0.21856,-0.3041 0.095,-0.0633 0.19323,-0.10768 0.29459,-0.13304 0.10137,-0.0253 0.20273,-0.0348 0.30409,-0.0285 0.10137,0.0127 0.19006,0.0348 0.26608,0.0665 z m -6.70901,5.47364 c 0.16471,0 0.34527,0.006 0.54166,0.019 0.20273,0.0127 0.40229,0.0475 0.59868,0.10453 0.20273,0.0633 0.39595,0.15836 0.57968,0.28509 0.19005,0.13304 0.35477,0.31676 0.49414,0.55117 0.14571,0.24073 0.25975,0.54166 0.34211,0.90277 0.0887,0.36111 0.13304,0.80457 0.13304,1.3304 0,0.45613 -0.0348,0.83625 -0.10453,1.14034 -0.0697,0.31043 -0.17106,0.5575 -0.3041,0.74122 -0.1267,0.19005 -0.28508,0.32626 -0.47514,0.40862 -0.18372,0.0824 -0.39278,0.12354 -0.62719,0.12354 -0.20906,0 -0.39912,-0.0285 -0.57017,-0.0855 -0.17105,-0.0507 -0.31992,-0.13619 -0.44663,-0.25657 -0.12037,-0.12037 -0.2154,-0.27242 -0.28509,-0.45614 -0.0633,-0.18372 -0.095,-0.40862 -0.095,-0.6747 v -3.92468 c 0,-0.13937 0.0729,-0.20906 0.21856,-0.20906 z"
       id="text25"
       style="font-size:19.0057px;line-height:2.9;font-family:Mermaid;-inkscape-font-specification:Mermaid;text-align:center;letter-spacing:0.146819px;direction:rtl;text-anchor:middle;stroke-width:1.07749;stroke-linecap:round"
       aria-label="R"
       sodipodi:nodetypes="ccccccsscscccccssssssccccccssccccccsssccsccccssccccccccccccscsccccccscccccccccscccscccsscc" /><path
       id="circle33"
       style="opacity:1;fill:#000000;fill-opacity:1;stroke-width:2;stroke-linecap:round"
       d="M 82.440562,7.6571222 A 21.557974,21.557974 0 0 0 60.882704,29.214972 21.557974,21.557974 0 0 0 82.440562,50.772832 21.557974,21.557974 0 0 0 103.99842,29.214972 21.557974,21.557974 0 0 0 82.440562,7.6571222 Z m -9.863998,6.5758198 c 0.234404,0 0.468913,0.0218 0.703317,0.06615 0.2344,0.04434 0.458979,0.12071 0.674377,0.22841 0.209062,0.1077 0.399457,0.24997 0.570508,0.42736 0.171051,0.17739 0.31333,0.39951 0.427364,0.66559 0.101364,0.22807 0.180697,0.48735 0.237711,0.77877 0.05068,0.29775 0.09183,0.63688 0.123507,1.01699 0.06335,0.73489 0.15855,1.31445 0.285254,1.73891 0.120369,0.4308 0.262648,0.75405 0.427364,0.96945 0.158381,0.22173 0.329426,0.36105 0.513147,0.41806 0.183722,0.05702 0.361219,0.08579 0.532267,0.08579 0.215398,0 0.364127,-0.04115 0.446485,-0.12351 0.08236,-0.08236 0.123506,-0.22515 0.123506,-0.42788 v -3.81062 c 0,-0.29776 -0.06346,-0.53872 -0.190169,-0.72244 -0.126704,-0.18372 -0.27195,-0.32896 -0.436666,-0.43666 -0.171051,-0.1077 -0.339129,-0.18407 -0.503845,-0.22841 -0.164716,-0.03801 -0.285195,-0.0633 -0.361218,-0.07597 -0.05702,-0.01267 -0.09817,-0.03498 -0.123507,-0.06666 -0.03168,-0.03168 -0.04406,-0.06638 -0.03772,-0.10439 0,-0.03167 0.01587,-0.06341 0.04754,-0.09508 0.03168,-0.02534 0.07876,-0.03773 0.14211,-0.03773 h 6.063196 c 0.06335,0 0.110434,0.01239 0.14211,0.03773 0.03168,0.03167 0.05102,0.06341 0.05736,0.09508 0.0063,-0.03167 0.02517,-0.06341 0.05684,-0.09508 0.03168,-0.02534 0.07927,-0.03773 0.142627,-0.03773 h 6.062679 c 0.06335,0 0.110951,0.01239 0.142627,0.03773 0.03168,0.03167 0.04754,0.06341 0.04754,0.09508 0.0063,0.03801 -0.0066,0.07271 -0.03824,0.10439 -0.02534,0.03168 -0.06649,0.05399 -0.123506,0.06666 -0.07602,0.01267 -0.195986,0.03796 -0.360702,0.07597 -0.164716,0.04434 -0.332794,0.12071 -0.503845,0.22841 -0.164716,0.1077 -0.310478,0.25294 -0.437183,0.43666 -0.1267,0.18372 -0.190169,0.42468 -0.190169,0.72244 v 3.81062 c 0,0.20273 0.04115,0.34552 0.123507,0.42788 0.08236,0.08236 0.231603,0.12351 0.447001,0.12351 0.171051,0 0.348029,-0.02877 0.531751,-0.08579 0.183717,-0.05701 0.35477,-0.19633 0.513146,-0.41806 0.164716,-0.2154 0.307512,-0.53865 0.427881,-0.96945 0.126705,-0.42446 0.221902,-1.00402 0.285254,-1.73891 0.03168,-0.38011 0.07283,-0.71924 0.123507,-1.01699 0.05702,-0.29142 0.135831,-0.5507 0.237195,-0.77877 0.114034,-0.26608 0.256829,-0.4882 0.427881,-0.66559 0.171047,-0.17739 0.360928,-0.31966 0.569991,-0.42736 0.215393,-0.1077 0.44049,-0.18407 0.674894,-0.22841 0.234403,-0.04435 0.468913,-0.06615 0.703316,-0.06615 0.27875,0 0.538542,0.03767 0.779281,0.11369 0.240734,0.06969 0.452936,0.16488 0.636653,0.28525 0.190057,0.12037 0.345236,0.25027 0.465605,0.38964 0.126705,0.14571 0.209002,0.29148 0.247013,0.43719 0.03168,0.12037 0.01232,0.19621 -0.05736,0.22789 -0.06335,0.03801 -0.132751,0.04446 -0.208773,0.01912 -0.07602,-0.03168 -0.16477,-0.05399 -0.266134,-0.06666 -0.101364,-0.0063 -0.202494,0.0031 -0.303857,0.02842 -0.101364,0.02534 -0.199528,0.06997 -0.294556,0.13332 -0.08869,0.06969 -0.161574,0.17082 -0.218591,0.30386 -0.07602,0.16472 -0.130071,0.38981 -0.161748,0.6749 -0.02534,0.29142 -0.05062,0.65582 -0.07596,1.09295 -0.01267,0.39912 -0.04737,0.77591 -0.104386,1.13068 -0.05068,0.36111 -0.142917,0.65908 -0.275952,0.89349 -0.107699,0.19005 -0.240566,0.3482 -0.398942,0.4749 -0.158381,0.12671 -0.317043,0.22487 -0.475424,0.29456 -0.15838,0.07602 -0.300659,0.13007 -0.427364,0.16175 l -0.266133,0.06666 c -0.04435,0.0063 -0.06318,0.02168 -0.05684,0.04703 0.0063,0.03167 0.03458,0.05399 0.08527,0.06666 0.513149,0.14571 0.95341,0.35494 1.320849,0.62735 0.367443,0.27875 0.665418,0.6714 0.893486,1.17822 0.13304,0.28509 0.215337,0.59248 0.247013,0.92191 0.03801,0.32943 0.02511,0.65269 -0.03824,0.96945 -0.05702,0.31676 -0.161114,0.6177 -0.31316,0.90279 -0.145706,0.29142 -0.336108,0.54128 -0.570507,0.75034 -0.291421,0.25341 -0.595332,0.44677 -0.912089,0.57981 -0.310427,0.13304 -0.633687,0.22824 -0.96945,0.28525 -0.329432,0.05702 -0.671526,0.08875 -1.026294,0.09509 -0.348438,0.0063 -0.70291,0.0093 -1.064018,0.0093 h -5.853906 c -0.06335,0 -0.110951,-0.01587 -0.142627,-0.04754 -0.03168,-0.02534 -0.05051,-0.05708 -0.05684,-0.09509 -0.0063,0.03801 -0.02568,0.06975 -0.05736,0.09509 -0.03168,0.03167 -0.07876,0.04754 -0.14211,0.04754 h -5.853907 c -0.361104,0 -0.716097,-0.003 -1.064534,-0.0093 -0.354773,-0.0063 -0.696862,-0.03807 -1.026294,-0.09509 -0.335767,-0.05701 -0.658507,-0.15221 -0.968933,-0.28525 -0.316761,-0.13304 -0.621185,-0.3264 -0.912606,-0.57981 -0.234403,-0.20906 -0.424281,-0.45892 -0.569991,-0.75034 -0.152045,-0.28509 -0.256659,-0.58603 -0.313676,-0.90279 -0.06335,-0.31676 -0.07625,-0.64002 -0.03824,-0.96945 0.03167,-0.32943 0.11449,-0.63682 0.24753,-0.92191 0.228065,-0.50682 0.525528,-0.89947 0.892968,-1.17822 0.367444,-0.27241 0.8077,-0.48164 1.32085,-0.62735 0.05068,-0.01267 0.07945,-0.03499 0.08578,-0.06666 0.0063,-0.02535 -0.01301,-0.04069 -0.05736,-0.04703 l -0.265617,-0.06666 c -0.126704,-0.03168 -0.2695,-0.08573 -0.427881,-0.16175 -0.15838,-0.06969 -0.316525,-0.16785 -0.474906,-0.29456 -0.158381,-0.1267 -0.29176,-0.28485 -0.399459,-0.4749 -0.13304,-0.23441 -0.224753,-0.53238 -0.275435,-0.89349 -0.05702,-0.35477 -0.09172,-0.73156 -0.104387,-1.13068 -0.02534,-0.43713 -0.05062,-0.80153 -0.07596,-1.09295 -0.03168,-0.28509 -0.08572,-0.51018 -0.161747,-0.6749 -0.05702,-0.13304 -0.129898,-0.23417 -0.218592,-0.30386 -0.09503,-0.06335 -0.193192,-0.10798 -0.294555,-0.13332 -0.101364,-0.02534 -0.203014,-0.03476 -0.304374,-0.02842 -0.101364,0.01267 -0.189595,0.03498 -0.265617,0.06666 -0.07602,0.02534 -0.145938,0.01889 -0.20929,-0.01912 -0.06969,-0.03168 -0.08852,-0.10752 -0.05684,-0.22789 0.03801,-0.14571 0.120312,-0.29148 0.247013,-0.43719 0.12037,-0.13937 0.275548,-0.26927 0.465605,-0.38964 0.183722,-0.12037 0.395915,-0.21556 0.636654,-0.28525 0.240735,-0.07602 0.500533,-0.11369 0.77928,-0.11369 z m 9.863998,12.95218 c 0,-0.03167 0.01239,-0.06637 0.03772,-0.10438 0.03168,-0.03168 0.07631,-0.05051 0.133326,-0.05685 0.07602,-0.01267 0.196502,-0.04143 0.361218,-0.08578 0.164716,-0.04435 0.329311,-0.1202 0.494027,-0.22789 0.171047,-0.10137 0.319779,-0.24713 0.446484,-0.43719 0.126705,-0.18372 0.190169,-0.42123 0.190169,-0.71261 v -9.29401 c 0,-0.29776 -0.06346,-0.53872 -0.190169,-0.72244 -0.126705,-0.18372 -0.275437,-0.32896 -0.446484,-0.43666 -0.164716,-0.1077 -0.329311,-0.18407 -0.494027,-0.22841 -0.164716,-0.03801 -0.285196,-0.0633 -0.361218,-0.07597 -0.05702,-0.01267 -0.101649,-0.03498 -0.133326,-0.06666 -0.02534,-0.03168 -0.03772,-0.06638 -0.03772,-0.10439 0,0.03801 -0.0129,0.07271 -0.03824,0.10439 -0.03168,0.03168 -0.07579,0.05399 -0.132808,0.06666 -0.07602,0.01267 -0.196503,0.03796 -0.361219,0.07597 -0.164712,0.04434 -0.32931,0.12071 -0.494026,0.22841 -0.171051,0.1077 -0.3203,0.25294 -0.447001,0.43666 -0.126705,0.18372 -0.189653,0.42468 -0.189653,0.72244 v 9.29401 c 0,0.29139 0.06295,0.52889 0.189653,0.71261 0.126701,0.19006 0.27595,0.33582 0.447001,0.43719 0.164716,0.10769 0.329314,0.18354 0.494026,0.22789 0.164716,0.04435 0.285196,0.07311 0.361219,0.08578 0.05702,0.0063 0.101132,0.02517 0.132808,0.05685 0.02534,0.03801 0.03824,0.07271 0.03824,0.10438 z m -5.017782,-6.00583 c -0.164716,0 -0.345177,0.0065 -0.541569,0.01912 -0.202727,0.01267 -0.402021,0.04737 -0.598413,0.10438 -0.202727,0.06336 -0.396088,0.15855 -0.57981,0.28526 -0.190053,0.13304 -0.354651,0.31647 -0.494026,0.55087 -0.14571,0.24074 -0.25974,0.54168 -0.342098,0.90279 -0.08869,0.3611 -0.133325,0.80484 -0.133325,1.33066 0,0.45614 0.0347,0.83641 0.104386,1.1405 0.06969,0.31043 0.171334,0.55732 0.304374,0.74104 0.126705,0.19006 0.28485,0.32641 0.474907,0.40876 0.183718,0.08236 0.392951,0.12351 0.627351,0.12351 0.209063,0 0.39894,-0.02877 0.569992,-0.08578 0.171048,-0.05068 0.320296,-0.13595 0.447001,-0.25632 0.120369,-0.12037 0.215049,-0.27258 0.284737,-0.4563 0.06335,-0.18372 0.09508,-0.40882 0.09508,-0.6749 v -3.9243 c 0,-0.13938 -0.07288,-0.20929 -0.218591,-0.20929 z m 10.035047,0 c -0.145711,0 -0.218592,0.06991 -0.218592,0.20929 v 3.9243 c 0,0.26608 0.03173,0.49118 0.09509,0.6749 0.06969,0.18372 0.164884,0.33593 0.285254,0.4563 0.126704,0.12037 0.275433,0.20564 0.446484,0.25632 0.171051,0.05701 0.360929,0.08578 0.569991,0.08578 0.234404,0 0.44363,-0.04115 0.627352,-0.12351 0.190057,-0.08235 0.348719,-0.2187 0.475423,-0.40876 0.13304,-0.18372 0.23417,-0.43061 0.303858,-0.74104 0.06969,-0.30409 0.104386,-0.68436 0.104386,-1.1405 0,-0.52582 -0.04412,-0.96956 -0.132808,-1.33066 -0.08236,-0.36111 -0.196392,-0.66205 -0.342098,-0.90279 -0.139375,-0.2344 -0.30397,-0.41783 -0.494027,-0.55087 -0.183722,-0.12671 -0.377082,-0.2219 -0.57981,-0.28526 -0.196388,-0.05701 -0.396206,-0.09171 -0.598929,-0.10438 -0.196393,-0.01267 -0.376858,-0.01912 -0.541569,-0.01912 z m -4.7594,6.91172 c 1.139123,0 2.221525,0.08581 3.247864,0.25787 1.026338,0.16517 1.973764,0.40292 2.842204,0.71261 0.879718,0.3097 1.669584,0.68455 2.368847,1.125 0.699265,0.43357 1.291147,0.91547 1.776119,1.44539 0.484974,0.52992 0.857323,1.10456 1.116728,1.72392 0.270683,0.61251 0.406177,1.25274 0.406177,1.9203 0,0.66756 -0.147045,1.31418 -0.440283,1.94045 -0.281962,0.61939 -0.687928,1.20091 -1.218014,1.7446 -0.518808,0.5368 -1.150081,1.03251 -1.894458,1.48673 -0.744377,0.44733 -1.573633,0.83254 -2.487187,1.156 -0.902275,0.31658 -1.87754,0.56124 -2.926436,0.73329 -1.048896,0.17893 -2.148624,0.2682 -3.299023,0.2682 -1.725604,0 -3.310592,-0.18596 -4.754232,-0.55759 -1.432364,-0.37163 -2.667067,-0.88066 -3.704684,-1.52755 -1.037617,-0.64692 -1.849546,-1.40404 -2.436027,-2.27118 -0.5752,-0.87403 -0.862996,-1.81365 -0.862996,-2.81844 0,-0.66756 0.140751,-1.31072 0.422713,-1.93011 0.29324,-0.62627 0.699204,-1.21125 1.218014,-1.75493 0.530086,-0.54369 1.167649,-1.0394 1.912028,-1.48673 0.744377,-0.45422 1.567858,-0.83943 2.470133,-1.15601 0.913554,-0.32345 1.894594,-0.57157 2.94349,-0.74362 1.048895,-0.17893 2.148621,-0.2682 3.299023,-0.2682 z m -0.253731,0.60927 c -0.924833,0 -1.731504,0.17507 -2.419491,0.52606 -0.687984,0.34411 -1.263059,0.8191 -1.725476,1.42472 -0.451137,0.59874 -0.789356,1.30406 -1.014925,2.11615 -0.225569,0.80521 -0.338481,1.66592 -0.338481,2.58124 0,0.9222 0.112912,1.78587 0.338481,2.59105 0.225569,0.80521 0.563788,1.51053 1.014925,2.11615 0.462417,0.59875 1.037492,1.07374 1.725476,1.42472 0.687987,0.34411 1.494658,0.51573 2.419491,0.51573 0.924832,0 1.730987,-0.17162 2.418974,-0.51573 0.687984,-0.35098 1.257803,-0.82597 1.708939,-1.42472 0.462417,-0.60562 0.806409,-1.31094 1.031979,-2.11615 0.225567,-0.80518 0.33848,-1.66885 0.33848,-2.59105 0,-0.91532 -0.112913,-1.77603 -0.33848,-2.58124 -0.22557,-0.81209 -0.569562,-1.51741 -1.031979,-2.11615 -0.451136,-0.60562 -1.020955,-1.08061 -1.708939,-1.42472 -0.687987,-0.35099 -1.494142,-0.52606 -2.418974,-0.52606 z m -2.778125,4.77128 a 1.7678792,1.7678792 0 0 1 1.767851,1.76785 1.7678792,1.7678792 0 0 1 -1.767851,1.76785 1.7678792,1.7678792 0 0 1 -1.767851,-1.76785 1.7678792,1.7678792 0 0 1 1.767851,-1.76785 z m 5.36453,0 a 1.7678792,1.7678792 0 0 1 1.767851,1.76785 1.7678792,1.7678792 0 0 1 -1.767851,1.76785 1.7678792,1.7678792 0 0 1 -1.76785,-1.76785 1.7678792,1.7678792 0 0 1 1.76785,-1.76785 z m 7.936467,9.03046 c 0.05075,0.0034 0.101175,0.01725 0.151928,0.04134 0.101507,0.05505 0.113056,0.11721 0.03411,0.18603 -0.37219,0.32346 -0.857452,0.66723 -1.455208,1.03198 -0.586481,0.36475 -1.279722,0.70213 -2.080494,1.01183 -0.78949,0.30969 -1.680718,0.56765 -2.673221,0.77411 -0.992504,0.20646 -2.075422,0.31006 -3.248381,0.31006 -0.687985,0 -1.319258,-0.03799 -1.894458,-0.11369 -0.5752,-0.0757 -1.110886,-0.17188 -1.607137,-0.28887 -0.496253,-0.11012 -0.964707,-0.23443 -1.404565,-0.37207 -0.439861,-0.13076 -0.873665,-0.25456 -1.302247,-0.37156 -0.417301,-0.11011 -0.834816,-0.20283 -1.25212,-0.27853 -0.417301,-0.0757 -0.851626,-0.11369 -1.302762,-0.11369 -0.439861,0 -0.80066,0.02072 -1.082622,0.06201 -0.281959,0.04818 -0.479427,0.08271 -0.592212,0.10335 -0.146618,0.03441 -0.264789,0.01715 -0.355017,-0.05167 -0.09023,-0.06194 -0.06239,-0.13791 0.08423,-0.22738 0.06767,-0.04129 0.270911,-0.13401 0.609265,-0.27853 0.338354,-0.14453 0.777935,-0.29595 1.319299,-0.45424 0.552645,-0.15141 1.195981,-0.28902 1.929082,-0.41289 0.733098,-0.12388 1.528222,-0.18604 2.385384,-0.18604 0.744377,0 1.426589,0.02417 2.046903,0.07235 0.620316,0.05505 1.206938,0.12066 1.759583,0.19637 0.327073,0.04817 0.648485,0.096 0.964282,0.14417 0.315797,0.05506 0.642465,0.10341 0.980819,0.1447 0.338352,0.04129 0.688122,0.07582 1.049031,0.10335 0.37219,0.02753 0.778153,0.04134 1.218014,0.04134 0.620313,0 1.206939,-0.03798 1.759582,-0.11369 0.563924,-0.06882 1.082801,-0.15808 1.556494,-0.2682 0.484975,-0.10323 0.913521,-0.21718 1.28571,-0.34106 0.383468,-0.12388 0.704879,-0.23386 0.964282,-0.33021 0.05075,-0.01721 0.101693,-0.02411 0.152446,-0.02067 z"
       inkscape:export-filename="path30.svg"
       inkscape:export-xdpi="96"
       inkscape:export-ydpi="96" /><path
       d="m 28.31024,42.024385 c -1.725607,0 -3.310233,-0.185812 -4.753879,-0.557445 -1.432366,-0.371633 -2.66736,-0.880912 -3.70498,-1.52783 -1.037621,-0.646919 0.08441,-1.403948 -0.502066,-2.271089 -0.575202,-0.87403 -0.862805,-1.813435 -0.862805,-2.818222 0,-0.667564 0.140982,-1.311045 0.422944,-1.930428 0.293241,-0.626273 0.699266,-1.211246 1.218075,-1.754935 0.530089,-0.543689 -0.766762,-1.039197 -0.02238,-1.486539 0.744379,-0.454216 1.567709,-0.839612 2.469987,-1.15619 0.913557,-0.323459 1.894784,-0.571217 2.943683,-0.743265 1.048899,-0.178939 2.14855,-0.268404 3.298955,-0.268404 1.139127,0 2.221861,0.08603 3.248202,0.258077 1.026342,0.165174 1.973734,0.402605 2.842177,0.712301 0.879722,0.309695 1.669215,0.684773 2.36848,1.125225 0.699267,0.43357 -0.595526,0.915314 -0.110554,1.445239 0.484975,0.529926 0.857164,1.10458 1.116569,1.723962 0.270683,0.612509 0.406024,1.252545 0.406024,1.920109 0,0.667565 -0.146619,1.314483 -0.43986,1.940755 -0.281962,0.619383 -0.687988,1.200919 -1.218076,1.744608 -0.51881,0.5368 0.736508,1.032315 -0.0078,1.486531 -0.744379,0.447342 -1.573348,0.832739 -2.486905,1.156198 -0.902278,0.316577 -1.877866,0.56089 -2.926765,0.732939 -1.048899,0.178938 -2.14855,0.268403 -3.298956,0.268403 z m 0.253766,-13.905283 c -0.924836,0 -1.731247,0.175493 -2.419234,0.52648 -0.687987,0.344105 -1.263189,0.818975 -1.725606,1.424602 -0.45114,0.598744 -0.789494,1.304155 -1.015064,2.11624 -0.225569,0.805203 -0.338354,1.66547 -0.338354,2.580792 0,0.922204 0.112782,1.785907 0.338354,2.59111 0.22557,0.805203 0.563924,1.510622 1.015064,2.116241 0.462417,0.598744 1.037619,1.073606 1.725606,1.424593 0.687987,0.344105 1.494398,0.516162 2.419234,0.516162 0.924836,0 1.731247,-0.172057 2.419234,-0.516162 0.687987,-0.350987 1.25755,-0.825849 1.70869,-1.424593 0.462417,-0.605619 0.806411,-1.311038 1.03198,-2.116241 0.22557,-0.805203 0.338355,-1.668906 0.338355,-2.59111 0,-0.915322 -0.112783,-1.775589 -0.338355,-2.580792 -0.225569,-0.812085 -0.569563,-1.517496 -1.03198,-2.11624 -0.45114,-0.605627 -1.020703,-1.080497 -1.70869,-1.424602 -0.687987,-0.350987 -1.494398,-0.52648 -2.419234,-0.52648 z m 10.370563,13.8227 c 0.101504,-0.03445 0.203011,-0.02758 0.304518,0.02062 0.101504,0.05507 0.112782,0.116993 0.03384,0.18582 -0.372191,0.323451 -0.857165,0.667556 -1.454924,1.032315 -0.586482,0.364751 -1.280108,0.701974 -2.08088,1.011669 -0.789494,0.309687 -1.680494,0.567764 -2.672999,0.77423 -0.992507,0.206466 -2.075241,0.309696 -3.248203,0.309696 -0.687987,0 -1.319582,-0.03789 -1.894784,-0.113556 -0.575203,-0.07569 -1.11093,-0.172057 -1.607184,-0.28905 -0.496253,-0.110111 -0.96431,-0.233986 -1.404171,-0.371633 -0.439859,-0.130757 -0.874081,-0.254639 -1.302664,-0.371632 -0.417303,-0.110111 -0.834608,-0.203022 -1.251911,-0.278723 -0.417303,-0.07569 -0.851525,-0.113556 -1.302664,-0.113556 -0.439861,0 -0.800772,0.02062 -1.082734,0.06195 -0.281962,0.0482 -0.479336,0.08258 -0.592121,0.103237 -0.146621,0.03445 -0.265044,0.01719 -0.355272,-0.05163 -0.09023,-0.06195 -0.06204,-0.137646 0.08459,-0.227112 0.06767,-0.04132 0.270682,-0.134202 0.609038,-0.278722 0.338354,-0.144521 0.778215,-0.295932 1.319583,-0.454216 0.552644,-0.151411 1.195518,-0.28905 1.928619,-0.412925 0.733102,-0.123883 1.528234,-0.18582 2.385398,-0.18582 0.74438,0 1.426728,0.02406 2.047044,0.07226 0.620316,0.05507 1.206798,0.120438 1.759443,0.19614 0.327076,0.0482 0.648513,0.09635 0.964311,0.14452 0.315797,0.05507 0.642873,0.10323 0.981227,0.144529 0.338354,0.04132 0.687987,0.07569 1.048898,0.103229 0.37219,0.02757 0.778215,0.04132 1.218076,0.04132 0.620317,0 1.206798,-0.03789 1.759443,-0.113556 0.563924,-0.06882 1.082734,-0.158285 1.556431,-0.268403 0.484975,-0.10323 0.913556,-0.216786 1.285746,-0.340661 0.383469,-0.123882 0.704905,-0.233993 0.96431,-0.330341 z"
       id="text26"
       style="font-size:26.4306px;line-height:2.9;font-family:Mermaid;-inkscape-font-specification:Mermaid;text-align:center;letter-spacing:0.204175px;direction:rtl;text-anchor:middle;stroke-width:1.49842;stroke-linecap:round"
       aria-label="Q"
       sodipodi:nodetypes="scscscccccscccscscccccsssccssccsccsscccssccccssscccsscccsscsscccscscccssc" /><path
       id="path38"
       style="opacity:1;fill:#000000;fill-opacity:1;stroke-width:2;stroke-linecap:round"
       d="m 133.38588,7.6571171 c -11.90605,6e-5 -21.55779,9.6518099 -21.55785,21.5578599 6e-5,11.90605 9.6518,21.5578 21.55785,21.55786 11.90605,-6e-5 21.5578,-9.65181 21.55786,-21.55786 -6e-5,-11.90605 -9.65181,-21.5577999 -21.55786,-21.5578599 z m -0.62166,5.4656099 v 5.1e-4 c 0.068,0 0.14323,0.0152 0.22634,0.0455 0.0756,0.0302 0.11369,0.10597 0.11369,0.22686 v 0.11472 c -0.51393,0.16626 -0.86138,0.63571 -0.86248,1.1653 0.001,0.52959 0.34855,0.99904 0.86248,1.16531 v 0.52296 c 0.002,0 0.005,0.001 0.007,0.002 v 1.76341 c 0,0.10578 -0.03,0.18156 -0.0904,0.22686 -0.0604,0.0453 -0.15475,0.03 -0.28319,-0.0455 -0.0604,-0.0378 -0.17382,-0.0907 -0.34003,-0.15865 -0.16622,-0.0756 -0.35534,-0.14697 -0.56689,-0.21497 -0.2191,-0.068 -0.44585,-0.12849 -0.68006,-0.18139 -0.23422,-0.0529 -0.45333,-0.0796 -0.65733,-0.0796 -0.25688,0 -0.52505,0.0305 -0.8046,0.091 -0.2871,0.0529 -0.54765,0.16626 -0.78186,0.34003 -0.24177,0.17377 -0.43801,0.42669 -0.58911,0.75913 -0.15112,0.32487 -0.22686,0.75929 -0.22686,1.30328 0,0.58176 0.0905,1.10286 0.27181,1.56373 0.17377,0.45332 0.40814,0.85777 0.7028,1.21284 0.28711,0.3551 0.61578,0.6609 0.98599,0.91778 0.37021,0.25688 0.74413,0.47981 1.1219,0.66869 0.19292,0.0984 0.38328,0.18657 0.57205,0.26665 h 3.37606 c 0.18877,-0.0799 0.37913,-0.16822 0.57205,-0.26665 0.37777,-0.18888 0.75169,-0.41181 1.1219,-0.66869 0.37021,-0.25688 0.6994,-0.56268 0.9865,-0.91778 0.29466,-0.35506 0.52851,-0.75952 0.70228,-1.21284 0.18133,-0.46087 0.27182,-0.98197 0.27182,-1.56373 0,-0.54399 -0.0752,-0.97841 -0.22634,-1.30328 -0.15111,-0.33243 -0.34734,-0.58587 -0.58911,-0.75964 -0.23422,-0.17377 -0.49528,-0.28664 -0.78238,-0.33952 -0.27955,-0.0605 -0.54772,-0.091 -0.8046,-0.091 -0.204,0 -0.42311,0.0267 -0.65733,0.0796 -0.23421,0.0529 -0.46096,0.1134 -0.68006,0.18139 -0.21155,0.068 -0.40016,0.13941 -0.56637,0.21497 -0.16622,0.0679 -0.27959,0.12086 -0.34004,0.15865 -0.12844,0.0755 -0.22274,0.0908 -0.28318,0.0455 -0.0605,-0.0453 -0.091,-0.12108 -0.091,-0.22686 v -1.76341 c 0.002,-4.2e-4 0.005,-0.002 0.008,-0.002 v -0.52296 c 0.51393,-0.16627 0.86138,-0.63572 0.86248,-1.16531 -0.001,-0.52959 -0.34855,-0.99904 -0.86248,-1.1653 v -0.11472 c 0,-0.12089 0.0376,-0.19663 0.11317,-0.22686 0.0831,-0.0303 0.15886,-0.0455 0.22686,-0.0455 v -5.1e-4 c 0.0482,0 0.0957,0.005 0.14366,0.005 0.54021,0.31633 0.87279,0.89481 0.87436,1.52083 -9.2e-4,0.49671 -0.21079,0.97011 -0.57825,1.30432 -0.009,0.006 -0.017,0.0137 -0.0232,0.0232 -0.0389,0.0327 -0.0793,0.0638 -0.12093,0.093 0.0357,-0.026 0.0721,-0.0508 0.10594,-0.0796 -0.008,0.0182 -0.0124,0.0406 -0.0124,0.0682 v 1.10764 c 0,0.0605 0.0186,0.098 0.0563,0.11317 0.0453,0.007 0.0911,-0.007 0.13643,-0.045 0.0378,-0.0302 0.16588,-0.11361 0.38498,-0.2496 0.21911,-0.136 0.50254,-0.27554 0.85008,-0.41909 0.34754,-0.15111 0.74054,-0.28738 1.17874,-0.40825 0.43821,-0.1209 0.89118,-0.18138 1.35961,-0.18138 0.51376,0 0.99013,0.0681 1.42834,0.20412 0.4382,0.136 0.81593,0.34367 1.13326,0.62322 0.31732,0.27954 0.56643,0.63492 0.74776,1.06557 0.18132,0.43062 0.27233,0.94085 0.27233,1.53013 0,0.34755 -0.0567,0.73621 -0.17001,1.16686 -0.11333,0.43065 -0.29864,0.8727 -0.55553,1.32602 -0.25687,0.44577 -0.59699,0.88399 -1.02009,1.31464 -0.41554,0.43821 -0.93283,0.8312 -1.55236,1.17874 -0.26409,0.14999 -0.5529,0.28643 -0.85783,0.41393 h 0.0444 c 0.36526,0 0.65939,0.29413 0.65939,0.65939 0,0.36526 -0.29413,0.65939 -0.65939,0.65939 h -8.86561 c -0.36526,0 -0.65939,-0.29413 -0.65939,-0.65939 0,-0.34117 0.25658,-0.61994 0.58808,-0.65525 -0.30852,-0.12859 -0.60029,-0.26653 -0.86713,-0.41807 -0.61953,-0.34754 -1.13734,-0.74053 -1.55288,-1.17874 -0.42309,-0.43065 -0.76321,-0.86887 -1.02009,-1.31464 -0.25688,-0.45332 -0.44168,-0.89537 -0.555,-1.32602 -0.11333,-0.43065 -0.17002,-0.81931 -0.17002,-1.16686 0,-0.58929 0.0905,-1.0995 0.27182,-1.53013 0.18133,-0.43065 0.43095,-0.78603 0.74827,-1.06557 0.31733,-0.27955 0.69506,-0.48722 1.13327,-0.62322 0.4382,-0.13606 0.91405,-0.20412 1.42782,-0.20412 0.46842,0 0.92191,0.0605 1.36012,0.18138 0.43821,0.12087 0.8312,0.25714 1.17874,0.40825 0.34754,0.14355 0.63046,0.28309 0.84956,0.41909 0.2191,0.13599 0.34773,0.2194 0.38551,0.2496 0.0453,0.0384 0.0906,0.052 0.13591,0.045 0.0378,-0.0151 0.0568,-0.0527 0.0568,-0.11317 v -1.10764 c 0,-0.0276 -0.004,-0.05 -0.0124,-0.0682 0.0338,0.0288 0.0702,0.0536 0.10593,0.0796 -0.0418,-0.0292 -0.0823,-0.0603 -0.12144,-0.093 -0.006,-0.01 -0.0135,-0.0172 -0.0227,-0.0232 -0.36746,-0.33421 -0.57734,-0.80761 -0.57826,-1.30432 0.002,-0.62602 0.33416,-1.2045 0.87437,-1.52083 0.048,0 0.0955,-0.005 0.14366,-0.005 z m 1.58078,2.98741 c -0.0392,0.0254 -0.0794,0.0491 -0.12041,0.0713 0.0406,-0.0228 0.0816,-0.0453 0.12041,-0.0713 z m -0.185,0.10852 c -0.0393,0.019 -0.0793,0.0366 -0.11989,0.0527 0.0403,-0.0169 0.0809,-0.033 0.11989,-0.0527 z m -0.19586,0.0853 c -0.0361,0.0122 -0.0727,0.0232 -0.10955,0.0331 0.0366,-0.0107 0.0738,-0.0201 0.10955,-0.0331 z m -0.32039,11.78709 c 1.13912,0 2.22153,0.0858 3.24786,0.25786 1.02634,0.16517 1.97377,0.40293 2.84221,0.71262 0.87971,0.3097 1.66959,0.68455 2.36884,1.125 0.69927,0.43357 1.29116,0.91547 1.77612,1.44539 0.48498,0.52992 0.85733,1.10456 1.11673,1.72392 0.27068,0.61251 0.40618,1.25274 0.40618,1.9203 0,0.66756 -0.14705,1.31418 -0.44028,1.94045 -0.28197,0.61939 -0.68794,1.20094 -1.21802,1.74459 -0.5188,0.5368 -1.15008,1.03252 -1.89446,1.48674 -0.74437,0.44733 -1.57363,0.83254 -2.48718,1.156 -0.90227,0.31658 -1.87755,0.56124 -2.92644,0.73329 -1.04889,0.17893 -2.14863,0.2682 -3.29902,0.2682 -1.7256,0 -3.3106,-0.18596 -4.75423,-0.55759 -1.43236,-0.37163 -2.66708,-0.88067 -3.70469,-1.52756 -1.03761,-0.64692 -1.84954,-1.40404 -2.43603,-2.27118 -0.57519,-0.87403 -0.86299,-1.81364 -0.86299,-2.81843 0,-0.66756 0.14075,-1.31072 0.42271,-1.93011 0.29324,-0.62627 0.69921,-1.21126 1.21802,-1.75494 0.53008,-0.54369 1.16764,-1.0394 1.91202,-1.48673 0.74438,-0.45422 1.56787,-0.83942 2.47014,-1.156 0.91355,-0.32345 1.89459,-0.57157 2.94349,-0.74362 1.04889,-0.17893 2.14862,-0.2682 3.29902,-0.2682 z m -0.25373,0.60926 c -0.92483,0 -1.73151,0.17508 -2.41949,0.52607 -0.68798,0.34411 -1.26306,0.8191 -1.72548,1.42472 -0.45113,0.59874 -0.78935,1.30406 -1.01492,2.11615 -0.22557,0.80521 -0.33848,1.66592 -0.33848,2.58124 0,0.92216 0.11291,1.78587 0.33848,2.59105 0.22557,0.80521 0.56379,1.51053 1.01492,2.11615 0.46242,0.59875 1.0375,1.07374 1.72548,1.42472 0.68798,0.34411 1.49466,0.51573 2.41949,0.51573 0.92483,0 1.73099,-0.17162 2.41897,-0.51573 0.68798,-0.35098 1.25781,-0.82597 1.70894,-1.42472 0.46242,-0.60562 0.80641,-1.31094 1.03198,-2.11615 0.22556,-0.80518 0.33848,-1.66889 0.33848,-2.59105 0,-0.91532 -0.11292,-1.77603 -0.33848,-2.58124 -0.22557,-0.81209 -0.56956,-1.51741 -1.03198,-2.11615 -0.45113,-0.60562 -1.02096,-1.08061 -1.70894,-1.42472 -0.68798,-0.35099 -1.49414,-0.52607 -2.41897,-0.52607 z m -2.77813,4.77129 c 0.97635,2e-5 1.76784,0.7915 1.76785,1.76785 -1e-5,0.97635 -0.7915,1.76783 -1.76785,1.76785 -0.97635,-2e-5 -1.76783,-0.7915 -1.76785,-1.76785 2e-5,-0.97635 0.7915,-1.76783 1.76785,-1.76785 z m 5.36453,0 c 0.97635,2e-5 1.76784,0.7915 1.76785,1.76785 -1e-5,0.97635 -0.7915,1.76783 -1.76785,1.76785 -0.97635,-2e-5 -1.76783,-0.7915 -1.76785,-1.76785 2e-5,-0.97635 0.7915,-1.76783 1.76785,-1.76785 z m 7.93647,9.02994 v 5.1e-4 c 0.0507,0.003 0.10118,0.0168 0.15193,0.0408 0.10151,0.055 0.11305,0.11721 0.0341,0.18603 -0.37219,0.32346 -0.85746,0.66723 -1.45521,1.03198 -0.58648,0.36475 -1.27972,0.70213 -2.08049,1.01183 -0.78949,0.30969 -1.68073,0.56765 -2.67322,0.77411 -0.9925,0.20646 -2.07543,0.31006 -3.24839,0.31006 -0.68798,0 -1.31926,-0.038 -1.89445,-0.11369 -0.5752,-0.0757 -1.11089,-0.17188 -1.60714,-0.28887 -0.49625,-0.11012 -0.96471,-0.23443 -1.40457,-0.37207 -0.43986,-0.13076 -0.87366,-0.25456 -1.30224,-0.37156 -0.4173,-0.11011 -0.83482,-0.20283 -1.25212,-0.27853 -0.4173,-0.0757 -0.85163,-0.11369 -1.30276,-0.11369 -0.43987,0 -0.80066,0.0207 -1.08263,0.062 -0.28195,0.0482 -0.47942,0.0827 -0.59221,0.10335 -0.14661,0.0344 -0.26479,0.0171 -0.35502,-0.0517 -0.0902,-0.0619 -0.0624,-0.13791 0.0842,-0.22738 0.0677,-0.0413 0.27092,-0.13401 0.60927,-0.27853 0.33835,-0.14453 0.77794,-0.29595 1.3193,-0.45424 0.55264,-0.15141 1.19598,-0.28902 1.92908,-0.41289 0.73309,-0.12388 1.52823,-0.18604 2.38538,-0.18604 0.74438,0 1.4266,0.0242 2.04691,0.0724 0.62031,0.055 1.20694,0.12066 1.75958,0.19637 0.32707,0.0482 0.64849,0.096 0.96428,0.14418 0.3158,0.0551 0.64247,0.1034 0.98082,0.14469 0.33835,0.0413 0.68813,0.0758 1.04903,0.10335 0.37219,0.0275 0.77816,0.0413 1.21802,0.0413 0.62031,0 1.20694,-0.038 1.75958,-0.11368 0.56392,-0.0688 1.0828,-0.15809 1.55649,-0.26821 0.48498,-0.10323 0.91352,-0.21718 1.28571,-0.34106 0.38347,-0.12388 0.70489,-0.23386 0.96428,-0.33021 0.0508,-0.0172 0.1017,-0.0241 0.15245,-0.0207 z"
       inkscape:export-filename="path38.svg"
       inkscape:export-xdpi="96"
       inkscape:export-ydpi="96"
       sodipodi:nodetypes="ccccccccscccccsscccsscccsccsccccsccscccsscccsscccccscccccccccssccscsscssssccccsssssccccsssscsscsccssccccccccccccccccscccscscccccscscscccccsscccssccsccsscccsssssssssssccccccssscccsscccsscsscccscsccccc" /><path
       d="m 17.099421,15.124749 c -0.076,0.0253 -0.14572,0.019 -0.20907,-0.019 -0.0697,-0.0317 -0.0887,-0.10769 -0.057,-0.22807 0.038,-0.14571 0.12036,-0.29142 0.24707,-0.43713 0.12037,-0.13937 0.27559,-0.26925 0.46564,-0.38962 0.18372,-0.12037 0.39595,-0.21539 0.63669,-0.28508 0.24074,-0.076 0.50049,-0.11404 0.77924,-0.11404 0.2344,0 0.4688,0.0222 0.70321,0.0665 0.2344,0.0443 0.4593,0.12036 0.6747,0.22807 0.20906,0.1077 0.39912,0.25024 0.57017,0.42763 0.17105,0.17739 0.3136,0.39912 0.42763,0.6652 0.10136,0.22807 0.18055,0.48781 0.23757,0.77923 0.0507,0.29776 0.0919,0.6367 0.12354,1.01681 0.0633,0.73489 0.15836,1.31456 0.28508,1.73902 0.12037,0.43079 0.26292,0.75389 0.42763,0.96929 0.15838,0.22173 0.32943,0.36111 0.51315,0.41813 0.18373,0.057 0.36111,0.0855 0.53216,0.0855 0.2154,0 0.36428,-0.0412 0.44664,-0.12353 0.0823,-0.0824 0.12353,-0.2249 0.12353,-0.42763 v -3.81065 c 0,-0.29775 -0.0633,-0.53849 -0.19005,-0.72221 -0.12671,-0.18372 -0.27242,-0.32943 -0.43713,-0.43713 -0.17105,-0.1077 -0.33894,-0.18372 -0.50365,-0.22807 -0.16472,-0.038 -0.28509,-0.0633 -0.36111,-0.076 -0.057,-0.0127 -0.0982,-0.0348 -0.12354,-0.0665 -0.0317,-0.0317 -0.0443,-0.0665 -0.038,-0.10454 0,-0.0317 0.0158,-0.0633 0.0475,-0.095 0.0317,-0.0253 0.0792,-0.038 0.14255,-0.038 h 6.06281 c 0.0633,0 0.11085,0.0127 0.14255,0.038 0.0317,0.0317 0.0507,0.0633 0.057,0.095 0,0.038 -0.0127,0.0728 -0.038,0.10454 -0.0317,0.0317 -0.076,0.0538 -0.13304,0.0665 -0.076,0.0127 -0.19639,0.038 -0.36111,0.076 -0.16471,0.0443 -0.32943,0.12036 -0.49414,0.22807 -0.17105,0.1077 -0.31993,0.25341 -0.44664,0.43713 -0.1267,0.18372 -0.19005,0.42446 -0.19005,0.72221 v 9.29379 c 0,0.29142 0.0633,0.52899 0.19005,0.71272 0.12671,0.19005 0.27559,0.33576 0.44664,0.43713 0.16471,0.10769 0.32943,0.18371 0.49414,0.22806 0.16472,0.0443 0.28509,0.0728 0.36111,0.0855 0.057,0.007 0.10135,0.0257 0.13304,0.057 0.0253,0.038 0.038,0.0728 0.038,0.10453 -0.007,0.038 -0.0257,0.0697 -0.057,0.095 -0.0317,0.0317 -0.0799,0.0382 -0.14255,0.0475 l -3.1649,0.47173 c -0.35716,0.0532 -1.70373,0.31349 -2.68901,0.56628 -1.00339,0.27637 -1.52517,0.45857 -1.94895,0.60238 -0.58343,0.22604 -1.43722,0.94474 -1.74764,0.81168 -0.31676,-0.13304 -0.55106,-1.46725 -0.79246,-2.58792 -0.051,-0.74276 0.0926,-1.29321 -0.0532,-1.58463 -0.15205,-0.28509 -0.25658,-0.58601 -0.3136,-0.90278 -0.0633,-0.31676 -0.076,-0.63986 -0.038,-0.96929 0.0317,-0.32943 0.11403,-0.63668 0.24708,-0.92177 0.22807,-0.50682 0.52582,-0.89961 0.89326,-1.17836 0.36745,-0.27241 0.80775,-0.48147 1.3209,-0.62718 0.0507,-0.0127 0.0792,-0.0348 0.0855,-0.0665 0.007,-0.0253 -0.0123,-0.0412 -0.057,-0.0475 -0.0507,-0.0127 -0.13936,-0.0348 -0.26608,-0.0665 -0.12671,-0.0317 -0.26925,-0.0855 -0.42763,-0.16155 -0.15838,-0.0697 -0.31676,-0.16788 -0.47514,-0.29458 -0.15838,-0.12671 -0.29142,-0.28509 -0.39912,-0.47515 -0.13304,-0.2344 -0.2249,-0.53215 -0.27558,-0.89326 -0.057,-0.35477 -0.0918,-0.73172 -0.10454,-1.13084 -0.0253,-0.43713 -0.0507,-0.80141 -0.076,-1.09283 -0.0317,-0.28509 -0.0855,-0.50999 -0.16155,-0.6747 -0.057,-0.13304 -0.12985,-0.23441 -0.21856,-0.3041 -0.095,-0.0633 -0.19323,-0.10768 -0.29459,-0.13304 -0.10137,-0.0253 -0.20273,-0.0348 -0.30409,-0.0285 -0.10137,0.0127 -0.19006,0.0348 -0.26608,0.0665 z m 6.70901,5.47364 c -0.16471,0 -0.34527,0.006 -0.54166,0.019 -0.20273,0.0127 -0.40229,0.0475 -0.59868,0.10453 -0.20273,0.0633 -0.39595,0.15836 -0.57968,0.28509 -0.19005,0.13304 -0.35477,0.31676 -0.49414,0.55117 -0.14571,0.24073 -0.25975,0.54166 -0.34211,0.90277 -0.0887,0.36111 -0.13304,0.80457 -0.13304,1.3304 0,0.45613 0.0348,0.83625 0.10453,1.14034 0.0697,0.31043 0.17106,0.5575 0.3041,0.74122 0.1267,0.19005 0.28508,0.32626 0.47514,0.40862 0.18372,0.0824 0.39278,0.12354 0.62719,0.12354 0.20906,0 0.39912,-0.0285 0.57017,-0.0855 0.17105,-0.0507 0.31992,-0.13619 0.44663,-0.25657 0.12037,-0.12037 0.2154,-0.27242 0.28509,-0.45614 0.0633,-0.18372 0.095,-0.40862 0.095,-0.6747 v -3.92468 c 0,-0.13937 -0.0729,-0.20906 -0.21856,-0.20906 z"
       id="path39"
       style="font-size:19.0057px;line-height:2.9;font-family:Mermaid;-inkscape-font-specification:Mermaid;text-align:center;letter-spacing:0.146819px;direction:rtl;text-anchor:middle;stroke-width:1.07749;stroke-linecap:round"
       aria-label="R"
       sodipodi:nodetypes="ccccccsscscccccssssssccccccssccccccsssccsccccssccccccccccccscsccccccscccccccccscccscccsscc" /><circle
       style="opacity:1;fill:#ffffff;fill-opacity:1;stroke-width:2;stroke-linecap:round"
       id="circle40"
       cx="183.68704"
       cy="29.215086"
       r="21.557974"
       inkscape:export-filename="path42.svg"
       inkscape:export-xdpi="96"
       inkscape:export-ydpi="96" /><path
       id="path40"
       style="opacity:1;fill:#000000;fill-opacity:1;stroke-width:2;stroke-linecap:round"
       d="m 183.68705,7.6571171 c -11.90605,6e-5 -21.55779,9.6518099 -21.55785,21.5578599 6e-5,11.90605 9.6518,21.5578 21.55785,21.55786 11.90605,-6e-5 21.5578,-9.65181 21.55786,-21.55786 -6e-5,-11.90605 -9.65181,-21.5577999 -21.55786,-21.5578599 z m -0.62166,4.1980739 v 5.1e-4 c 0.068,0 0.14323,0.0152 0.22634,0.0455 0.0756,0.0302 0.11369,0.10597 0.11369,0.22686 v 0.11472 c -0.51393,0.16626 -0.86138,0.63571 -0.86248,1.1653 0.001,0.52959 0.34855,0.99904 0.86248,1.16531 v 0.52296 c 0.002,0 0.005,10e-4 0.007,0.002 v 1.76341 c 0,0.10578 -0.03,0.18156 -0.0904,0.22686 -0.0604,0.0453 -0.15475,0.03 -0.28319,-0.0455 -0.0604,-0.0378 -0.17382,-0.0907 -0.34003,-0.15865 -0.16622,-0.0756 -0.35534,-0.14697 -0.56689,-0.21497 -0.2191,-0.068 -0.44585,-0.12849 -0.68006,-0.18139 -0.23422,-0.0529 -0.45333,-0.0796 -0.65733,-0.0796 -0.25688,0 -0.52505,0.0305 -0.8046,0.091 -0.2871,0.0529 -0.54765,0.16626 -0.78186,0.34003 -0.24177,0.17377 -0.43801,0.42669 -0.58911,0.75913 -0.15112,0.32487 -0.22686,0.75929 -0.22686,1.30328 0,0.58176 0.0905,1.10286 0.27181,1.56373 0.17377,0.45332 0.40814,0.85777 0.7028,1.21284 0.28711,0.3551 0.61578,0.6609 0.98599,0.91778 0.37021,0.25688 0.74413,0.47981 1.1219,0.66869 0.19292,0.0984 0.38328,0.18657 0.57205,0.26665 h 3.37606 c 0.18877,-0.0799 0.37913,-0.16822 0.57205,-0.26665 0.37777,-0.18888 0.75169,-0.41181 1.1219,-0.66869 0.37021,-0.25688 0.6994,-0.56268 0.9865,-0.91778 0.29466,-0.35506 0.52851,-0.75952 0.70228,-1.21284 0.18133,-0.46087 0.27182,-0.98197 0.27182,-1.56373 0,-0.54399 -0.0752,-0.97841 -0.22634,-1.30328 -0.15111,-0.33243 -0.34734,-0.58587 -0.58911,-0.75964 -0.23422,-0.17377 -0.49528,-0.28664 -0.78238,-0.33952 -0.27955,-0.0605 -0.54772,-0.091 -0.8046,-0.091 -0.204,0 -0.42311,0.0267 -0.65733,0.0796 -0.23421,0.0529 -0.46096,0.1134 -0.68006,0.18139 -0.21155,0.068 -0.40016,0.13941 -0.56637,0.21497 -0.16622,0.0679 -0.27959,0.12086 -0.34004,0.15865 -0.12844,0.0755 -0.22274,0.0908 -0.28318,0.0455 -0.0605,-0.0453 -0.091,-0.12108 -0.091,-0.22686 v -1.76341 c 0.002,-4.2e-4 0.005,-0.002 0.008,-0.002 v -0.52296 c 0.51393,-0.16627 0.86138,-0.63572 0.86248,-1.16531 -0.001,-0.52959 -0.34855,-0.99904 -0.86248,-1.1653 v -0.11472 c 0,-0.12089 0.0376,-0.19663 0.11317,-0.22686 0.0831,-0.0303 0.15886,-0.0455 0.22686,-0.0455 v -5.1e-4 c 0.0482,0 0.0957,0.005 0.14366,0.005 0.54021,0.31633 0.87279,0.89481 0.87436,1.52083 -9.2e-4,0.49671 -0.21079,0.97011 -0.57825,1.30432 -0.009,0.006 -0.017,0.0137 -0.0232,0.0232 -0.0389,0.0327 -0.0793,0.0638 -0.12093,0.093 0.0357,-0.026 0.0721,-0.0508 0.10594,-0.0796 -0.008,0.0182 -0.0124,0.0406 -0.0124,0.0682 v 1.10764 c 0,0.0605 0.0186,0.098 0.0563,0.11317 0.0453,0.007 0.0911,-0.007 0.13643,-0.045 0.0378,-0.0302 0.16588,-0.11361 0.38498,-0.2496 0.21911,-0.136 0.50254,-0.27554 0.85008,-0.41909 0.34754,-0.15111 0.74054,-0.28738 1.17874,-0.40825 0.43821,-0.1209 0.89118,-0.18138 1.35961,-0.18138 0.51376,0 0.99013,0.0681 1.42834,0.20412 0.4382,0.136 0.81593,0.34367 1.13326,0.62322 0.31732,0.27954 0.56643,0.63492 0.74776,1.06557 0.18132,0.43062 0.27233,0.94085 0.27233,1.53013 0,0.34755 -0.0567,0.73621 -0.17001,1.16686 -0.11333,0.43065 -0.29864,0.8727 -0.55553,1.32602 -0.25687,0.44577 -0.59699,0.88399 -1.02009,1.31464 -0.41554,0.43821 -0.93283,0.8312 -1.55236,1.17874 -0.26409,0.14999 -0.5529,0.28643 -0.85783,0.41393 h 0.0444 c 0.36526,0 0.65939,0.29413 0.65939,0.65939 0,0.36526 -0.29413,0.65939 -0.65939,0.65939 h -8.86561 c -0.36526,0 -0.65939,-0.29413 -0.65939,-0.65939 0,-0.34117 0.25658,-0.61994 0.58808,-0.65525 -0.30852,-0.12859 -0.60029,-0.26653 -0.86713,-0.41807 -0.61953,-0.34754 -1.13734,-0.74053 -1.55288,-1.17874 -0.42309,-0.43065 -0.76321,-0.86887 -1.02009,-1.31464 -0.25688,-0.45332 -0.44168,-0.89537 -0.555,-1.32602 -0.11333,-0.43065 -0.17002,-0.81931 -0.17002,-1.16686 0,-0.58929 0.0905,-1.0995 0.27182,-1.53013 0.18133,-0.43065 0.43095,-0.78603 0.74827,-1.06557 0.31733,-0.27955 0.69506,-0.48722 1.13327,-0.62322 0.4382,-0.13606 0.91405,-0.20412 1.42782,-0.20412 0.46842,0 0.92191,0.0605 1.36012,0.18138 0.43821,0.12087 0.8312,0.25714 1.17874,0.40825 0.34754,0.14355 0.63046,0.28309 0.84956,0.41909 0.2191,0.13599 0.34773,0.2194 0.38551,0.2496 0.0453,0.0384 0.0906,0.052 0.13591,0.045 0.0378,-0.0151 0.0568,-0.0527 0.0568,-0.11317 v -1.10764 c 0,-0.0276 -0.004,-0.05 -0.0124,-0.0682 0.0338,0.0288 0.0702,0.0536 0.10593,0.0796 -0.0418,-0.0292 -0.0823,-0.0603 -0.12144,-0.093 -0.006,-0.01 -0.0135,-0.0172 -0.0227,-0.0232 -0.36746,-0.33421 -0.57734,-0.80761 -0.57826,-1.30432 0.002,-0.62602 0.33416,-1.2045 0.87437,-1.52083 0.048,0 0.0955,-0.005 0.14366,-0.005 z m 1.58078,2.98741 c -0.0392,0.0254 -0.0794,0.0491 -0.12041,0.0713 0.0406,-0.0228 0.0816,-0.0453 0.12041,-0.0713 z m -0.185,0.10852 c -0.0393,0.019 -0.0793,0.0366 -0.11989,0.0527 0.0403,-0.0169 0.0809,-0.033 0.11989,-0.0527 z m -0.19586,0.0853 c -0.0361,0.0122 -0.0727,0.0232 -0.10955,0.0331 0.0366,-0.0107 0.0738,-0.0201 0.10955,-0.0331 z m -0.32039,11.553596 c 1.13912,0 2.22153,0.0858 3.24786,0.25786 1.02634,0.16517 1.97377,0.40293 2.84221,0.71262 0.87971,0.3097 1.66959,0.68455 2.36884,1.125 0.69927,0.43357 1.29116,0.91547 1.77612,1.44539 0.48498,0.52992 0.85733,1.10456 1.11673,1.72392 0.27068,0.61251 0.40618,1.25274 0.40618,1.9203 0,0.66756 -0.14705,1.31418 -0.44028,1.94045 -0.28197,0.61939 -0.68794,1.20094 -1.21802,1.74459 -0.5188,0.5368 -1.15008,1.03252 -1.89446,1.48674 -0.74437,0.44733 -1.57363,0.83254 -2.48718,1.156 -0.90227,0.31658 -1.87755,0.56124 -2.92644,0.73329 -1.04889,0.17893 -2.14863,0.2682 -3.29902,0.2682 -1.7256,0 -3.3106,-0.18596 -4.75423,-0.55759 -1.43236,-0.37163 -2.66708,-0.88067 -3.70469,-1.52756 -1.03761,-0.64692 -1.84954,-1.40404 -2.43603,-2.27118 -0.57519,-0.87403 -0.86299,-1.81364 -0.86299,-2.81843 0,-0.66756 0.14075,-1.31072 0.42271,-1.93011 0.29324,-0.62627 0.69921,-1.21126 1.21802,-1.75494 0.53008,-0.54369 1.16764,-1.0394 1.91202,-1.48673 0.74438,-0.45422 1.56787,-0.83942 2.47014,-1.156 0.91355,-0.32345 1.89459,-0.57157 2.94349,-0.74362 1.04889,-0.17893 2.14862,-0.2682 3.29902,-0.2682 z m -0.25373,0.60926 c -0.92483,0 -1.73151,0.17508 -2.41949,0.52607 -0.68798,0.34411 -1.26306,0.8191 -1.72548,1.42472 -0.45113,0.59874 -0.78935,1.30406 -1.01492,2.11615 -0.22557,0.80521 -0.33848,1.66592 -0.33848,2.58124 0,0.92216 0.11291,1.78587 0.33848,2.59105 0.22557,0.80521 0.56379,1.51053 1.01492,2.11615 0.46242,0.59875 1.0375,1.07374 1.72548,1.42472 0.68798,0.34411 1.49466,0.51573 2.41949,0.51573 0.92483,0 1.73099,-0.17162 2.41897,-0.51573 0.68798,-0.35098 1.25781,-0.82597 1.70894,-1.42472 0.46242,-0.60562 0.80641,-1.31094 1.03198,-2.11615 0.22556,-0.80518 0.33848,-1.66889 0.33848,-2.59105 0,-0.91532 -0.11292,-1.77603 -0.33848,-2.58124 -0.22557,-0.81209 -0.56956,-1.51741 -1.03198,-2.11615 -0.45113,-0.60562 -1.02096,-1.08061 -1.70894,-1.42472 -0.68798,-0.35099 -1.49414,-0.52607 -2.41897,-0.52607 z m -2.77813,4.77129 c 0.97635,2e-5 1.76784,0.7915 1.76785,1.76785 -1e-5,0.97635 -0.7915,1.76783 -1.76785,1.76785 -0.97635,-2e-5 -1.76783,-0.7915 -1.76785,-1.76785 2e-5,-0.97635 0.7915,-1.76783 1.76785,-1.76785 z m 5.36453,0 c 0.97635,2e-5 1.76784,0.7915 1.76785,1.76785 -1e-5,0.97635 -0.7915,1.76783 -1.76785,1.76785 -0.97635,-2e-5 -1.76783,-0.7915 -1.76785,-1.76785 2e-5,-0.97635 0.7915,-1.76783 1.76785,-1.76785 z m 7.93647,10.555987 v -0.0219 c 0.0507,0.003 0.10118,0.0142 0.15193,0.0382 0.10151,0.055 0.11305,0.11721 0.0341,0.18603 -0.37219,0.32346 -0.85746,0.66723 -1.45521,1.03198 -0.58648,0.36475 -1.27972,0.70213 -2.08049,1.01183 -0.78949,0.30969 -1.68073,0.56765 -2.67322,0.77411 -0.9925,0.20646 -2.07543,0.31006 -3.24839,0.31006 -0.68798,0 -1.31926,-0.038 -1.89445,-0.11369 -0.5752,-0.0757 -1.11089,-0.17188 -1.60714,-0.28887 -0.49625,-0.11012 -0.96471,-0.23443 -1.40457,-0.37207 -0.43986,-0.13076 -0.87366,-0.25456 -1.30224,-0.37156 -0.4173,-0.11011 -0.83482,-0.20283 -1.25212,-0.27853 -0.4173,-0.0757 -0.85163,-0.11369 -1.30276,-0.11369 -0.43987,0 -0.80066,0.0207 -1.08263,0.062 -0.28195,0.0482 -0.47942,0.0827 -0.59221,0.10335 -0.14661,0.0344 -0.26479,0.0171 -0.35502,-0.0517 -0.0902,-0.0619 -0.0624,-0.13791 0.0842,-0.22738 0.0677,-0.0413 0.27092,-0.13401 0.60927,-0.27853 0.33835,-0.14453 0.77794,-0.29595 1.3193,-0.45424 0.55264,-0.15141 1.19598,-0.28902 1.92908,-0.41289 0.73309,-0.12388 1.52823,-0.18604 2.38538,-0.18604 0.74438,0 1.4266,0.0242 2.04691,0.0724 0.62031,0.055 1.20694,0.12066 1.75958,0.19637 0.32707,0.0482 0.64849,0.096 0.96428,0.14418 0.3158,0.0551 0.64247,0.1034 0.98082,0.14469 0.33835,0.0413 0.68813,0.0758 1.04903,0.10335 0.37219,0.0275 0.77816,0.0413 1.21802,0.0413 0.62031,0 1.20694,-0.038 1.75958,-0.11368 0.56392,-0.0688 1.0828,-0.15809 1.55649,-0.26821 0.48498,-0.10323 0.91352,-0.21718 1.28571,-0.34106 0.38347,-0.12388 0.70489,-0.23386 0.96428,-0.33021 0.0508,-0.0172 0.1017,-0.0241 0.15245,-0.0207 z"
       inkscape:export-filename="path38.svg"
       inkscape:export-xdpi="96"
       inkscape:export-ydpi="96"
       sodipodi:nodetypes="ccccccccscccccsscccsscccsccsccccsccscccsscccsscccccscccccccccssccscsscssssccccsssssccccsssscsscsccssccccccccccccccscssccscscccccscscscccccsssccssccsccsscccssssssscsssccccccssscccsscccsscsscccscsccccccc" /><rect
       style="opacity:1;fill:#000000;fill-opacity:1;stroke:none;stroke-width:1.23711;stroke-linecap:round;stroke-dasharray:none;stroke-opacity:1"
       id="rect40"
       width="9.1729584"
       height="4.7032261"
       x="179.05614"
       y="31.47069"
       ry="0.62209147" /></g></svg>
